%TF.GenerationSoftware,KiCad,Pcbnew,9.0.8-9.0.8~ubuntu24.04.1*%
%TF.CreationDate,2026-04-13T12:47:46+03:00*%
%TF.ProjectId,sn,736e2e6b-6963-4616-945f-706362585858,rev?*%
%TF.SameCoordinates,Original*%
%TF.FileFunction,Copper,L1,Top*%
%TF.FilePolarity,Positive*%
%FSLAX46Y46*%
G04 Gerber Fmt 4.6, Leading zero omitted, Abs format (unit mm)*
G04 Created by KiCad (PCBNEW 9.0.8-9.0.8~ubuntu24.04.1) date 2026-04-13 12:47:46*
%MOMM*%
%LPD*%
G01*
G04 APERTURE LIST*
G04 Aperture macros list*
%AMRoundRect*
0 Rectangle with rounded corners*
0 $1 Rounding radius*
0 $2 $3 $4 $5 $6 $7 $8 $9 X,Y pos of 4 corners*
0 Add a 4 corners polygon primitive as box body*
4,1,4,$2,$3,$4,$5,$6,$7,$8,$9,$2,$3,0*
0 Add four circle primitives for the rounded corners*
1,1,$1+$1,$2,$3*
1,1,$1+$1,$4,$5*
1,1,$1+$1,$6,$7*
1,1,$1+$1,$8,$9*
0 Add four rect primitives between the rounded corners*
20,1,$1+$1,$2,$3,$4,$5,0*
20,1,$1+$1,$4,$5,$6,$7,0*
20,1,$1+$1,$6,$7,$8,$9,0*
20,1,$1+$1,$8,$9,$2,$3,0*%
G04 Aperture macros list end*
%TA.AperFunction,ComponentPad*%
%ADD10O,1.700000X0.900000*%
%TD*%
%TA.AperFunction,ComponentPad*%
%ADD11O,2.400000X0.900000*%
%TD*%
%TA.AperFunction,ComponentPad*%
%ADD12C,0.700000*%
%TD*%
%TA.AperFunction,HeatsinkPad*%
%ADD13C,0.600000*%
%TD*%
%TA.AperFunction,HeatsinkPad*%
%ADD14R,3.900000X3.900000*%
%TD*%
%TA.AperFunction,SMDPad,CuDef*%
%ADD15R,1.500000X0.900000*%
%TD*%
%TA.AperFunction,SMDPad,CuDef*%
%ADD16R,0.900000X1.500000*%
%TD*%
%TA.AperFunction,ComponentPad*%
%ADD17RoundRect,0.250000X0.550000X0.550000X-0.550000X0.550000X-0.550000X-0.550000X0.550000X-0.550000X0*%
%TD*%
%TA.AperFunction,ComponentPad*%
%ADD18C,1.600000*%
%TD*%
%TA.AperFunction,SMDPad,CuDef*%
%ADD19RoundRect,0.200000X0.275000X-0.200000X0.275000X0.200000X-0.275000X0.200000X-0.275000X-0.200000X0*%
%TD*%
%TA.AperFunction,ComponentPad*%
%ADD20RoundRect,0.249999X0.850001X0.850001X-0.850001X0.850001X-0.850001X-0.850001X0.850001X-0.850001X0*%
%TD*%
%TA.AperFunction,ComponentPad*%
%ADD21C,2.200000*%
%TD*%
%TA.AperFunction,SMDPad,CuDef*%
%ADD22RoundRect,0.225000X0.250000X-0.225000X0.250000X0.225000X-0.250000X0.225000X-0.250000X-0.225000X0*%
%TD*%
%TA.AperFunction,ComponentPad*%
%ADD23R,1.700000X1.700000*%
%TD*%
%TA.AperFunction,ComponentPad*%
%ADD24O,1.700000X1.700000*%
%TD*%
%TA.AperFunction,ComponentPad*%
%ADD25RoundRect,0.250000X-1.050000X-1.050000X1.050000X-1.050000X1.050000X1.050000X-1.050000X1.050000X0*%
%TD*%
%TA.AperFunction,ComponentPad*%
%ADD26C,2.600000*%
%TD*%
%TA.AperFunction,SMDPad,CuDef*%
%ADD27RoundRect,0.225000X-0.250000X0.225000X-0.250000X-0.225000X0.250000X-0.225000X0.250000X0.225000X0*%
%TD*%
%TA.AperFunction,SMDPad,CuDef*%
%ADD28RoundRect,0.200000X-0.275000X0.200000X-0.275000X-0.200000X0.275000X-0.200000X0.275000X0.200000X0*%
%TD*%
%TA.AperFunction,SMDPad,CuDef*%
%ADD29RoundRect,0.225000X-0.225000X-0.250000X0.225000X-0.250000X0.225000X0.250000X-0.225000X0.250000X0*%
%TD*%
%TA.AperFunction,ComponentPad*%
%ADD30R,3.000000X3.000000*%
%TD*%
%TA.AperFunction,ComponentPad*%
%ADD31C,3.000000*%
%TD*%
%TA.AperFunction,SMDPad,CuDef*%
%ADD32RoundRect,0.200000X-0.250000X-0.200000X0.250000X-0.200000X0.250000X0.200000X-0.250000X0.200000X0*%
%TD*%
%TA.AperFunction,SMDPad,CuDef*%
%ADD33RoundRect,0.250000X-0.450000X0.800000X-0.450000X-0.800000X0.450000X-0.800000X0.450000X0.800000X0*%
%TD*%
%TA.AperFunction,SMDPad,CuDef*%
%ADD34RoundRect,0.250000X1.500000X0.550000X-1.500000X0.550000X-1.500000X-0.550000X1.500000X-0.550000X0*%
%TD*%
%TA.AperFunction,SMDPad,CuDef*%
%ADD35RoundRect,0.250000X0.550000X-1.500000X0.550000X1.500000X-0.550000X1.500000X-0.550000X-1.500000X0*%
%TD*%
%TA.AperFunction,SMDPad,CuDef*%
%ADD36RoundRect,0.150000X-0.512500X-0.150000X0.512500X-0.150000X0.512500X0.150000X-0.512500X0.150000X0*%
%TD*%
%TA.AperFunction,ComponentPad*%
%ADD37RoundRect,0.250000X-0.550000X-0.550000X0.550000X-0.550000X0.550000X0.550000X-0.550000X0.550000X0*%
%TD*%
%TA.AperFunction,SMDPad,CuDef*%
%ADD38RoundRect,0.250000X0.625000X-0.375000X0.625000X0.375000X-0.625000X0.375000X-0.625000X-0.375000X0*%
%TD*%
%TA.AperFunction,SMDPad,CuDef*%
%ADD39RoundRect,0.250000X-0.250000X-0.475000X0.250000X-0.475000X0.250000X0.475000X-0.250000X0.475000X0*%
%TD*%
%TA.AperFunction,SMDPad,CuDef*%
%ADD40RoundRect,0.200000X0.200000X0.275000X-0.200000X0.275000X-0.200000X-0.275000X0.200000X-0.275000X0*%
%TD*%
%TA.AperFunction,ComponentPad*%
%ADD41RoundRect,0.250000X1.050000X1.050000X-1.050000X1.050000X-1.050000X-1.050000X1.050000X-1.050000X0*%
%TD*%
%TA.AperFunction,SMDPad,CuDef*%
%ADD42RoundRect,0.375000X0.375000X-0.625000X0.375000X0.625000X-0.375000X0.625000X-0.375000X-0.625000X0*%
%TD*%
%TA.AperFunction,SMDPad,CuDef*%
%ADD43RoundRect,0.500000X1.400000X-0.500000X1.400000X0.500000X-1.400000X0.500000X-1.400000X-0.500000X0*%
%TD*%
%TA.AperFunction,SMDPad,CuDef*%
%ADD44RoundRect,0.250000X-0.475000X0.250000X-0.475000X-0.250000X0.475000X-0.250000X0.475000X0.250000X0*%
%TD*%
%TA.AperFunction,ComponentPad*%
%ADD45R,2.000000X1.905000*%
%TD*%
%TA.AperFunction,ComponentPad*%
%ADD46O,2.000000X1.905000*%
%TD*%
%TA.AperFunction,ViaPad*%
%ADD47C,0.600000*%
%TD*%
%TA.AperFunction,ViaPad*%
%ADD48C,0.300000*%
%TD*%
%TA.AperFunction,ViaPad*%
%ADD49C,2.000000*%
%TD*%
%TA.AperFunction,Conductor*%
%ADD50C,0.200000*%
%TD*%
%TA.AperFunction,Conductor*%
%ADD51C,0.600000*%
%TD*%
%TA.AperFunction,Conductor*%
%ADD52C,1.000000*%
%TD*%
%TA.AperFunction,Conductor*%
%ADD53C,0.400000*%
%TD*%
%TA.AperFunction,Conductor*%
%ADD54C,0.500000*%
%TD*%
%TA.AperFunction,Conductor*%
%ADD55C,2.000000*%
%TD*%
%TA.AperFunction,Conductor*%
%ADD56C,0.700000*%
%TD*%
G04 APERTURE END LIST*
D10*
%TO.P,J3,S1,SHIELD*%
%TO.N,GND*%
X27470000Y-73955000D03*
D11*
X30850000Y-73955000D03*
D10*
X27470000Y-65305000D03*
D11*
X30850000Y-65305000D03*
D12*
%TO.P,J3,B12,GND*%
X30480000Y-66655000D03*
%TO.P,J3,B9,VBUS*%
%TO.N,Net-(F1-Pad1)*%
X30480000Y-67505000D03*
%TO.P,J3,B8,SBU2*%
%TO.N,unconnected-(J3-SBU2-PadB8)*%
X30480000Y-68355000D03*
%TO.P,J3,B7,D-*%
%TO.N,/D-*%
X30480000Y-69205000D03*
%TO.P,J3,B6,D+*%
%TO.N,/D+*%
X30480000Y-70055000D03*
%TO.P,J3,B5,CC2*%
%TO.N,/CC2*%
X30480000Y-70905000D03*
%TO.P,J3,B4,VBUS*%
%TO.N,Net-(F1-Pad1)*%
X30480000Y-71755000D03*
%TO.P,J3,B1,GND*%
%TO.N,GND*%
X30480000Y-72605000D03*
%TO.P,J3,A12,GND*%
X31830000Y-72605000D03*
%TO.P,J3,A9,VBUS*%
%TO.N,Net-(F1-Pad1)*%
X31830000Y-71755000D03*
%TO.P,J3,A8,SBU1*%
%TO.N,unconnected-(J3-SBU1-PadA8)*%
X31830000Y-70905000D03*
%TO.P,J3,A7,D-*%
%TO.N,/D-*%
X31830000Y-70055000D03*
%TO.P,J3,A6,D+*%
%TO.N,/D+*%
X31830000Y-69205000D03*
%TO.P,J3,A5,CC1*%
%TO.N,/CC1*%
X31830000Y-68355000D03*
%TO.P,J3,A4,VBUS*%
%TO.N,Net-(F1-Pad1)*%
X31830000Y-67505000D03*
%TO.P,J3,A1,GND*%
%TO.N,GND*%
X31830000Y-66655000D03*
%TD*%
D13*
%TO.P,U2,41,GND*%
%TO.N,GND*%
X44540500Y-47790000D03*
X44540500Y-46390000D03*
X43840500Y-48490000D03*
X43840500Y-47090000D03*
X43840500Y-45690000D03*
X43140500Y-47790000D03*
D14*
X43140500Y-47090000D03*
D13*
X43140500Y-46390000D03*
X42440500Y-48490000D03*
X42440500Y-47090000D03*
X42440500Y-45690000D03*
X41740500Y-47790000D03*
X41740500Y-46390000D03*
D15*
%TO.P,U2,40,GND*%
X53390500Y-39370000D03*
%TO.P,U2,39,IO1*%
%TO.N,/LTV_OUT*%
X53390500Y-40640000D03*
%TO.P,U2,38,IO2*%
%TO.N,/MOC*%
X53390500Y-41910000D03*
%TO.P,U2,37,TXD0*%
%TO.N,/TX*%
X53390500Y-43180000D03*
%TO.P,U2,36,RXD0*%
%TO.N,/RX*%
X53390500Y-44450000D03*
%TO.P,U2,35,IO42*%
%TO.N,unconnected-(U2-IO42-Pad35)*%
X53390500Y-45720000D03*
%TO.P,U2,34,IO41*%
%TO.N,unconnected-(U2-IO41-Pad34)*%
X53390500Y-46990000D03*
%TO.P,U2,33,IO40*%
%TO.N,unconnected-(U2-IO40-Pad33)*%
X53390500Y-48260000D03*
%TO.P,U2,32,IO39*%
%TO.N,unconnected-(U2-IO39-Pad32)*%
X53390500Y-49530000D03*
%TO.P,U2,31,IO38*%
%TO.N,unconnected-(U2-IO38-Pad31)*%
X53390500Y-50800000D03*
%TO.P,U2,30,IO37*%
%TO.N,unconnected-(U2-IO37-Pad30)*%
X53390500Y-52070000D03*
%TO.P,U2,29,IO36*%
%TO.N,unconnected-(U2-IO36-Pad29)*%
X53390500Y-53340000D03*
%TO.P,U2,28,IO35*%
%TO.N,unconnected-(U2-IO35-Pad28)*%
X53390500Y-54610000D03*
%TO.P,U2,27,IO0*%
%TO.N,/ESP_IO0*%
X53390500Y-55880000D03*
D16*
%TO.P,U2,26,IO45*%
%TO.N,unconnected-(U2-IO45-Pad26)*%
X51625500Y-57130000D03*
%TO.P,U2,25,IO48*%
%TO.N,unconnected-(U2-IO48-Pad25)*%
X50355500Y-57130000D03*
%TO.P,U2,24,IO47*%
%TO.N,unconnected-(U2-IO47-Pad24)*%
X49085500Y-57130000D03*
%TO.P,U2,23,IO21*%
%TO.N,unconnected-(U2-IO21-Pad23)*%
X47815500Y-57130000D03*
%TO.P,U2,22,IO14*%
%TO.N,unconnected-(U2-IO14-Pad22)*%
X46545500Y-57130000D03*
%TO.P,U2,21,IO13*%
%TO.N,unconnected-(U2-IO13-Pad21)*%
X45275500Y-57130000D03*
%TO.P,U2,20,IO12*%
%TO.N,unconnected-(U2-IO12-Pad20)*%
X44005500Y-57130000D03*
%TO.P,U2,19,IO11*%
%TO.N,unconnected-(U2-IO11-Pad19)*%
X42735500Y-57130000D03*
%TO.P,U2,18,IO10*%
%TO.N,unconnected-(U2-IO10-Pad18)*%
X41465500Y-57130000D03*
%TO.P,U2,17,IO9*%
%TO.N,unconnected-(U2-IO9-Pad17)*%
X40195500Y-57130000D03*
%TO.P,U2,16,IO46*%
%TO.N,unconnected-(U2-IO46-Pad16)*%
X38925500Y-57130000D03*
%TO.P,U2,15,IO3*%
%TO.N,Net-(U2-IO3)*%
X37655500Y-57130000D03*
D15*
%TO.P,U2,14,USB_D+*%
%TO.N,/ESD_D+*%
X35890500Y-55880000D03*
%TO.P,U2,13,USB_D-*%
%TO.N,/ESP_D-*%
X35890500Y-54610000D03*
%TO.P,U2,12,IO8*%
%TO.N,unconnected-(U2-IO8-Pad12)*%
X35890500Y-53340000D03*
%TO.P,U2,11,IO18*%
%TO.N,unconnected-(U2-IO18-Pad11)*%
X35890500Y-52070000D03*
%TO.P,U2,10,IO17*%
%TO.N,unconnected-(U2-IO17-Pad10)*%
X35890500Y-50800000D03*
%TO.P,U2,9,IO16*%
%TO.N,unconnected-(U2-IO16-Pad9)*%
X35890500Y-49530000D03*
%TO.P,U2,8,IO15*%
%TO.N,unconnected-(U2-IO15-Pad8)*%
X35890500Y-48260000D03*
%TO.P,U2,7,IO7*%
%TO.N,unconnected-(U2-IO7-Pad7)*%
X35890500Y-46990000D03*
%TO.P,U2,6,IO6*%
%TO.N,unconnected-(U2-IO6-Pad6)*%
X35890500Y-45720000D03*
%TO.P,U2,5,IO5*%
%TO.N,unconnected-(U2-IO5-Pad5)*%
X35890500Y-44450000D03*
%TO.P,U2,4,IO4*%
%TO.N,unconnected-(U2-IO4-Pad4)*%
X35890500Y-43180000D03*
%TO.P,U2,3,EN*%
%TO.N,/ESP_EN*%
X35890500Y-41910000D03*
%TO.P,U2,2,3V3*%
%TO.N,3.3V*%
X35890500Y-40640000D03*
%TO.P,U2,1,GND*%
%TO.N,GND*%
X35890500Y-39370000D03*
%TD*%
D17*
%TO.P,U1,1*%
%TO.N,Net-(R1-Pad1)*%
X72390000Y-52705000D03*
D18*
%TO.P,U1,2*%
%TO.N,Net-(R2-Pad1)*%
X72390000Y-50165000D03*
%TO.P,U1,3*%
%TO.N,GND*%
X64770000Y-50165000D03*
%TO.P,U1,4*%
%TO.N,/LTV_OUT*%
X64770000Y-52705000D03*
%TD*%
D19*
%TO.P,R7,1*%
%TO.N,3.3V*%
X37655500Y-60515000D03*
%TO.P,R7,2*%
%TO.N,Net-(U2-IO3)*%
X37655500Y-58865000D03*
%TD*%
D18*
%TO.P,R3,1*%
%TO.N,Net-(R3-Pad1)*%
X80010000Y-53975000D03*
%TO.P,R3,2*%
%TO.N,/AC_N*%
X80010000Y-64135000D03*
%TD*%
D20*
%TO.P,D3,1,K*%
%TO.N,5V*%
X47815500Y-80010000D03*
D21*
%TO.P,D3,2,A*%
%TO.N,Net-(C2-+)*%
X37655500Y-80010000D03*
%TD*%
D22*
%TO.P,C7,1*%
%TO.N,3.3V*%
X31965500Y-40920000D03*
%TO.P,C7,2*%
%TO.N,GND*%
X31965500Y-39370000D03*
%TD*%
D23*
%TO.P,J4,1,+12V*%
%TO.N,/ESP_EN*%
X28765500Y-55880000D03*
D24*
%TO.P,J4,2,+12V*%
%TO.N,3.3V*%
X31305500Y-55880000D03*
%TO.P,J4,3,GND*%
%TO.N,/TX*%
X28765500Y-58420000D03*
%TO.P,J4,4,GND*%
%TO.N,GND*%
X31305500Y-58420000D03*
%TO.P,J4,5,GND*%
%TO.N,/RX*%
X28765500Y-60960000D03*
%TO.P,J4,6,GND*%
%TO.N,/ESP_IO0*%
X31305500Y-60960000D03*
%TD*%
D25*
%TO.P,J2,1,Pin_1*%
%TO.N,/AC_L*%
X57825000Y-106217500D03*
D26*
%TO.P,J2,2,Pin_2*%
%TO.N,Net-(J2-Pin_2)*%
X62825000Y-106217500D03*
%TD*%
D19*
%TO.P,R9,1*%
%TO.N,Net-(R9-Pad1)*%
X69405500Y-41655000D03*
%TO.P,R9,2*%
%TO.N,3.3V*%
X69405500Y-40005000D03*
%TD*%
D18*
%TO.P,R1,1*%
%TO.N,Net-(R1-Pad1)*%
X75565000Y-53975000D03*
%TO.P,R1,2*%
%TO.N,/AC_N*%
X75565000Y-64135000D03*
%TD*%
D27*
%TO.P,C10,1*%
%TO.N,5V*%
X52895500Y-80365000D03*
%TO.P,C10,2*%
%TO.N,GND*%
X52895500Y-81915000D03*
%TD*%
D28*
%TO.P,R10,1*%
%TO.N,/MOC*%
X64960500Y-41910000D03*
%TO.P,R10,2*%
%TO.N,Net-(Q2-B)*%
X64960500Y-43560000D03*
%TD*%
D29*
%TO.P,C1,1*%
%TO.N,5V*%
X39280500Y-64135000D03*
%TO.P,C1,2*%
%TO.N,GND*%
X40830500Y-64135000D03*
%TD*%
D28*
%TO.P,R6,1*%
%TO.N,3.3V*%
X33845500Y-45340000D03*
%TO.P,R6,2*%
%TO.N,/ESP_EN*%
X33845500Y-46990000D03*
%TD*%
D30*
%TO.P,PS1,1,AC/N*%
%TO.N,/AC_N*%
X80875000Y-69107500D03*
D31*
%TO.P,PS1,2,AC/L*%
%TO.N,/AC_L*%
X70125000Y-69107500D03*
%TO.P,PS1,3,-Vo*%
%TO.N,GND*%
X70125000Y-107607500D03*
%TO.P,PS1,4,+Vo*%
%TO.N,Net-(C2-+)*%
X78125000Y-107607500D03*
%TD*%
D32*
%TO.P,Q2,1,B*%
%TO.N,Net-(Q2-B)*%
X67405500Y-45090000D03*
%TO.P,Q2,2,E*%
%TO.N,GND*%
X67405500Y-46990000D03*
%TO.P,Q2,3,C*%
%TO.N,Net-(Q2-C)*%
X69405500Y-46040000D03*
%TD*%
D33*
%TO.P,SW1,1,A*%
%TO.N,/ESP_EN*%
X31675500Y-42975000D03*
X31675500Y-52075000D03*
%TO.P,SW1,2,B*%
%TO.N,GND*%
X27175500Y-42975000D03*
X27175500Y-52075000D03*
%TD*%
D34*
%TO.P,C9,1,+*%
%TO.N,GND*%
X60400500Y-75565000D03*
%TO.P,C9,2,-*%
%TO.N,5V*%
X54800500Y-75565000D03*
%TD*%
D35*
%TO.P,C2,1,+*%
%TO.N,Net-(C2-+)*%
X47815500Y-90690000D03*
%TO.P,C2,2,-*%
%TO.N,GND*%
X47815500Y-85090000D03*
%TD*%
D36*
%TO.P,U5,1,I/O1*%
%TO.N,/D+*%
X35248000Y-64542500D03*
%TO.P,U5,2,GND*%
%TO.N,GND*%
X35248000Y-65492500D03*
%TO.P,U5,3,I/O2*%
%TO.N,/D-*%
X35248000Y-66442500D03*
%TO.P,U5,4,I/O2*%
%TO.N,/ESP_D-*%
X37523000Y-66442500D03*
%TO.P,U5,5,VBUS*%
%TO.N,5V*%
X37523000Y-65492500D03*
%TO.P,U5,6,I/O1*%
%TO.N,/ESD_D+*%
X37523000Y-64542500D03*
%TD*%
D37*
%TO.P,U3,1*%
%TO.N,Net-(R9-Pad1)*%
X64770000Y-56515000D03*
D18*
%TO.P,U3,2*%
%TO.N,Net-(Q2-C)*%
X64770000Y-59055000D03*
%TO.P,U3,3,NC*%
%TO.N,unconnected-(U3-NC-Pad3)*%
X64770000Y-61595000D03*
%TO.P,U3,4*%
%TO.N,Net-(Q1-G)*%
X72390000Y-61595000D03*
%TO.P,U3,5,NC*%
%TO.N,unconnected-(U3-NC-Pad5)*%
X72390000Y-59055000D03*
%TO.P,U3,6*%
%TO.N,Net-(R3-Pad1)*%
X72390000Y-56515000D03*
%TD*%
D38*
%TO.P,F1,1*%
%TO.N,Net-(F1-Pad1)*%
X35115500Y-72015000D03*
%TO.P,F1,2*%
%TO.N,Net-(D1-A)*%
X35115500Y-69215000D03*
%TD*%
D18*
%TO.P,R12,1*%
%TO.N,Net-(J2-Pin_2)*%
X83820000Y-53975000D03*
%TO.P,R12,2*%
%TO.N,Net-(Q1-G)*%
X83820000Y-64135000D03*
%TD*%
D39*
%TO.P,C4,1*%
%TO.N,5V*%
X50995500Y-71755000D03*
%TO.P,C4,2*%
%TO.N,GND*%
X52895500Y-71755000D03*
%TD*%
D40*
%TO.P,R4,1*%
%TO.N,/CC1*%
X34225500Y-79375000D03*
%TO.P,R4,2*%
%TO.N,GND*%
X32575500Y-79375000D03*
%TD*%
D33*
%TO.P,SW2,1,A*%
%TO.N,GND*%
X61785500Y-41275000D03*
X61785500Y-50375000D03*
%TO.P,SW2,2,B*%
%TO.N,/ESP_IO0*%
X57285500Y-41275000D03*
X57285500Y-50375000D03*
%TD*%
D41*
%TO.P,J1,1,Pin_1*%
%TO.N,/AC_N*%
X82470000Y-43180000D03*
D26*
%TO.P,J1,2,Pin_2*%
%TO.N,/AC_L*%
X77470000Y-43180000D03*
%TD*%
D18*
%TO.P,R2,1*%
%TO.N,Net-(R2-Pad1)*%
X75565000Y-51435000D03*
%TO.P,R2,2*%
%TO.N,/AC_L*%
X85725000Y-51435000D03*
%TD*%
D20*
%TO.P,D1,1,K*%
%TO.N,5V*%
X47815500Y-75565000D03*
D21*
%TO.P,D1,2,A*%
%TO.N,Net-(D1-A)*%
X37655500Y-75565000D03*
%TD*%
D42*
%TO.P,U6,1,GND*%
%TO.N,GND*%
X43610500Y-71730000D03*
%TO.P,U6,2,VO*%
%TO.N,3.3V*%
X45910500Y-71730000D03*
D43*
X45910500Y-65430000D03*
D42*
%TO.P,U6,3,VI*%
%TO.N,5V*%
X48210500Y-71730000D03*
%TD*%
D44*
%TO.P,C5,1*%
%TO.N,3.3V*%
X52260500Y-65410000D03*
%TO.P,C5,2*%
%TO.N,GND*%
X52260500Y-67310000D03*
%TD*%
D19*
%TO.P,R11,1*%
%TO.N,GND*%
X64960500Y-47370000D03*
%TO.P,R11,2*%
%TO.N,Net-(Q2-B)*%
X64960500Y-45720000D03*
%TD*%
D40*
%TO.P,R8,1*%
%TO.N,3.3V*%
X67245500Y-40005000D03*
%TO.P,R8,2*%
%TO.N,/LTV_OUT*%
X65595500Y-40005000D03*
%TD*%
D22*
%TO.P,C8,1*%
%TO.N,3.3V*%
X30060500Y-40920000D03*
%TO.P,C8,2*%
%TO.N,GND*%
X30060500Y-39370000D03*
%TD*%
%TO.P,C6,1*%
%TO.N,/ESP_EN*%
X33845500Y-50445000D03*
%TO.P,C6,2*%
%TO.N,GND*%
X33845500Y-48895000D03*
%TD*%
D45*
%TO.P,Q1,1,A1*%
%TO.N,Net-(J2-Pin_2)*%
X90170000Y-55245000D03*
D46*
%TO.P,Q1,2,A2*%
%TO.N,/AC_N*%
X90170000Y-57785000D03*
%TO.P,Q1,3,G*%
%TO.N,Net-(Q1-G)*%
X90170000Y-60325000D03*
%TD*%
D40*
%TO.P,R5,1*%
%TO.N,/CC2*%
X34290000Y-76835000D03*
%TO.P,R5,2*%
%TO.N,GND*%
X32640000Y-76835000D03*
%TD*%
D27*
%TO.P,C3,1*%
%TO.N,GND*%
X40830500Y-84315000D03*
%TO.P,C3,2*%
%TO.N,Net-(C2-+)*%
X40830500Y-85865000D03*
%TD*%
D47*
%TO.N,GND*%
X33900000Y-65475000D03*
X63628241Y-69111831D03*
X44937200Y-95077600D03*
X33416800Y-83565600D03*
X51917600Y-104394000D03*
X41357456Y-92517985D03*
X28935200Y-98836800D03*
X38028400Y-94468000D03*
X27876800Y-91895600D03*
X31840000Y-94630000D03*
X64190400Y-88524400D03*
D48*
X34284500Y-58420000D03*
D47*
X62890400Y-88544400D03*
X56997600Y-98552000D03*
X57556400Y-68986400D03*
X40150000Y-96870000D03*
X39130000Y-109800000D03*
X42657456Y-92497985D03*
X53065200Y-107015600D03*
X43080000Y-101100000D03*
X27506800Y-96455600D03*
X58297600Y-98532000D03*
X36750000Y-101290000D03*
X51917600Y-100990400D03*
X67310000Y-61264800D03*
X31627600Y-85628800D03*
X54406800Y-88544400D03*
X51765200Y-107035600D03*
X30327600Y-85648800D03*
X51968400Y-95961200D03*
X36728400Y-94488000D03*
X53268400Y-95941200D03*
X27635200Y-98856800D03*
X33304000Y-98836800D03*
X67310000Y-57150000D03*
X33366800Y-96495600D03*
X62941200Y-93624400D03*
X30116800Y-96495600D03*
X33140000Y-94610000D03*
X37220000Y-96960000D03*
X51917600Y-93929200D03*
X64800000Y-98278000D03*
X53217600Y-98684400D03*
X42380000Y-109800000D03*
X64241200Y-93604400D03*
X30946800Y-87935600D03*
X41178000Y-107472800D03*
X33304000Y-101681600D03*
X33556800Y-91755600D03*
X36890000Y-105200000D03*
X28986000Y-79482000D03*
X29138400Y-101681600D03*
X36728400Y-90982800D03*
X53217600Y-104374000D03*
X55706800Y-88524400D03*
X39878000Y-107492800D03*
X28206800Y-83655600D03*
X34066800Y-87795600D03*
X27736800Y-87985600D03*
X39960000Y-101240000D03*
X63500000Y-98298000D03*
X42570000Y-105060000D03*
X40240000Y-104920000D03*
X27838400Y-101701600D03*
X42430000Y-96870000D03*
X32004000Y-101701600D03*
X51917600Y-98704400D03*
X36520000Y-109760000D03*
X31136800Y-83565600D03*
X32004000Y-98856800D03*
X31226800Y-91615600D03*
X27686000Y-79502000D03*
X53217600Y-100970400D03*
X62328241Y-69131831D03*
X58856400Y-68966400D03*
X38028400Y-90962800D03*
X43637200Y-95097600D03*
X53217600Y-93909200D03*
D48*
%TO.N,/ESP_EN*%
X28905200Y-54102000D03*
X31675500Y-53655800D03*
D47*
%TO.N,3.3V*%
X45910500Y-61122000D03*
X45910500Y-63338000D03*
D49*
%TO.N,Net-(J2-Pin_2)*%
X77470000Y-73660000D03*
X71882000Y-79502000D03*
D48*
%TO.N,/ESD_D+*%
X35242500Y-58928000D03*
X36766500Y-63188000D03*
%TO.N,/ESP_D-*%
X34734500Y-58928000D03*
X36196250Y-63188000D03*
%TD*%
D50*
%TO.N,/CC1*%
X31830000Y-68355000D02*
X32324974Y-68355000D01*
X29789340Y-64555000D02*
X28702000Y-65642340D01*
X28702000Y-65642340D02*
X28702000Y-74930000D01*
X32324974Y-68355000D02*
X32480000Y-68199974D01*
X31910660Y-64555000D02*
X29789340Y-64555000D01*
X33782000Y-78232000D02*
X34225500Y-78675500D01*
X32480000Y-68199974D02*
X32480000Y-65124340D01*
X32480000Y-65124340D02*
X31910660Y-64555000D01*
X28702000Y-74930000D02*
X32004000Y-78232000D01*
X32004000Y-78232000D02*
X33782000Y-78232000D01*
X34225500Y-78675500D02*
X34225500Y-79375000D01*
%TO.N,/CC2*%
X34290000Y-76835000D02*
X34290000Y-76200000D01*
X34290000Y-76200000D02*
X33782000Y-75692000D01*
X29985026Y-70905000D02*
X30480000Y-70905000D01*
X33782000Y-75692000D02*
X30226000Y-75692000D01*
X30226000Y-75692000D02*
X29210000Y-74676000D01*
X29210000Y-74676000D02*
X29210000Y-71680026D01*
X29210000Y-71680026D02*
X29985026Y-70905000D01*
%TO.N,/D-*%
X33528000Y-68897000D02*
X32370000Y-70055000D01*
X32370000Y-70055000D02*
X31830000Y-70055000D01*
%TO.N,/D+*%
X33020000Y-68761000D02*
X32576000Y-69205000D01*
X32576000Y-69205000D02*
X31830000Y-69205000D01*
D51*
%TO.N,Net-(F1-Pad1)*%
X31830000Y-71755000D02*
X34855500Y-71755000D01*
D50*
X34855500Y-71755000D02*
X35115500Y-72015000D01*
%TO.N,/ESP_D-*%
X36196250Y-63188000D02*
X36196250Y-63279750D01*
X36196250Y-63279750D02*
X36322000Y-63405500D01*
X36322000Y-63405500D02*
X36322000Y-66405500D01*
X36322000Y-66405500D02*
X36359000Y-66442500D01*
X36359000Y-66442500D02*
X37523000Y-66442500D01*
%TO.N,/D+*%
X35248000Y-64542500D02*
X33501500Y-64542500D01*
X33501500Y-64542500D02*
X33020000Y-65024000D01*
X33020000Y-65024000D02*
X33020000Y-68761000D01*
%TO.N,/D-*%
X35248000Y-66442500D02*
X33887500Y-66442500D01*
X33887500Y-66442500D02*
X33528000Y-66802000D01*
X33528000Y-66802000D02*
X33528000Y-68897000D01*
%TO.N,Net-(F1-Pad1)*%
X34765500Y-71665000D02*
X35115500Y-72015000D01*
D52*
%TO.N,Net-(D1-A)*%
X37645500Y-75555000D02*
X37655500Y-75565000D01*
X37645500Y-69650000D02*
X37645500Y-75555000D01*
D50*
X37645500Y-69650000D02*
X37645500Y-69215000D01*
X37645500Y-69215000D02*
X37655500Y-69205000D01*
D52*
X35115500Y-69215000D02*
X37210500Y-69215000D01*
X37210500Y-69215000D02*
X37645500Y-69650000D01*
D53*
%TO.N,/ESP_EN*%
X33845500Y-50445000D02*
X33845500Y-51498500D01*
X33845500Y-51498500D02*
X33269000Y-52075000D01*
X33269000Y-52075000D02*
X31675500Y-52075000D01*
D52*
%TO.N,Net-(C2-+)*%
X40690500Y-85865000D02*
X38113000Y-85865000D01*
X38113000Y-85865000D02*
X37655500Y-85407500D01*
X37655500Y-85407500D02*
X37655500Y-79375000D01*
%TO.N,5V*%
X39280500Y-65479000D02*
X39280500Y-64135000D01*
X47434500Y-69342000D02*
X42418000Y-69342000D01*
D54*
X39280500Y-64135000D02*
X39280500Y-64034000D01*
D52*
X50995500Y-71755000D02*
X50995500Y-75470000D01*
D50*
X48235500Y-71755000D02*
X48210500Y-71730000D01*
D54*
X52895500Y-75580000D02*
X52880500Y-75565000D01*
D52*
X39267000Y-66191000D02*
X39267000Y-65492500D01*
X52895500Y-80365000D02*
X52895500Y-75580000D01*
X50995500Y-71755000D02*
X48235500Y-71755000D01*
D54*
X39267000Y-65492500D02*
X39280500Y-65479000D01*
D55*
X47815500Y-80010000D02*
X47815500Y-75565000D01*
D54*
X54800500Y-76200000D02*
X54800500Y-75565000D01*
D52*
X42418000Y-69342000D02*
X39267000Y-66191000D01*
D50*
X50995500Y-75470000D02*
X51090500Y-75565000D01*
D55*
X47815500Y-75565000D02*
X51090500Y-75565000D01*
D56*
X39267000Y-65492500D02*
X37523000Y-65492500D01*
D52*
X48196500Y-70104000D02*
X47434500Y-69342000D01*
X48196500Y-71744000D02*
X48196500Y-70104000D01*
D55*
X51090500Y-75565000D02*
X54800500Y-75565000D01*
D54*
X48210500Y-71730000D02*
X48196500Y-71744000D01*
D50*
%TO.N,GND*%
X34284500Y-58420000D02*
X34284500Y-58345500D01*
D55*
X70125000Y-105939000D02*
X64262000Y-100076000D01*
D50*
X34290000Y-58340000D02*
X34290000Y-55689500D01*
X33845500Y-48895000D02*
X34607500Y-48895000D01*
D55*
X70125000Y-107675000D02*
X70104000Y-107696000D01*
D50*
X34290000Y-55689500D02*
X33845500Y-55245000D01*
X34734500Y-52324000D02*
X34226500Y-52832000D01*
D55*
X70125000Y-107607500D02*
X70125000Y-105939000D01*
D50*
X33845500Y-55245000D02*
X33845500Y-52910000D01*
D55*
X70104000Y-107628500D02*
X70125000Y-107607500D01*
D50*
X34226500Y-52832000D02*
X33923500Y-52832000D01*
D55*
X70125000Y-107607500D02*
X70125000Y-107675000D01*
D50*
X34607500Y-48895000D02*
X34734500Y-49022000D01*
X34284500Y-58345500D02*
X34290000Y-58340000D01*
D55*
X70104000Y-107696000D02*
X70104000Y-107628500D01*
D50*
X33923500Y-52832000D02*
X33845500Y-52910000D01*
X34734500Y-49022000D02*
X34734500Y-52324000D01*
D53*
%TO.N,/ESP_EN*%
X31920500Y-46970000D02*
X31940500Y-46990000D01*
D50*
X28905200Y-54102000D02*
X28702000Y-54305200D01*
X31675500Y-53655800D02*
X31675500Y-52075000D01*
X28702000Y-54305200D02*
X28702000Y-55816500D01*
D53*
X32665000Y-50445000D02*
X33845500Y-50445000D01*
D50*
X34226500Y-46990000D02*
X33845500Y-46990000D01*
D53*
X31675500Y-46970000D02*
X31920500Y-46970000D01*
D50*
X34620500Y-46596000D02*
X34226500Y-46990000D01*
X34940500Y-41910000D02*
X34620500Y-42230000D01*
D53*
X31675500Y-49455500D02*
X32665000Y-50445000D01*
X31940500Y-46990000D02*
X33845500Y-46990000D01*
X31675500Y-42975000D02*
X31675500Y-46970000D01*
X31675500Y-46970000D02*
X31675500Y-49455500D01*
D50*
X35890500Y-41910000D02*
X34940500Y-41910000D01*
X34620500Y-42230000D02*
X34620500Y-46596000D01*
X28702000Y-55816500D02*
X28765500Y-55880000D01*
%TO.N,/ESP_IO0*%
X57285500Y-50375000D02*
X57285500Y-54157000D01*
X53276500Y-55880000D02*
X53276500Y-60452000D01*
X32448500Y-60960000D02*
X31305500Y-60960000D01*
X53276500Y-60452000D02*
X52006500Y-61722000D01*
X57285500Y-54157000D02*
X55562500Y-55880000D01*
X55562500Y-55880000D02*
X53276500Y-55880000D01*
X33210500Y-61722000D02*
X32448500Y-60960000D01*
X52006500Y-61722000D02*
X33210500Y-61722000D01*
D52*
%TO.N,Net-(C2-+)*%
X47803500Y-90678000D02*
X44132500Y-90678000D01*
D55*
X78125000Y-107607500D02*
X74837500Y-110895000D01*
D50*
X40690500Y-85865000D02*
X40830500Y-85865000D01*
D55*
X47815500Y-108267500D02*
X47815500Y-90690000D01*
X50443000Y-110895000D02*
X47815500Y-108267500D01*
D54*
X47815500Y-90690000D02*
X47803500Y-90678000D01*
D55*
X74837500Y-110895000D02*
X50443000Y-110895000D01*
D52*
X44132500Y-90678000D02*
X40830500Y-87376000D01*
X40830500Y-87376000D02*
X40830500Y-85979000D01*
D50*
%TO.N,Net-(Q2-B)*%
X64960500Y-43560000D02*
X64960500Y-45720000D01*
X66775500Y-45720000D02*
X67405500Y-45090000D01*
X64960500Y-45720000D02*
X66775500Y-45720000D01*
%TO.N,Net-(Q2-C)*%
X63246000Y-55372000D02*
X63246000Y-58420000D01*
X63881000Y-59055000D02*
X64770000Y-59055000D01*
X63246000Y-58420000D02*
X63881000Y-59055000D01*
X65786000Y-54610000D02*
X64008000Y-54610000D01*
X69405500Y-50990500D02*
X65786000Y-54610000D01*
X69405500Y-46040000D02*
X69405500Y-50990500D01*
X64008000Y-54610000D02*
X63246000Y-55372000D01*
D56*
%TO.N,3.3V*%
X33189000Y-41571000D02*
X32538000Y-40920000D01*
D50*
X67245500Y-40005000D02*
X69405500Y-40005000D01*
D56*
X30060500Y-40920000D02*
X31965500Y-40920000D01*
X33845500Y-42227500D02*
X33189000Y-41571000D01*
D52*
X45910500Y-65430000D02*
X52240500Y-65430000D01*
D54*
X34734500Y-60452000D02*
X33464500Y-59182000D01*
D56*
X30060500Y-40920000D02*
X30086500Y-40894000D01*
X32538000Y-40920000D02*
X31965500Y-40920000D01*
X29680500Y-40920000D02*
X30060500Y-40920000D01*
D50*
X35790500Y-40540000D02*
X35890500Y-40640000D01*
D56*
X34120000Y-40640000D02*
X33189000Y-41571000D01*
X33845500Y-45340000D02*
X33845500Y-42227500D01*
D50*
X38544500Y-60452000D02*
X39046500Y-60452000D01*
D54*
X45910500Y-61122000D02*
X45240500Y-60452000D01*
D56*
X29464000Y-53086000D02*
X29464000Y-41136500D01*
D54*
X64892000Y-65410000D02*
X70844500Y-59457500D01*
X45240500Y-60452000D02*
X38544500Y-60452000D01*
D56*
X31305500Y-55880000D02*
X31305500Y-54927500D01*
D54*
X38544500Y-60452000D02*
X34734500Y-60452000D01*
X70844500Y-59457500D02*
X70844500Y-41444000D01*
D56*
X35890500Y-40640000D02*
X34120000Y-40640000D01*
D54*
X33464500Y-56896000D02*
X32448500Y-55880000D01*
X45910500Y-63338000D02*
X45910500Y-65430000D01*
X52260500Y-65410000D02*
X64892000Y-65410000D01*
X32448500Y-55880000D02*
X31305500Y-55880000D01*
D56*
X29464000Y-41136500D02*
X29680500Y-40920000D01*
D54*
X52240500Y-65430000D02*
X52260500Y-65410000D01*
X33464500Y-59182000D02*
X33464500Y-56896000D01*
D56*
X31965500Y-40920000D02*
X31991500Y-40894000D01*
X31305500Y-54927500D02*
X29464000Y-53086000D01*
D54*
X70844500Y-41444000D02*
X69405500Y-40005000D01*
D50*
%TO.N,/LTV_OUT*%
X68262500Y-43624500D02*
X68262500Y-51442500D01*
X65595500Y-40005000D02*
X65595500Y-40957500D01*
X53390500Y-40640000D02*
X54506878Y-40640000D01*
X62166500Y-43180000D02*
X65341500Y-40005000D01*
X68262500Y-51442500D02*
X67000000Y-52705000D01*
X65341500Y-40005000D02*
X65595500Y-40005000D01*
X65595500Y-40957500D02*
X68262500Y-43624500D01*
X54506878Y-40640000D02*
X57046878Y-43180000D01*
X67000000Y-52705000D02*
X64770000Y-52705000D01*
X57046878Y-43180000D02*
X62166500Y-43180000D01*
D53*
%TO.N,Net-(U2-IO3)*%
X37655500Y-57130000D02*
X37655500Y-58865000D01*
X37655500Y-57130000D02*
X37465000Y-57320500D01*
D50*
%TO.N,/MOC*%
X62166500Y-43942000D02*
X64198500Y-41910000D01*
X56324500Y-43942000D02*
X62166500Y-43942000D01*
X64198500Y-41910000D02*
X64960500Y-41910000D01*
X53390500Y-41910000D02*
X54292500Y-41910000D01*
X54292500Y-41910000D02*
X56324500Y-43942000D01*
D52*
%TO.N,Net-(J2-Pin_2)*%
X71882000Y-79502000D02*
X71882000Y-79248000D01*
X71882000Y-79248000D02*
X77470000Y-73660000D01*
D50*
%TO.N,Net-(R9-Pad1)*%
X70155500Y-42405000D02*
X70155500Y-51129500D01*
X70155500Y-51129500D02*
X64770000Y-56515000D01*
X69405500Y-41655000D02*
X70155500Y-42405000D01*
%TO.N,/ESD_D+*%
X35750500Y-56388000D02*
X35242500Y-56896000D01*
X35750500Y-56020000D02*
X35750500Y-56388000D01*
X37110500Y-64542500D02*
X37523000Y-64542500D01*
X36766500Y-64198500D02*
X37110500Y-64542500D01*
X35890500Y-55880000D02*
X35750500Y-56020000D01*
X35242500Y-56896000D02*
X35242500Y-58928000D01*
X36766500Y-63188000D02*
X36766500Y-64198500D01*
%TO.N,/TX*%
X27368500Y-61976000D02*
X28130500Y-62738000D01*
X59944000Y-48783500D02*
X54340500Y-43180000D01*
X54340500Y-43180000D02*
X53390500Y-43180000D01*
X27368500Y-59817000D02*
X27368500Y-61976000D01*
X28765500Y-58420000D02*
X27368500Y-59817000D01*
X53086000Y-62738000D02*
X59944000Y-55880000D01*
X28130500Y-62738000D02*
X53086000Y-62738000D01*
X59944000Y-55880000D02*
X59944000Y-48783500D01*
%TO.N,/RX*%
X59118500Y-55689500D02*
X59118500Y-49212500D01*
X59118500Y-49212500D02*
X54356000Y-44450000D01*
X28765500Y-60960000D02*
X28765500Y-61722000D01*
X52578000Y-62230000D02*
X59118500Y-55689500D01*
X29273500Y-62230000D02*
X52578000Y-62230000D01*
X28765500Y-61722000D02*
X29273500Y-62230000D01*
X54356000Y-44450000D02*
X53390500Y-44450000D01*
%TO.N,/ESP_D-*%
X34988500Y-54610000D02*
X34734500Y-54864000D01*
X35890500Y-54610000D02*
X34988500Y-54610000D01*
X34734500Y-54864000D02*
X34734500Y-58928000D01*
%TD*%
%TA.AperFunction,Conductor*%
%TO.N,GND*%
G36*
X71336418Y-38750685D02*
G01*
X71382173Y-38803489D01*
X71393376Y-38855619D01*
X71392100Y-39110913D01*
X71384535Y-40623928D01*
X71364516Y-40690868D01*
X71311484Y-40736359D01*
X71242276Y-40745956D01*
X71178867Y-40716614D01*
X71172856Y-40710989D01*
X70830078Y-40368211D01*
X70417319Y-39955451D01*
X70383834Y-39894128D01*
X70381000Y-39867770D01*
X70381000Y-39748386D01*
X70379784Y-39735000D01*
X70374586Y-39677804D01*
X70323978Y-39515394D01*
X70235972Y-39369815D01*
X70235970Y-39369813D01*
X70235969Y-39369811D01*
X70115688Y-39249530D01*
X69970106Y-39161522D01*
X69807696Y-39110914D01*
X69807694Y-39110913D01*
X69807692Y-39110913D01*
X69758278Y-39106423D01*
X69737116Y-39104500D01*
X69073884Y-39104500D01*
X69054645Y-39106248D01*
X69003307Y-39110913D01*
X68840893Y-39161522D01*
X68695311Y-39249530D01*
X68695310Y-39249531D01*
X68576661Y-39368181D01*
X68515338Y-39401666D01*
X68488980Y-39404500D01*
X68137215Y-39404500D01*
X68070176Y-39384815D01*
X68031098Y-39344650D01*
X68000972Y-39294815D01*
X68000970Y-39294813D01*
X68000969Y-39294811D01*
X67880688Y-39174530D01*
X67859170Y-39161522D01*
X67735106Y-39086522D01*
X67572696Y-39035914D01*
X67572694Y-39035913D01*
X67572692Y-39035913D01*
X67523278Y-39031423D01*
X67502116Y-39029500D01*
X66988884Y-39029500D01*
X66969645Y-39031248D01*
X66918307Y-39035913D01*
X66755893Y-39086522D01*
X66610311Y-39174530D01*
X66610310Y-39174531D01*
X66508181Y-39276661D01*
X66446858Y-39310146D01*
X66377166Y-39305162D01*
X66332819Y-39276661D01*
X66230688Y-39174530D01*
X66209170Y-39161522D01*
X66085106Y-39086522D01*
X65922696Y-39035914D01*
X65922694Y-39035913D01*
X65922692Y-39035913D01*
X65873278Y-39031423D01*
X65852116Y-39029500D01*
X65338884Y-39029500D01*
X65319645Y-39031248D01*
X65268307Y-39035913D01*
X65105893Y-39086522D01*
X64960311Y-39174530D01*
X64840030Y-39294811D01*
X64752022Y-39440393D01*
X64701413Y-39602807D01*
X64695000Y-39673386D01*
X64695000Y-39750903D01*
X64675315Y-39817942D01*
X64658681Y-39838584D01*
X61954084Y-42543181D01*
X61892761Y-42576666D01*
X61866403Y-42579500D01*
X58528277Y-42579500D01*
X58461238Y-42559815D01*
X58415483Y-42507011D01*
X58405539Y-42437853D01*
X58418698Y-42401552D01*
X58417260Y-42400882D01*
X58420308Y-42394343D01*
X58420314Y-42394334D01*
X58475499Y-42227797D01*
X58486000Y-42125009D01*
X58485999Y-40424992D01*
X58475499Y-40322203D01*
X58420314Y-40155666D01*
X58328212Y-40006344D01*
X58204156Y-39882288D01*
X58099834Y-39817942D01*
X58054836Y-39790187D01*
X58054831Y-39790185D01*
X58051810Y-39789184D01*
X57888297Y-39735001D01*
X57888295Y-39735000D01*
X57785510Y-39724500D01*
X56785498Y-39724500D01*
X56785480Y-39724501D01*
X56682703Y-39735000D01*
X56682700Y-39735001D01*
X56516168Y-39790185D01*
X56516163Y-39790187D01*
X56366842Y-39882289D01*
X56242789Y-40006342D01*
X56150687Y-40155663D01*
X56150685Y-40155668D01*
X56147163Y-40166297D01*
X56095501Y-40322203D01*
X56095501Y-40322204D01*
X56095500Y-40322204D01*
X56085000Y-40424983D01*
X56085000Y-41069525D01*
X56065315Y-41136564D01*
X56012511Y-41182319D01*
X55943353Y-41192263D01*
X55879797Y-41163238D01*
X55873319Y-41157206D01*
X54994468Y-40278355D01*
X54994466Y-40278352D01*
X54875595Y-40159481D01*
X54875594Y-40159480D01*
X54768826Y-40097838D01*
X54738663Y-40080423D01*
X54677456Y-40064022D01*
X54671221Y-40061607D01*
X54648606Y-40044230D01*
X54624254Y-40029387D01*
X54619819Y-40022111D01*
X54615818Y-40019037D01*
X54612773Y-40010552D01*
X54599827Y-39989311D01*
X54584296Y-39947669D01*
X54584293Y-39947664D01*
X54498047Y-39832455D01*
X54498044Y-39832452D01*
X54382835Y-39746206D01*
X54382828Y-39746202D01*
X54247982Y-39695908D01*
X54247983Y-39695908D01*
X54188383Y-39689501D01*
X54188381Y-39689500D01*
X54188373Y-39689500D01*
X54188364Y-39689500D01*
X52592629Y-39689500D01*
X52592623Y-39689501D01*
X52533016Y-39695908D01*
X52398171Y-39746202D01*
X52398164Y-39746206D01*
X52282955Y-39832452D01*
X52282952Y-39832455D01*
X52196706Y-39947664D01*
X52196702Y-39947671D01*
X52146408Y-40082517D01*
X52140001Y-40142116D01*
X52140001Y-40142123D01*
X52140000Y-40142135D01*
X52140000Y-41137870D01*
X52140001Y-41137876D01*
X52146408Y-41197481D01*
X52159159Y-41231669D01*
X52164142Y-41301361D01*
X52159159Y-41318331D01*
X52146408Y-41352518D01*
X52141477Y-41398386D01*
X52140001Y-41412123D01*
X52140000Y-41412135D01*
X52140000Y-42407870D01*
X52140001Y-42407876D01*
X52146408Y-42467481D01*
X52159159Y-42501669D01*
X52164142Y-42571361D01*
X52159159Y-42588331D01*
X52146408Y-42622518D01*
X52140364Y-42678739D01*
X52140001Y-42682123D01*
X52140000Y-42682135D01*
X52140000Y-43677870D01*
X52140001Y-43677876D01*
X52146408Y-43737481D01*
X52159159Y-43771669D01*
X52164142Y-43841361D01*
X52159159Y-43858331D01*
X52146408Y-43892518D01*
X52140001Y-43952116D01*
X52140001Y-43952123D01*
X52140000Y-43952135D01*
X52140000Y-44947870D01*
X52140001Y-44947876D01*
X52146408Y-45007481D01*
X52159159Y-45041669D01*
X52164142Y-45111361D01*
X52159159Y-45128331D01*
X52146408Y-45162518D01*
X52140001Y-45222116D01*
X52140001Y-45222123D01*
X52140000Y-45222135D01*
X52140000Y-46217870D01*
X52140001Y-46217876D01*
X52146408Y-46277481D01*
X52159159Y-46311669D01*
X52164142Y-46381361D01*
X52159159Y-46398331D01*
X52146408Y-46432518D01*
X52140001Y-46492116D01*
X52140001Y-46492123D01*
X52140000Y-46492135D01*
X52140000Y-47487870D01*
X52140001Y-47487876D01*
X52146408Y-47547481D01*
X52159159Y-47581669D01*
X52164142Y-47651361D01*
X52159159Y-47668331D01*
X52146408Y-47702518D01*
X52140001Y-47762116D01*
X52140001Y-47762123D01*
X52140000Y-47762135D01*
X52140000Y-48757870D01*
X52140001Y-48757876D01*
X52146408Y-48817481D01*
X52159159Y-48851669D01*
X52164142Y-48921361D01*
X52159159Y-48938331D01*
X52146408Y-48972518D01*
X52145358Y-48982288D01*
X52140001Y-49032123D01*
X52140000Y-49032135D01*
X52140000Y-50027870D01*
X52140001Y-50027876D01*
X52146408Y-50087481D01*
X52159159Y-50121669D01*
X52164142Y-50191361D01*
X52159159Y-50208331D01*
X52146408Y-50242518D01*
X52140001Y-50302116D01*
X52140001Y-50302123D01*
X52140000Y-50302135D01*
X52140000Y-51297870D01*
X52140001Y-51297876D01*
X52146408Y-51357481D01*
X52159159Y-51391669D01*
X52164142Y-51461361D01*
X52159159Y-51478331D01*
X52146408Y-51512518D01*
X52141058Y-51562288D01*
X52140001Y-51572123D01*
X52140000Y-51572135D01*
X52140000Y-52567870D01*
X52140001Y-52567876D01*
X52146408Y-52627481D01*
X52159159Y-52661669D01*
X52164142Y-52731361D01*
X52159159Y-52748331D01*
X52146408Y-52782518D01*
X52141039Y-52832461D01*
X52140001Y-52842123D01*
X52140000Y-52842135D01*
X52140000Y-53837870D01*
X52140001Y-53837876D01*
X52146408Y-53897481D01*
X52159159Y-53931669D01*
X52164142Y-54001361D01*
X52159159Y-54018331D01*
X52146408Y-54052518D01*
X52140595Y-54106595D01*
X52140001Y-54112123D01*
X52140000Y-54112135D01*
X52140000Y-55107870D01*
X52140001Y-55107876D01*
X52146408Y-55167481D01*
X52159159Y-55201669D01*
X52164142Y-55271361D01*
X52159159Y-55288331D01*
X52146408Y-55322518D01*
X52140001Y-55382116D01*
X52140001Y-55382123D01*
X52140000Y-55382135D01*
X52140000Y-55755500D01*
X52120315Y-55822539D01*
X52067511Y-55868294D01*
X52016000Y-55879500D01*
X51127629Y-55879500D01*
X51127623Y-55879501D01*
X51068018Y-55885908D01*
X51033831Y-55898659D01*
X50964139Y-55903642D01*
X50947169Y-55898659D01*
X50912980Y-55885908D01*
X50912982Y-55885908D01*
X50853383Y-55879501D01*
X50853381Y-55879500D01*
X50853373Y-55879500D01*
X50853364Y-55879500D01*
X49857629Y-55879500D01*
X49857623Y-55879501D01*
X49798018Y-55885908D01*
X49763831Y-55898659D01*
X49694139Y-55903642D01*
X49677169Y-55898659D01*
X49642980Y-55885908D01*
X49642982Y-55885908D01*
X49583383Y-55879501D01*
X49583381Y-55879500D01*
X49583373Y-55879500D01*
X49583364Y-55879500D01*
X48587629Y-55879500D01*
X48587623Y-55879501D01*
X48528018Y-55885908D01*
X48493831Y-55898659D01*
X48424139Y-55903642D01*
X48407169Y-55898659D01*
X48372980Y-55885908D01*
X48372982Y-55885908D01*
X48313383Y-55879501D01*
X48313381Y-55879500D01*
X48313373Y-55879500D01*
X48313364Y-55879500D01*
X47317629Y-55879500D01*
X47317623Y-55879501D01*
X47258018Y-55885908D01*
X47223831Y-55898659D01*
X47154139Y-55903642D01*
X47137169Y-55898659D01*
X47102980Y-55885908D01*
X47102982Y-55885908D01*
X47043383Y-55879501D01*
X47043381Y-55879500D01*
X47043373Y-55879500D01*
X47043364Y-55879500D01*
X46047629Y-55879500D01*
X46047623Y-55879501D01*
X45988018Y-55885908D01*
X45953831Y-55898659D01*
X45884139Y-55903642D01*
X45867169Y-55898659D01*
X45832980Y-55885908D01*
X45832982Y-55885908D01*
X45773383Y-55879501D01*
X45773381Y-55879500D01*
X45773373Y-55879500D01*
X45773364Y-55879500D01*
X44777629Y-55879500D01*
X44777623Y-55879501D01*
X44718018Y-55885908D01*
X44683831Y-55898659D01*
X44614139Y-55903642D01*
X44597169Y-55898659D01*
X44562980Y-55885908D01*
X44562982Y-55885908D01*
X44503383Y-55879501D01*
X44503381Y-55879500D01*
X44503373Y-55879500D01*
X44503364Y-55879500D01*
X43507629Y-55879500D01*
X43507623Y-55879501D01*
X43448018Y-55885908D01*
X43413831Y-55898659D01*
X43344139Y-55903642D01*
X43327169Y-55898659D01*
X43292980Y-55885908D01*
X43292982Y-55885908D01*
X43233383Y-55879501D01*
X43233381Y-55879500D01*
X43233373Y-55879500D01*
X43233364Y-55879500D01*
X42237629Y-55879500D01*
X42237623Y-55879501D01*
X42178018Y-55885908D01*
X42143831Y-55898659D01*
X42074139Y-55903642D01*
X42057169Y-55898659D01*
X42022980Y-55885908D01*
X42022982Y-55885908D01*
X41963383Y-55879501D01*
X41963381Y-55879500D01*
X41963373Y-55879500D01*
X41963364Y-55879500D01*
X40967629Y-55879500D01*
X40967623Y-55879501D01*
X40908018Y-55885908D01*
X40873831Y-55898659D01*
X40804139Y-55903642D01*
X40787169Y-55898659D01*
X40752980Y-55885908D01*
X40752982Y-55885908D01*
X40693383Y-55879501D01*
X40693381Y-55879500D01*
X40693373Y-55879500D01*
X40693364Y-55879500D01*
X39697629Y-55879500D01*
X39697623Y-55879501D01*
X39638018Y-55885908D01*
X39603831Y-55898659D01*
X39534139Y-55903642D01*
X39517169Y-55898659D01*
X39482980Y-55885908D01*
X39482982Y-55885908D01*
X39423383Y-55879501D01*
X39423381Y-55879500D01*
X39423373Y-55879500D01*
X39423364Y-55879500D01*
X38427629Y-55879500D01*
X38427623Y-55879501D01*
X38368018Y-55885908D01*
X38333831Y-55898659D01*
X38264139Y-55903642D01*
X38247169Y-55898659D01*
X38212980Y-55885908D01*
X38212982Y-55885908D01*
X38153383Y-55879501D01*
X38153381Y-55879500D01*
X38153373Y-55879500D01*
X38153365Y-55879500D01*
X37264999Y-55879500D01*
X37197960Y-55859815D01*
X37152205Y-55807011D01*
X37140999Y-55755500D01*
X37140999Y-55382129D01*
X37140998Y-55382123D01*
X37140997Y-55382116D01*
X37134591Y-55322517D01*
X37121840Y-55288332D01*
X37116857Y-55218642D01*
X37121840Y-55201669D01*
X37134591Y-55167483D01*
X37141000Y-55107873D01*
X37140999Y-54112128D01*
X37134591Y-54052517D01*
X37121840Y-54018332D01*
X37116857Y-53948642D01*
X37121840Y-53931669D01*
X37134591Y-53897483D01*
X37141000Y-53837873D01*
X37140999Y-52842128D01*
X37134591Y-52782517D01*
X37121840Y-52748332D01*
X37116857Y-52678642D01*
X37121840Y-52661669D01*
X37134591Y-52627483D01*
X37141000Y-52567873D01*
X37140999Y-51572128D01*
X37134591Y-51512517D01*
X37121840Y-51478332D01*
X37116857Y-51408642D01*
X37121840Y-51391669D01*
X37134591Y-51357483D01*
X37141000Y-51297873D01*
X37140999Y-50302128D01*
X37134591Y-50242517D01*
X37121840Y-50208332D01*
X37116857Y-50138642D01*
X37121840Y-50121669D01*
X37134591Y-50087483D01*
X37141000Y-50027873D01*
X37140999Y-49032128D01*
X37134591Y-48972517D01*
X37121840Y-48938332D01*
X37116857Y-48868642D01*
X37121840Y-48851669D01*
X37134591Y-48817483D01*
X37141000Y-48757873D01*
X37140999Y-47762128D01*
X37134591Y-47702517D01*
X37121840Y-47668332D01*
X37116857Y-47598642D01*
X37121840Y-47581669D01*
X37134591Y-47547483D01*
X37141000Y-47487873D01*
X37140999Y-46492128D01*
X37134591Y-46432517D01*
X37121840Y-46398332D01*
X37116857Y-46328642D01*
X37121840Y-46311669D01*
X37134591Y-46277483D01*
X37141000Y-46217873D01*
X37140999Y-45222128D01*
X37134591Y-45162517D01*
X37121840Y-45128332D01*
X37116857Y-45058642D01*
X37121840Y-45041669D01*
X37134591Y-45007483D01*
X37141000Y-44947873D01*
X37140999Y-43952128D01*
X37134591Y-43892517D01*
X37121840Y-43858332D01*
X37116857Y-43788642D01*
X37121840Y-43771669D01*
X37134591Y-43737483D01*
X37141000Y-43677873D01*
X37140999Y-42682128D01*
X37134591Y-42622517D01*
X37121840Y-42588332D01*
X37116857Y-42518642D01*
X37121840Y-42501669D01*
X37134591Y-42467483D01*
X37141000Y-42407873D01*
X37140999Y-41412128D01*
X37134591Y-41352517D01*
X37121840Y-41318332D01*
X37116857Y-41248642D01*
X37121840Y-41231669D01*
X37134591Y-41197483D01*
X37141000Y-41137873D01*
X37140999Y-40142128D01*
X37134591Y-40082517D01*
X37129554Y-40069013D01*
X37084297Y-39947671D01*
X37084293Y-39947664D01*
X36998047Y-39832455D01*
X36998044Y-39832452D01*
X36882835Y-39746206D01*
X36882828Y-39746202D01*
X36747982Y-39695908D01*
X36747983Y-39695908D01*
X36688383Y-39689501D01*
X36688381Y-39689500D01*
X36688373Y-39689500D01*
X36688364Y-39689500D01*
X35092629Y-39689500D01*
X35092623Y-39689501D01*
X35033016Y-39695908D01*
X34898171Y-39746202D01*
X34898168Y-39746204D01*
X34873372Y-39764767D01*
X34807908Y-39789184D01*
X34799061Y-39789500D01*
X34036228Y-39789500D01*
X33871925Y-39822182D01*
X33871913Y-39822185D01*
X33826583Y-39840962D01*
X33717143Y-39886292D01*
X33717130Y-39886299D01*
X33577838Y-39979372D01*
X33577834Y-39979375D01*
X33276681Y-40280529D01*
X33215358Y-40314014D01*
X33145666Y-40309030D01*
X33101319Y-40280529D01*
X33080165Y-40259375D01*
X33080161Y-40259372D01*
X32940866Y-40166297D01*
X32940863Y-40166296D01*
X32831416Y-40120962D01*
X32831414Y-40120961D01*
X32786086Y-40102185D01*
X32786074Y-40102182D01*
X32621771Y-40069500D01*
X32621767Y-40069500D01*
X32618543Y-40069500D01*
X32616827Y-40069013D01*
X32615706Y-40068903D01*
X32615725Y-40068701D01*
X32553446Y-40051038D01*
X32539096Y-40042187D01*
X32524201Y-40032999D01*
X32524198Y-40032997D01*
X32524197Y-40032997D01*
X32443757Y-40006342D01*
X32363209Y-39979651D01*
X32263846Y-39969500D01*
X31667162Y-39969500D01*
X31667144Y-39969501D01*
X31567792Y-39979650D01*
X31567789Y-39979651D01*
X31406805Y-40032996D01*
X31406798Y-40032999D01*
X31386134Y-40045745D01*
X31377553Y-40051038D01*
X31312457Y-40069500D01*
X30713543Y-40069500D01*
X30648446Y-40051038D01*
X30634096Y-40042187D01*
X30619201Y-40032999D01*
X30619198Y-40032997D01*
X30619197Y-40032997D01*
X30538757Y-40006342D01*
X30458209Y-39979651D01*
X30358846Y-39969500D01*
X29762162Y-39969500D01*
X29762144Y-39969501D01*
X29662792Y-39979650D01*
X29662789Y-39979651D01*
X29501805Y-40032996D01*
X29501798Y-40032999D01*
X29357451Y-40122035D01*
X29357444Y-40122041D01*
X29355759Y-40123726D01*
X29352880Y-40125648D01*
X29351784Y-40126516D01*
X29351714Y-40126428D01*
X29315546Y-40150592D01*
X29277643Y-40166292D01*
X29277637Y-40166295D01*
X29277637Y-40166296D01*
X29138340Y-40259373D01*
X29138331Y-40259379D01*
X29138330Y-40259380D01*
X28803375Y-40594334D01*
X28803372Y-40594338D01*
X28710297Y-40733633D01*
X28710296Y-40733636D01*
X28675644Y-40817295D01*
X28675644Y-40817296D01*
X28646184Y-40888417D01*
X28646182Y-40888425D01*
X28613500Y-41052728D01*
X28613500Y-53169771D01*
X28642941Y-53317782D01*
X28642942Y-53317785D01*
X28646184Y-53334081D01*
X28646185Y-53334085D01*
X28659228Y-53365573D01*
X28666697Y-53435042D01*
X28635422Y-53497521D01*
X28601582Y-53521047D01*
X28602446Y-53522663D01*
X28597077Y-53525532D01*
X28490528Y-53596725D01*
X28399925Y-53687328D01*
X28328735Y-53793873D01*
X28313172Y-53831443D01*
X28295727Y-53861088D01*
X28291303Y-53866659D01*
X28221480Y-53936484D01*
X28187697Y-53994999D01*
X28183124Y-54002918D01*
X28183121Y-54002923D01*
X28142423Y-54073414D01*
X28139297Y-54085080D01*
X28101499Y-54226143D01*
X28101499Y-54226145D01*
X28101499Y-54394246D01*
X28101500Y-54394259D01*
X28101500Y-54405500D01*
X28081815Y-54472539D01*
X28029011Y-54518294D01*
X27977501Y-54529500D01*
X27867630Y-54529500D01*
X27867623Y-54529501D01*
X27808016Y-54535908D01*
X27673171Y-54586202D01*
X27673164Y-54586206D01*
X27557955Y-54672452D01*
X27557952Y-54672455D01*
X27471706Y-54787664D01*
X27471702Y-54787671D01*
X27421408Y-54922517D01*
X27415001Y-54982116D01*
X27415000Y-54982135D01*
X27415000Y-56777870D01*
X27415001Y-56777876D01*
X27421408Y-56837483D01*
X27471702Y-56972328D01*
X27471706Y-56972335D01*
X27557952Y-57087544D01*
X27557955Y-57087547D01*
X27673164Y-57173793D01*
X27673171Y-57173797D01*
X27804582Y-57222810D01*
X27860516Y-57264681D01*
X27884933Y-57330145D01*
X27870082Y-57398418D01*
X27848931Y-57426673D01*
X27735389Y-57540215D01*
X27610451Y-57712179D01*
X27513944Y-57901585D01*
X27448253Y-58103760D01*
X27418964Y-58288687D01*
X27415000Y-58313713D01*
X27415000Y-58526287D01*
X27428003Y-58608384D01*
X27448254Y-58736244D01*
X27448254Y-58736247D01*
X27461991Y-58778523D01*
X27463986Y-58848364D01*
X27431741Y-58904522D01*
X26999786Y-59336478D01*
X26887981Y-59448282D01*
X26887975Y-59448290D01*
X26841668Y-59528498D01*
X26841668Y-59528499D01*
X26808923Y-59585214D01*
X26808923Y-59585215D01*
X26767999Y-59737943D01*
X26767999Y-59737945D01*
X26767999Y-59906046D01*
X26768000Y-59906059D01*
X26768000Y-61889330D01*
X26767999Y-61889348D01*
X26767999Y-62055054D01*
X26767998Y-62055054D01*
X26778494Y-62094223D01*
X26808923Y-62207785D01*
X26811094Y-62211546D01*
X26811098Y-62211558D01*
X26811101Y-62211557D01*
X26887977Y-62344712D01*
X26887981Y-62344717D01*
X27006849Y-62463585D01*
X27006854Y-62463589D01*
X27761784Y-63218520D01*
X27761786Y-63218521D01*
X27761790Y-63218524D01*
X27898709Y-63297573D01*
X27898716Y-63297577D01*
X28051443Y-63338501D01*
X28051445Y-63338501D01*
X28217154Y-63338501D01*
X28217170Y-63338500D01*
X35471640Y-63338500D01*
X35485879Y-63342681D01*
X35500703Y-63341954D01*
X35518728Y-63352326D01*
X35538679Y-63358185D01*
X35549429Y-63369993D01*
X35561262Y-63376803D01*
X35575485Y-63398615D01*
X35581775Y-63405524D01*
X35584187Y-63410187D01*
X35619785Y-63496127D01*
X35659039Y-63554875D01*
X35662220Y-63561024D01*
X35667612Y-63588792D01*
X35676065Y-63615786D01*
X35674185Y-63622637D01*
X35675540Y-63629612D01*
X35665064Y-63655885D01*
X35657581Y-63683166D01*
X35652294Y-63687914D01*
X35649664Y-63694513D01*
X35626647Y-63710952D01*
X35605602Y-63729857D01*
X35597655Y-63731660D01*
X35592807Y-63735123D01*
X35579521Y-63735774D01*
X35552085Y-63742000D01*
X34669798Y-63742000D01*
X34632932Y-63744901D01*
X34632926Y-63744902D01*
X34475106Y-63790754D01*
X34475103Y-63790755D01*
X34333637Y-63874417D01*
X34333629Y-63874423D01*
X34302374Y-63905680D01*
X34241052Y-63939166D01*
X34214692Y-63942000D01*
X33588169Y-63942000D01*
X33588153Y-63941999D01*
X33580557Y-63941999D01*
X33422443Y-63941999D01*
X33307897Y-63972692D01*
X33269714Y-63982923D01*
X33256360Y-63990634D01*
X33256357Y-63990635D01*
X33132790Y-64061975D01*
X33132782Y-64061981D01*
X33020978Y-64173786D01*
X32787510Y-64407253D01*
X32726187Y-64440738D01*
X32656495Y-64435754D01*
X32612148Y-64407253D01*
X32398250Y-64193355D01*
X32398248Y-64193352D01*
X32279377Y-64074481D01*
X32279376Y-64074480D01*
X32192564Y-64024360D01*
X32192564Y-64024359D01*
X32192560Y-64024358D01*
X32142445Y-63995423D01*
X31989717Y-63954499D01*
X31831603Y-63954499D01*
X31824007Y-63954499D01*
X31823991Y-63954500D01*
X29876009Y-63954500D01*
X29875993Y-63954499D01*
X29868397Y-63954499D01*
X29710283Y-63954499D01*
X29604205Y-63982923D01*
X29557550Y-63995424D01*
X29557549Y-63995425D01*
X29507436Y-64024359D01*
X29507435Y-64024360D01*
X29486484Y-64036456D01*
X29420625Y-64074479D01*
X29420622Y-64074481D01*
X28221481Y-65273622D01*
X28221479Y-65273625D01*
X28203450Y-65304853D01*
X28185420Y-65336082D01*
X28142423Y-65410555D01*
X28101499Y-65563283D01*
X28101499Y-65563285D01*
X28101499Y-65731386D01*
X28101500Y-65731399D01*
X28101500Y-74843330D01*
X28101499Y-74843348D01*
X28101499Y-75009054D01*
X28101498Y-75009054D01*
X28142423Y-75161786D01*
X28142424Y-75161787D01*
X28158837Y-75190215D01*
X28171111Y-75211475D01*
X28221481Y-75298717D01*
X28340349Y-75417585D01*
X28340355Y-75417590D01*
X31523478Y-78600713D01*
X31523480Y-78600716D01*
X31635284Y-78712520D01*
X31678063Y-78737218D01*
X31699970Y-78749866D01*
X31772209Y-78791574D01*
X31772210Y-78791574D01*
X31772215Y-78791577D01*
X31924943Y-78832500D01*
X33208385Y-78832500D01*
X33275424Y-78852185D01*
X33321179Y-78904989D01*
X33331876Y-78967722D01*
X33325000Y-79043386D01*
X33325000Y-79706613D01*
X33331413Y-79777192D01*
X33382022Y-79939606D01*
X33470030Y-80085188D01*
X33590311Y-80205469D01*
X33590313Y-80205470D01*
X33590315Y-80205472D01*
X33735894Y-80293478D01*
X33898304Y-80344086D01*
X33968884Y-80350500D01*
X33968887Y-80350500D01*
X34482113Y-80350500D01*
X34482116Y-80350500D01*
X34552696Y-80344086D01*
X34715106Y-80293478D01*
X34860685Y-80205472D01*
X34980972Y-80085185D01*
X35068978Y-79939606D01*
X35119586Y-79777196D01*
X35126000Y-79706616D01*
X35126000Y-79043384D01*
X35119586Y-78972804D01*
X35068978Y-78810394D01*
X34980972Y-78664815D01*
X34980970Y-78664813D01*
X34980969Y-78664811D01*
X34860689Y-78544531D01*
X34860685Y-78544528D01*
X34845401Y-78535288D01*
X34798215Y-78483759D01*
X34789779Y-78461266D01*
X34785077Y-78443716D01*
X34767313Y-78412947D01*
X34706024Y-78306790D01*
X34706018Y-78306782D01*
X34421417Y-78022181D01*
X34387932Y-77960858D01*
X34392916Y-77891166D01*
X34434788Y-77835233D01*
X34500252Y-77810816D01*
X34509098Y-77810500D01*
X34546613Y-77810500D01*
X34546616Y-77810500D01*
X34617196Y-77804086D01*
X34779606Y-77753478D01*
X34925185Y-77665472D01*
X35045472Y-77545185D01*
X35133478Y-77399606D01*
X35184086Y-77237196D01*
X35190500Y-77166616D01*
X35190500Y-76503384D01*
X35184086Y-76432804D01*
X35133478Y-76270394D01*
X35045472Y-76124815D01*
X34925185Y-76004528D01*
X34925182Y-76004526D01*
X34925181Y-76004525D01*
X34868536Y-75970282D01*
X34825298Y-75926164D01*
X34770521Y-75831286D01*
X34770520Y-75831284D01*
X34658716Y-75719480D01*
X34658715Y-75719479D01*
X34654385Y-75715149D01*
X34654374Y-75715139D01*
X34269590Y-75330355D01*
X34269588Y-75330352D01*
X34150717Y-75211481D01*
X34150709Y-75211475D01*
X34055523Y-75156520D01*
X34055521Y-75156519D01*
X34013790Y-75132425D01*
X34013789Y-75132424D01*
X34001263Y-75129067D01*
X33861057Y-75091499D01*
X33702943Y-75091499D01*
X33695347Y-75091499D01*
X33695331Y-75091500D01*
X30526097Y-75091500D01*
X30459058Y-75071815D01*
X30438416Y-75055181D01*
X29846819Y-74463584D01*
X29813334Y-74402261D01*
X29810500Y-74375903D01*
X29810500Y-72562529D01*
X29830185Y-72495490D01*
X29882989Y-72449735D01*
X29952147Y-72439791D01*
X30003389Y-72459426D01*
X30077137Y-72508703D01*
X30231918Y-72572816D01*
X30396228Y-72605499D01*
X30396232Y-72605500D01*
X30396233Y-72605500D01*
X30563768Y-72605500D01*
X30563769Y-72605499D01*
X30728082Y-72572816D01*
X30882863Y-72508703D01*
X31022162Y-72415626D01*
X31067318Y-72370470D01*
X31128641Y-72336984D01*
X31198332Y-72341968D01*
X31242682Y-72370470D01*
X31287834Y-72415623D01*
X31287837Y-72415626D01*
X31375030Y-72473886D01*
X31427137Y-72508703D01*
X31581918Y-72572816D01*
X31746228Y-72605499D01*
X31746232Y-72605500D01*
X31746233Y-72605500D01*
X31913768Y-72605500D01*
X31913769Y-72605499D01*
X32078082Y-72572816D01*
X32097099Y-72564938D01*
X32144551Y-72555500D01*
X33665169Y-72555500D01*
X33732208Y-72575185D01*
X33777963Y-72627989D01*
X33782873Y-72640491D01*
X33805686Y-72709334D01*
X33897788Y-72858656D01*
X34021844Y-72982712D01*
X34171166Y-73074814D01*
X34337703Y-73129999D01*
X34440491Y-73140500D01*
X35790508Y-73140499D01*
X35893297Y-73129999D01*
X36059834Y-73074814D01*
X36209156Y-72982712D01*
X36333212Y-72858656D01*
X36415461Y-72725307D01*
X36467409Y-72678583D01*
X36536371Y-72667360D01*
X36600453Y-72695203D01*
X36639310Y-72753272D01*
X36645000Y-72790404D01*
X36645000Y-74260689D01*
X36625315Y-74327728D01*
X36608681Y-74348370D01*
X36434705Y-74522345D01*
X36434701Y-74522350D01*
X36286632Y-74726151D01*
X36172260Y-74950616D01*
X36094410Y-75190214D01*
X36055000Y-75439038D01*
X36055000Y-75690961D01*
X36094410Y-75939785D01*
X36172260Y-76179383D01*
X36218633Y-76270394D01*
X36270998Y-76373166D01*
X36286632Y-76403848D01*
X36434701Y-76607649D01*
X36434705Y-76607654D01*
X36612845Y-76785794D01*
X36612850Y-76785798D01*
X36722550Y-76865499D01*
X36816655Y-76933870D01*
X36959684Y-77006747D01*
X37041116Y-77048239D01*
X37041118Y-77048239D01*
X37041121Y-77048241D01*
X37280715Y-77126090D01*
X37529538Y-77165500D01*
X37529539Y-77165500D01*
X37781461Y-77165500D01*
X37781462Y-77165500D01*
X38030285Y-77126090D01*
X38269879Y-77048241D01*
X38494345Y-76933870D01*
X38698156Y-76785793D01*
X38876293Y-76607656D01*
X39024370Y-76403845D01*
X39138741Y-76179379D01*
X39216590Y-75939785D01*
X39256000Y-75690962D01*
X39256000Y-75439038D01*
X39216590Y-75190215D01*
X39138741Y-74950621D01*
X39138739Y-74950618D01*
X39138739Y-74950616D01*
X39093688Y-74862200D01*
X39024370Y-74726155D01*
X39002220Y-74695668D01*
X38876298Y-74522350D01*
X38876294Y-74522345D01*
X38698158Y-74344209D01*
X38698152Y-74344204D01*
X38697106Y-74343444D01*
X38696804Y-74343053D01*
X38694451Y-74341043D01*
X38694873Y-74340548D01*
X38654445Y-74288110D01*
X38646000Y-74243132D01*
X38646000Y-69551458D01*
X38645999Y-69551457D01*
X38623190Y-69436785D01*
X38607551Y-69358164D01*
X38572686Y-69273993D01*
X38532132Y-69176086D01*
X38532128Y-69176080D01*
X38422639Y-69012217D01*
X38280186Y-68869764D01*
X38280155Y-68869735D01*
X37991979Y-68581559D01*
X37991959Y-68581537D01*
X37848285Y-68437863D01*
X37848281Y-68437860D01*
X37684420Y-68328371D01*
X37684407Y-68328364D01*
X37553787Y-68274261D01*
X37546477Y-68271233D01*
X37502336Y-68252949D01*
X37405688Y-68233724D01*
X37401500Y-68232891D01*
X37401493Y-68232889D01*
X37309044Y-68214500D01*
X37309041Y-68214500D01*
X36191164Y-68214500D01*
X36126068Y-68196039D01*
X36059840Y-68155189D01*
X36059835Y-68155187D01*
X36059834Y-68155186D01*
X35893297Y-68100001D01*
X35893295Y-68100000D01*
X35790510Y-68089500D01*
X34440498Y-68089500D01*
X34440481Y-68089501D01*
X34337703Y-68100000D01*
X34337696Y-68100002D01*
X34291503Y-68115309D01*
X34221674Y-68117710D01*
X34161633Y-68081978D01*
X34130441Y-68019457D01*
X34128500Y-67997603D01*
X34128500Y-67204577D01*
X34148185Y-67137538D01*
X34200989Y-67091783D01*
X34270147Y-67081839D01*
X34328504Y-67106600D01*
X34333639Y-67110584D01*
X34379217Y-67137538D01*
X34475102Y-67194244D01*
X34510668Y-67204577D01*
X34632926Y-67240097D01*
X34632929Y-67240097D01*
X34632931Y-67240098D01*
X34669806Y-67243000D01*
X34669814Y-67243000D01*
X35826186Y-67243000D01*
X35826194Y-67243000D01*
X35863069Y-67240098D01*
X35863071Y-67240097D01*
X35863073Y-67240097D01*
X35904691Y-67228005D01*
X36020898Y-67194244D01*
X36162365Y-67110581D01*
X36193626Y-67079320D01*
X36220554Y-67064616D01*
X36246371Y-67048024D01*
X36252573Y-67047132D01*
X36254949Y-67045835D01*
X36281306Y-67043001D01*
X36438057Y-67043001D01*
X36438060Y-67043000D01*
X36445668Y-67043000D01*
X36489692Y-67043000D01*
X36556731Y-67062685D01*
X36577374Y-67079320D01*
X36608629Y-67110576D01*
X36608633Y-67110579D01*
X36608635Y-67110581D01*
X36750102Y-67194244D01*
X36785668Y-67204577D01*
X36907926Y-67240097D01*
X36907929Y-67240097D01*
X36907931Y-67240098D01*
X36944806Y-67243000D01*
X36944814Y-67243000D01*
X38101186Y-67243000D01*
X38101194Y-67243000D01*
X38138069Y-67240098D01*
X38138071Y-67240097D01*
X38138073Y-67240097D01*
X38179691Y-67228005D01*
X38295898Y-67194244D01*
X38437365Y-67110581D01*
X38516833Y-67031112D01*
X38578154Y-66997629D01*
X38647846Y-67002613D01*
X38692194Y-67031114D01*
X41637735Y-69976655D01*
X41637764Y-69976686D01*
X41780214Y-70119136D01*
X41780218Y-70119139D01*
X41944079Y-70228628D01*
X41944086Y-70228632D01*
X42055580Y-70274814D01*
X42126164Y-70304051D01*
X42222812Y-70323275D01*
X42256610Y-70329998D01*
X42319458Y-70342500D01*
X42319459Y-70342500D01*
X42319460Y-70342500D01*
X42516540Y-70342500D01*
X44766367Y-70342500D01*
X44833406Y-70362185D01*
X44879161Y-70414989D01*
X44889105Y-70484147D01*
X44863014Y-70544187D01*
X44793469Y-70630704D01*
X44793467Y-70630707D01*
X44708860Y-70801302D01*
X44662900Y-70986107D01*
X44660000Y-71028879D01*
X44660000Y-72431122D01*
X44660001Y-72431125D01*
X44662899Y-72473886D01*
X44662899Y-72473887D01*
X44668272Y-72495490D01*
X44704333Y-72640495D01*
X44708860Y-72658696D01*
X44793467Y-72829292D01*
X44793469Y-72829295D01*
X44912777Y-72977721D01*
X44912778Y-72977722D01*
X45061204Y-73097030D01*
X45061207Y-73097032D01*
X45231802Y-73181639D01*
X45231803Y-73181639D01*
X45231807Y-73181641D01*
X45416611Y-73227600D01*
X45459377Y-73230500D01*
X46361622Y-73230499D01*
X46404389Y-73227600D01*
X46589193Y-73181641D01*
X46759796Y-73097030D01*
X46908222Y-72977722D01*
X46963853Y-72908514D01*
X47021196Y-72868595D01*
X47091018Y-72866015D01*
X47151151Y-72901594D01*
X47157147Y-72908514D01*
X47212777Y-72977721D01*
X47212778Y-72977722D01*
X47361204Y-73097030D01*
X47361207Y-73097032D01*
X47531802Y-73181639D01*
X47531803Y-73181639D01*
X47531807Y-73181641D01*
X47716611Y-73227600D01*
X47759377Y-73230500D01*
X48661622Y-73230499D01*
X48704389Y-73227600D01*
X48889193Y-73181641D01*
X49059796Y-73097030D01*
X49208222Y-72977722D01*
X49327530Y-72829296D01*
X49329955Y-72824405D01*
X49377373Y-72773094D01*
X49441043Y-72755500D01*
X49871000Y-72755500D01*
X49938039Y-72775185D01*
X49983794Y-72827989D01*
X49995000Y-72879500D01*
X49995000Y-73940500D01*
X49975315Y-74007539D01*
X49922511Y-74053294D01*
X49871000Y-74064500D01*
X49075633Y-74064500D01*
X49010537Y-74046039D01*
X48984835Y-74030186D01*
X48818298Y-73975001D01*
X48818296Y-73975000D01*
X48715517Y-73964500D01*
X48715510Y-73964500D01*
X46915490Y-73964500D01*
X46915482Y-73964500D01*
X46812703Y-73975000D01*
X46812702Y-73975001D01*
X46730169Y-74002349D01*
X46646167Y-74030185D01*
X46646162Y-74030187D01*
X46496842Y-74122289D01*
X46372789Y-74246342D01*
X46280687Y-74395662D01*
X46280685Y-74395667D01*
X46270215Y-74427265D01*
X46225501Y-74562202D01*
X46225501Y-74562203D01*
X46225500Y-74562203D01*
X46215000Y-74664982D01*
X46215000Y-76465017D01*
X46225500Y-76567796D01*
X46225501Y-76567798D01*
X46280686Y-76734335D01*
X46296537Y-76760034D01*
X46315000Y-76825132D01*
X46315000Y-78749866D01*
X46296540Y-78814961D01*
X46280688Y-78840660D01*
X46280685Y-78840667D01*
X46259371Y-78904989D01*
X46225501Y-79007202D01*
X46225501Y-79007203D01*
X46225500Y-79007203D01*
X46215000Y-79109982D01*
X46215000Y-80910017D01*
X46225500Y-81012796D01*
X46275263Y-81162970D01*
X46280686Y-81179335D01*
X46372788Y-81328656D01*
X46496844Y-81452712D01*
X46646165Y-81544814D01*
X46812702Y-81599999D01*
X46915490Y-81610500D01*
X46915495Y-81610500D01*
X48715505Y-81610500D01*
X48715510Y-81610500D01*
X48818298Y-81599999D01*
X48984835Y-81544814D01*
X49134156Y-81452712D01*
X49258212Y-81328656D01*
X49350314Y-81179335D01*
X49405499Y-81012798D01*
X49416000Y-80910010D01*
X49416000Y-79109990D01*
X49405499Y-79007202D01*
X49350314Y-78840665D01*
X49334460Y-78814961D01*
X49316000Y-78749866D01*
X49316000Y-77189500D01*
X49335685Y-77122461D01*
X49388489Y-77076706D01*
X49440000Y-77065500D01*
X50972408Y-77065500D01*
X51771000Y-77065500D01*
X51838039Y-77085185D01*
X51883794Y-77137989D01*
X51895000Y-77189500D01*
X51895000Y-80463545D01*
X51917617Y-80577248D01*
X51920000Y-80601436D01*
X51920000Y-80638336D01*
X51920001Y-80638356D01*
X51930150Y-80737707D01*
X51930151Y-80737710D01*
X51983496Y-80898694D01*
X51983501Y-80898705D01*
X52072529Y-81043040D01*
X52072532Y-81043044D01*
X52192455Y-81162967D01*
X52192459Y-81162970D01*
X52336794Y-81251998D01*
X52336797Y-81251999D01*
X52336803Y-81252003D01*
X52497792Y-81305349D01*
X52550712Y-81310755D01*
X52585559Y-81319551D01*
X52603665Y-81327051D01*
X52650996Y-81336465D01*
X52796956Y-81365500D01*
X52796959Y-81365500D01*
X52994043Y-81365500D01*
X53124082Y-81339632D01*
X53187335Y-81327051D01*
X53205441Y-81319550D01*
X53240292Y-81310754D01*
X53293208Y-81305349D01*
X53454197Y-81252003D01*
X53598544Y-81162968D01*
X53718468Y-81043044D01*
X53807503Y-80898697D01*
X53860849Y-80737708D01*
X53871000Y-80638345D01*
X53870999Y-80601434D01*
X53873382Y-80577241D01*
X53896000Y-80463542D01*
X53896000Y-77189500D01*
X53915685Y-77122461D01*
X53968489Y-77076706D01*
X54020000Y-77065500D01*
X54918597Y-77065500D01*
X55151868Y-77028553D01*
X55376492Y-76955568D01*
X55376496Y-76955566D01*
X55526737Y-76879014D01*
X55583032Y-76865499D01*
X56350502Y-76865499D01*
X56350508Y-76865499D01*
X56453297Y-76854999D01*
X56619834Y-76799814D01*
X56769156Y-76707712D01*
X56893212Y-76583656D01*
X56985314Y-76434334D01*
X57040499Y-76267797D01*
X57051000Y-76165009D01*
X57050999Y-74964992D01*
X57049530Y-74950616D01*
X57040499Y-74862203D01*
X57040498Y-74862200D01*
X56995417Y-74726155D01*
X56985314Y-74695666D01*
X56893212Y-74546344D01*
X56769156Y-74422288D01*
X56619834Y-74330186D01*
X56453297Y-74275001D01*
X56453295Y-74275000D01*
X56350516Y-74264500D01*
X56350509Y-74264500D01*
X55583030Y-74264500D01*
X55526735Y-74250985D01*
X55376496Y-74174433D01*
X55151868Y-74101446D01*
X54918597Y-74064500D01*
X54918592Y-74064500D01*
X52120000Y-74064500D01*
X52052961Y-74044815D01*
X52007206Y-73992011D01*
X51996000Y-73940500D01*
X51996000Y-71646470D01*
X51995999Y-71646456D01*
X51995999Y-71229998D01*
X51995998Y-71229981D01*
X51985499Y-71127203D01*
X51985498Y-71127200D01*
X51959018Y-71047289D01*
X51930314Y-70960666D01*
X51838212Y-70811344D01*
X51714156Y-70687288D01*
X51621388Y-70630069D01*
X51564836Y-70595187D01*
X51564831Y-70595185D01*
X51530920Y-70583948D01*
X51398297Y-70540001D01*
X51398295Y-70540000D01*
X51295510Y-70529500D01*
X50695498Y-70529500D01*
X50695480Y-70529501D01*
X50592703Y-70540000D01*
X50592700Y-70540001D01*
X50426168Y-70595185D01*
X50426163Y-70595187D01*
X50276842Y-70687289D01*
X50245951Y-70718181D01*
X50184628Y-70751666D01*
X50158270Y-70754500D01*
X49465841Y-70754500D01*
X49398802Y-70734815D01*
X49354753Y-70685596D01*
X49327530Y-70630704D01*
X49243856Y-70526609D01*
X49224352Y-70502344D01*
X49197694Y-70437759D01*
X49197000Y-70424657D01*
X49197000Y-70005456D01*
X49196999Y-70005454D01*
X49158553Y-69812175D01*
X49158552Y-69812174D01*
X49158551Y-69812165D01*
X49155790Y-69805500D01*
X49126082Y-69733779D01*
X49107499Y-69688914D01*
X49083135Y-69630093D01*
X49083134Y-69630092D01*
X49083132Y-69630086D01*
X49030595Y-69551459D01*
X48973640Y-69466219D01*
X48944206Y-69436785D01*
X48834282Y-69326861D01*
X48834281Y-69326860D01*
X48218708Y-68711288D01*
X48218706Y-68711285D01*
X48218706Y-68711286D01*
X48211639Y-68704219D01*
X48211639Y-68704218D01*
X48072282Y-68564861D01*
X48072281Y-68564860D01*
X48072280Y-68564859D01*
X47908420Y-68455371D01*
X47908407Y-68455364D01*
X47764643Y-68395816D01*
X47764640Y-68395815D01*
X47756115Y-68392284D01*
X47726336Y-68379949D01*
X47603423Y-68355500D01*
X47600501Y-68354918D01*
X47600498Y-68354918D01*
X47533043Y-68341500D01*
X47533041Y-68341500D01*
X42883782Y-68341500D01*
X42816743Y-68321815D01*
X42796101Y-68305181D01*
X40303819Y-65812899D01*
X40289115Y-65785971D01*
X40272523Y-65760153D01*
X40271631Y-65753952D01*
X40270334Y-65751576D01*
X40267500Y-65725218D01*
X40267500Y-65657621D01*
X40269883Y-65633429D01*
X40281000Y-65577543D01*
X40281000Y-64036456D01*
X40242552Y-63843170D01*
X40242551Y-63843169D01*
X40242551Y-63843165D01*
X40235049Y-63825055D01*
X40226254Y-63790206D01*
X40220849Y-63737292D01*
X40167503Y-63576303D01*
X40167499Y-63576297D01*
X40167498Y-63576294D01*
X40137461Y-63527597D01*
X40119020Y-63460205D01*
X40139942Y-63393541D01*
X40193584Y-63348772D01*
X40242999Y-63338500D01*
X44992652Y-63338500D01*
X45020831Y-63346774D01*
X45049671Y-63352387D01*
X45053976Y-63356506D01*
X45059691Y-63358185D01*
X45078922Y-63380379D01*
X45100151Y-63400694D01*
X45102921Y-63408075D01*
X45105446Y-63410989D01*
X45113209Y-63433484D01*
X45113792Y-63435909D01*
X45140763Y-63571497D01*
X45154281Y-63604133D01*
X45156557Y-63613588D01*
X45156093Y-63622964D01*
X45160000Y-63642604D01*
X45160000Y-63805500D01*
X45140315Y-63872539D01*
X45087511Y-63918294D01*
X45036000Y-63929500D01*
X44452471Y-63929500D01*
X44452465Y-63929500D01*
X44452464Y-63929501D01*
X44440816Y-63930536D01*
X44333084Y-63940113D01*
X44137454Y-63996089D01*
X44060176Y-64036456D01*
X43957093Y-64090302D01*
X43957091Y-64090303D01*
X43957090Y-64090304D01*
X43799390Y-64218890D01*
X43670804Y-64376590D01*
X43670802Y-64376593D01*
X43643166Y-64429500D01*
X43576589Y-64556954D01*
X43520614Y-64752583D01*
X43520613Y-64752586D01*
X43510000Y-64871966D01*
X43510000Y-65988028D01*
X43510001Y-65988034D01*
X43520613Y-66107415D01*
X43576589Y-66303045D01*
X43576590Y-66303048D01*
X43576591Y-66303049D01*
X43670802Y-66483407D01*
X43670804Y-66483409D01*
X43799390Y-66641109D01*
X43893303Y-66717684D01*
X43957093Y-66769698D01*
X44137451Y-66863909D01*
X44333082Y-66919886D01*
X44452463Y-66930500D01*
X47368536Y-66930499D01*
X47487918Y-66919886D01*
X47683549Y-66863909D01*
X47863907Y-66769698D01*
X48021609Y-66641109D01*
X48150198Y-66483407D01*
X48150198Y-66483406D01*
X48154172Y-66478533D01*
X48155839Y-66479892D01*
X48201650Y-66441117D01*
X48251852Y-66430500D01*
X52339042Y-66430500D01*
X52427610Y-66412882D01*
X52451802Y-66410499D01*
X52785502Y-66410499D01*
X52785508Y-66410499D01*
X52888297Y-66399999D01*
X53054834Y-66344814D01*
X53204156Y-66252712D01*
X53260049Y-66196819D01*
X53321372Y-66163334D01*
X53347730Y-66160500D01*
X64965920Y-66160500D01*
X65063462Y-66141096D01*
X65110913Y-66131658D01*
X65179204Y-66103371D01*
X65247491Y-66075086D01*
X65247492Y-66075085D01*
X65247495Y-66075084D01*
X65307991Y-66034662D01*
X65370416Y-65992952D01*
X65467320Y-65896047D01*
X65528641Y-65862564D01*
X65598333Y-65867548D01*
X65654267Y-65909419D01*
X65678684Y-65974883D01*
X65679000Y-65983730D01*
X65679000Y-101288664D01*
X65659315Y-101355703D01*
X65640280Y-101378682D01*
X63301870Y-103594018D01*
X63239665Y-103625834D01*
X63216590Y-103628000D01*
X56408000Y-103628000D01*
X56408000Y-104442878D01*
X56388315Y-104509917D01*
X56349099Y-104548415D01*
X56306346Y-104574785D01*
X56182289Y-104698842D01*
X56090187Y-104848163D01*
X56090185Y-104848168D01*
X56062349Y-104932170D01*
X56035001Y-105014703D01*
X56035001Y-105014704D01*
X56035000Y-105014704D01*
X56024500Y-105117483D01*
X56024500Y-107317501D01*
X56024501Y-107317518D01*
X56035000Y-107420296D01*
X56035001Y-107420299D01*
X56090185Y-107586831D01*
X56090187Y-107586836D01*
X56125069Y-107643388D01*
X56182288Y-107736156D01*
X56306344Y-107860212D01*
X56349096Y-107886581D01*
X56395820Y-107938527D01*
X56408000Y-107992120D01*
X56408000Y-109270500D01*
X56388315Y-109337539D01*
X56335511Y-109383294D01*
X56284000Y-109394500D01*
X51115889Y-109394500D01*
X51048850Y-109374815D01*
X51028208Y-109358181D01*
X49352319Y-107682292D01*
X49318834Y-107620969D01*
X49316000Y-107594611D01*
X49316000Y-92588711D01*
X56569500Y-92588711D01*
X56569500Y-92831288D01*
X56601161Y-93071785D01*
X56663947Y-93306104D01*
X56756773Y-93530205D01*
X56756776Y-93530212D01*
X56878064Y-93740289D01*
X56878066Y-93740292D01*
X56878067Y-93740293D01*
X57025733Y-93932736D01*
X57025739Y-93932743D01*
X57197256Y-94104260D01*
X57197262Y-94104265D01*
X57389711Y-94251936D01*
X57599788Y-94373224D01*
X57823900Y-94466054D01*
X58058211Y-94528838D01*
X58238586Y-94552584D01*
X58298711Y-94560500D01*
X58298712Y-94560500D01*
X58541289Y-94560500D01*
X58589388Y-94554167D01*
X58781789Y-94528838D01*
X59016100Y-94466054D01*
X59240212Y-94373224D01*
X59450289Y-94251936D01*
X59642738Y-94104265D01*
X59814265Y-93932738D01*
X59961936Y-93740289D01*
X60083224Y-93530212D01*
X60176054Y-93306100D01*
X60238838Y-93071789D01*
X60270500Y-92831288D01*
X60270500Y-92588712D01*
X60238838Y-92348211D01*
X60176054Y-92113900D01*
X60083224Y-91889788D01*
X59961936Y-91679711D01*
X59814265Y-91487262D01*
X59814260Y-91487256D01*
X59642743Y-91315739D01*
X59642736Y-91315733D01*
X59450293Y-91168067D01*
X59450292Y-91168066D01*
X59450289Y-91168064D01*
X59240212Y-91046776D01*
X59240205Y-91046773D01*
X59016104Y-90953947D01*
X58781785Y-90891161D01*
X58541289Y-90859500D01*
X58541288Y-90859500D01*
X58298712Y-90859500D01*
X58298711Y-90859500D01*
X58058214Y-90891161D01*
X57823895Y-90953947D01*
X57599794Y-91046773D01*
X57599785Y-91046777D01*
X57389706Y-91168067D01*
X57197263Y-91315733D01*
X57197256Y-91315739D01*
X57025739Y-91487256D01*
X57025733Y-91487263D01*
X56878067Y-91679706D01*
X56756777Y-91889785D01*
X56756773Y-91889794D01*
X56663947Y-92113895D01*
X56601161Y-92348214D01*
X56569500Y-92588711D01*
X49316000Y-92588711D01*
X49316000Y-90571902D01*
X49279053Y-90338631D01*
X49206066Y-90114003D01*
X49129514Y-89963762D01*
X49115999Y-89907467D01*
X49115999Y-89139998D01*
X49115998Y-89139981D01*
X49105499Y-89037203D01*
X49105498Y-89037200D01*
X49050314Y-88870666D01*
X48958212Y-88721344D01*
X48834156Y-88597288D01*
X48684834Y-88505186D01*
X48518297Y-88450001D01*
X48518295Y-88450000D01*
X48415510Y-88439500D01*
X47215498Y-88439500D01*
X47215481Y-88439501D01*
X47112703Y-88450000D01*
X47112700Y-88450001D01*
X46946168Y-88505185D01*
X46946163Y-88505187D01*
X46796842Y-88597289D01*
X46672789Y-88721342D01*
X46580687Y-88870663D01*
X46580686Y-88870666D01*
X46525501Y-89037203D01*
X46525501Y-89037204D01*
X46525500Y-89037204D01*
X46515000Y-89139983D01*
X46515000Y-89553500D01*
X46495315Y-89620539D01*
X46442511Y-89666294D01*
X46391000Y-89677500D01*
X44598282Y-89677500D01*
X44531243Y-89657815D01*
X44510601Y-89641181D01*
X41867319Y-86997899D01*
X41833834Y-86936576D01*
X41831000Y-86910218D01*
X41831000Y-85880456D01*
X41808382Y-85766752D01*
X41805999Y-85742560D01*
X41805999Y-85591662D01*
X41805998Y-85591644D01*
X41795849Y-85492292D01*
X41795848Y-85492289D01*
X41742503Y-85331303D01*
X41742499Y-85331297D01*
X41742498Y-85331294D01*
X41653470Y-85186959D01*
X41653467Y-85186955D01*
X41533544Y-85067032D01*
X41533540Y-85067029D01*
X41389205Y-84978001D01*
X41389199Y-84977998D01*
X41389197Y-84977997D01*
X41389194Y-84977996D01*
X41228209Y-84924651D01*
X41128852Y-84914500D01*
X41128845Y-84914500D01*
X41034886Y-84914500D01*
X40987436Y-84905062D01*
X40982335Y-84902949D01*
X40982328Y-84902947D01*
X40789043Y-84864500D01*
X40789041Y-84864500D01*
X38780000Y-84864500D01*
X38712961Y-84844815D01*
X38667206Y-84792011D01*
X38656000Y-84740500D01*
X38656000Y-81323962D01*
X38675685Y-81256923D01*
X38695123Y-81234650D01*
X38694711Y-81234238D01*
X38765982Y-81162967D01*
X38876293Y-81052656D01*
X39024370Y-80848845D01*
X39138741Y-80624379D01*
X39216590Y-80384785D01*
X39256000Y-80135962D01*
X39256000Y-79884038D01*
X39216590Y-79635215D01*
X39138741Y-79395621D01*
X39138739Y-79395618D01*
X39138739Y-79395616D01*
X39097247Y-79314184D01*
X39024370Y-79171155D01*
X38931541Y-79043386D01*
X38876298Y-78967350D01*
X38876294Y-78967345D01*
X38698154Y-78789205D01*
X38698149Y-78789201D01*
X38494348Y-78641132D01*
X38494347Y-78641131D01*
X38494345Y-78641130D01*
X38400511Y-78593319D01*
X38269883Y-78526760D01*
X38153711Y-78489013D01*
X38052851Y-78456241D01*
X38043724Y-78452874D01*
X37947336Y-78412949D01*
X37947328Y-78412947D01*
X37754043Y-78374500D01*
X37754041Y-78374500D01*
X37556959Y-78374500D01*
X37556957Y-78374500D01*
X37363666Y-78412948D01*
X37363664Y-78412949D01*
X37267276Y-78452873D01*
X37258144Y-78456242D01*
X37041116Y-78526760D01*
X36816651Y-78641132D01*
X36612850Y-78789201D01*
X36612845Y-78789205D01*
X36434705Y-78967345D01*
X36434701Y-78967350D01*
X36286632Y-79171151D01*
X36172260Y-79395616D01*
X36094410Y-79635214D01*
X36083101Y-79706616D01*
X36055000Y-79884038D01*
X36055000Y-80135962D01*
X36079149Y-80288433D01*
X36094410Y-80384785D01*
X36172260Y-80624383D01*
X36286632Y-80848848D01*
X36434701Y-81052649D01*
X36434705Y-81052654D01*
X36616289Y-81234238D01*
X36615214Y-81235312D01*
X36649725Y-81288180D01*
X36655000Y-81323962D01*
X36655000Y-85506041D01*
X36655000Y-85506043D01*
X36654999Y-85506043D01*
X36693447Y-85699329D01*
X36693450Y-85699339D01*
X36768864Y-85881407D01*
X36768871Y-85881420D01*
X36878359Y-86045280D01*
X36878360Y-86045281D01*
X36878361Y-86045282D01*
X37017718Y-86184639D01*
X37017719Y-86184639D01*
X37024786Y-86191706D01*
X37024785Y-86191706D01*
X37024789Y-86191709D01*
X37475215Y-86642137D01*
X37475219Y-86642140D01*
X37639079Y-86751628D01*
X37639085Y-86751631D01*
X37639086Y-86751632D01*
X37821165Y-86827052D01*
X37982389Y-86859121D01*
X38014457Y-86865499D01*
X38014458Y-86865500D01*
X38014459Y-86865500D01*
X38014460Y-86865500D01*
X38211540Y-86865500D01*
X39706000Y-86865500D01*
X39773039Y-86885185D01*
X39818794Y-86937989D01*
X39830000Y-86989500D01*
X39830000Y-87474541D01*
X39830000Y-87474543D01*
X39829999Y-87474543D01*
X39868447Y-87667829D01*
X39868450Y-87667839D01*
X39943864Y-87849907D01*
X39943871Y-87849920D01*
X40053360Y-88013781D01*
X40053363Y-88013785D01*
X40197037Y-88157459D01*
X40197059Y-88157479D01*
X43352235Y-91312655D01*
X43352264Y-91312686D01*
X43494714Y-91455136D01*
X43494718Y-91455139D01*
X43658579Y-91564628D01*
X43658592Y-91564635D01*
X43787333Y-91617961D01*
X43830244Y-91635735D01*
X43840664Y-91640051D01*
X43937312Y-91659275D01*
X43985635Y-91668887D01*
X44033958Y-91678500D01*
X44033959Y-91678500D01*
X44033960Y-91678500D01*
X44231040Y-91678500D01*
X46191000Y-91678500D01*
X46258039Y-91698185D01*
X46303794Y-91750989D01*
X46315000Y-91802500D01*
X46315000Y-108385597D01*
X46351946Y-108618868D01*
X46424933Y-108843496D01*
X46532157Y-109053934D01*
X46670984Y-109245011D01*
X49108792Y-111682819D01*
X49142277Y-111744142D01*
X49137293Y-111813834D01*
X49095421Y-111869767D01*
X49029957Y-111894184D01*
X49021111Y-111894500D01*
X26024500Y-111894500D01*
X25957461Y-111874815D01*
X25911706Y-111822011D01*
X25900500Y-111770500D01*
X25900500Y-108463711D01*
X27359500Y-108463711D01*
X27359500Y-108706288D01*
X27391161Y-108946785D01*
X27453947Y-109181104D01*
X27518745Y-109337539D01*
X27546776Y-109405212D01*
X27668064Y-109615289D01*
X27668066Y-109615292D01*
X27668067Y-109615293D01*
X27815733Y-109807736D01*
X27815739Y-109807743D01*
X27987256Y-109979260D01*
X27987262Y-109979265D01*
X28179711Y-110126936D01*
X28389788Y-110248224D01*
X28613900Y-110341054D01*
X28848211Y-110403838D01*
X29028586Y-110427584D01*
X29088711Y-110435500D01*
X29088712Y-110435500D01*
X29331289Y-110435500D01*
X29379388Y-110429167D01*
X29571789Y-110403838D01*
X29806100Y-110341054D01*
X30030212Y-110248224D01*
X30240289Y-110126936D01*
X30432738Y-109979265D01*
X30604265Y-109807738D01*
X30751936Y-109615289D01*
X30873224Y-109405212D01*
X30966054Y-109181100D01*
X31028838Y-108946789D01*
X31060500Y-108706288D01*
X31060500Y-108463712D01*
X31028838Y-108223211D01*
X30966054Y-107988900D01*
X30873224Y-107764788D01*
X30751936Y-107554711D01*
X30604265Y-107362262D01*
X30604260Y-107362256D01*
X30432743Y-107190739D01*
X30432736Y-107190733D01*
X30240293Y-107043067D01*
X30240292Y-107043066D01*
X30240289Y-107043064D01*
X30030212Y-106921776D01*
X30030205Y-106921773D01*
X29806104Y-106828947D01*
X29571785Y-106766161D01*
X29331289Y-106734500D01*
X29331288Y-106734500D01*
X29088712Y-106734500D01*
X29088711Y-106734500D01*
X28848214Y-106766161D01*
X28613895Y-106828947D01*
X28389794Y-106921773D01*
X28389785Y-106921777D01*
X28179706Y-107043067D01*
X27987263Y-107190733D01*
X27987256Y-107190739D01*
X27815739Y-107362256D01*
X27815733Y-107362263D01*
X27668067Y-107554706D01*
X27546777Y-107764785D01*
X27546773Y-107764794D01*
X27453947Y-107988895D01*
X27391161Y-108223214D01*
X27359500Y-108463711D01*
X25900500Y-108463711D01*
X25900500Y-38855000D01*
X25920185Y-38787961D01*
X25972989Y-38742206D01*
X26024500Y-38731000D01*
X71269379Y-38731000D01*
X71336418Y-38750685D01*
G37*
%TD.AperFunction*%
%TA.AperFunction,Conductor*%
G36*
X33339924Y-76312185D02*
G01*
X33385679Y-76364989D01*
X33396376Y-76427722D01*
X33395914Y-76432803D01*
X33395914Y-76432804D01*
X33395001Y-76442858D01*
X33389500Y-76503386D01*
X33389500Y-77166613D01*
X33395913Y-77237192D01*
X33395913Y-77237194D01*
X33395914Y-77237196D01*
X33446522Y-77399606D01*
X33446523Y-77399607D01*
X33472966Y-77443349D01*
X33490803Y-77510904D01*
X33469286Y-77577378D01*
X33415246Y-77621666D01*
X33366850Y-77631500D01*
X32304097Y-77631500D01*
X32237058Y-77611815D01*
X32216416Y-77595181D01*
X31125416Y-76504181D01*
X31091931Y-76442858D01*
X31096915Y-76373166D01*
X31138787Y-76317233D01*
X31204251Y-76292816D01*
X31213097Y-76292500D01*
X33272885Y-76292500D01*
X33339924Y-76312185D01*
G37*
%TD.AperFunction*%
%TA.AperFunction,Conductor*%
G36*
X31677602Y-65175185D02*
G01*
X31698244Y-65191819D01*
X31843181Y-65336756D01*
X31876666Y-65398079D01*
X31879500Y-65424437D01*
X31879500Y-66530500D01*
X31859815Y-66597539D01*
X31807011Y-66643294D01*
X31755500Y-66654500D01*
X31746228Y-66654500D01*
X31581925Y-66687182D01*
X31581917Y-66687184D01*
X31427139Y-66751295D01*
X31287837Y-66844373D01*
X31287834Y-66844376D01*
X31242681Y-66889530D01*
X31181358Y-66923015D01*
X31111666Y-66918031D01*
X31067319Y-66889530D01*
X31022162Y-66844373D01*
X30882860Y-66751295D01*
X30728082Y-66687184D01*
X30728074Y-66687182D01*
X30563771Y-66654500D01*
X30563767Y-66654500D01*
X30396233Y-66654500D01*
X30396228Y-66654500D01*
X30231925Y-66687182D01*
X30231917Y-66687184D01*
X30077139Y-66751295D01*
X29937837Y-66844373D01*
X29819373Y-66962837D01*
X29726295Y-67102139D01*
X29662184Y-67256917D01*
X29662182Y-67256925D01*
X29629500Y-67421228D01*
X29629500Y-67588771D01*
X29662182Y-67753074D01*
X29662185Y-67753086D01*
X29715810Y-67882548D01*
X29723279Y-67952017D01*
X29715810Y-67977452D01*
X29662185Y-68106913D01*
X29662182Y-68106925D01*
X29629500Y-68271228D01*
X29629500Y-68438771D01*
X29662182Y-68603074D01*
X29662185Y-68603086D01*
X29715810Y-68732548D01*
X29723279Y-68802017D01*
X29715810Y-68827452D01*
X29662185Y-68956913D01*
X29662182Y-68956925D01*
X29629500Y-69121228D01*
X29629500Y-69288771D01*
X29662182Y-69453074D01*
X29662185Y-69453086D01*
X29715810Y-69582548D01*
X29723279Y-69652017D01*
X29715810Y-69677452D01*
X29662185Y-69806913D01*
X29662182Y-69806925D01*
X29629500Y-69971228D01*
X29629500Y-70138765D01*
X29662016Y-70302240D01*
X29655788Y-70371831D01*
X29621147Y-70417823D01*
X29622057Y-70418733D01*
X29514181Y-70526609D01*
X29452858Y-70560094D01*
X29383166Y-70555110D01*
X29327233Y-70513238D01*
X29302816Y-70447774D01*
X29302500Y-70438928D01*
X29302500Y-65942437D01*
X29322185Y-65875398D01*
X29338819Y-65854756D01*
X30001756Y-65191819D01*
X30063079Y-65158334D01*
X30089437Y-65155500D01*
X31610563Y-65155500D01*
X31677602Y-65175185D01*
G37*
%TD.AperFunction*%
%TA.AperFunction,Conductor*%
G36*
X34244136Y-65151645D02*
G01*
X34274120Y-65158169D01*
X34279133Y-65161922D01*
X34281731Y-65162685D01*
X34302374Y-65179320D01*
X34333629Y-65210576D01*
X34333633Y-65210579D01*
X34333635Y-65210581D01*
X34475102Y-65294244D01*
X34516724Y-65306336D01*
X34632926Y-65340097D01*
X34632929Y-65340097D01*
X34632931Y-65340098D01*
X34669806Y-65343000D01*
X35597500Y-65343000D01*
X35606185Y-65345550D01*
X35615147Y-65344262D01*
X35639187Y-65355240D01*
X35664539Y-65362685D01*
X35670466Y-65369525D01*
X35678703Y-65373287D01*
X35692992Y-65395521D01*
X35710294Y-65415489D01*
X35712581Y-65426003D01*
X35716477Y-65432065D01*
X35721500Y-65467000D01*
X35721500Y-65518000D01*
X35701815Y-65585039D01*
X35649011Y-65630794D01*
X35597500Y-65642000D01*
X34669798Y-65642000D01*
X34632932Y-65644901D01*
X34632926Y-65644902D01*
X34475106Y-65690754D01*
X34475103Y-65690755D01*
X34333637Y-65774417D01*
X34333629Y-65774423D01*
X34302374Y-65805680D01*
X34275443Y-65820385D01*
X34249627Y-65836977D01*
X34243428Y-65837868D01*
X34241052Y-65839166D01*
X34214692Y-65842000D01*
X33974170Y-65842000D01*
X33974154Y-65841999D01*
X33966558Y-65841999D01*
X33808443Y-65841999D01*
X33808442Y-65841999D01*
X33776593Y-65850533D01*
X33706743Y-65848870D01*
X33648881Y-65809707D01*
X33621377Y-65745478D01*
X33620500Y-65730758D01*
X33620500Y-65324097D01*
X33640185Y-65257058D01*
X33656819Y-65236416D01*
X33713916Y-65179319D01*
X33775239Y-65145834D01*
X33801597Y-65143000D01*
X34214692Y-65143000D01*
X34244136Y-65151645D01*
G37*
%TD.AperFunction*%
%TA.AperFunction,Conductor*%
G36*
X63906899Y-43153348D02*
G01*
X63962832Y-43195220D01*
X63987249Y-43260684D01*
X63987056Y-43280748D01*
X63985000Y-43303384D01*
X63985000Y-43303392D01*
X63985000Y-43816613D01*
X63991413Y-43887192D01*
X63991413Y-43887194D01*
X63991414Y-43887196D01*
X64042022Y-44049606D01*
X64111699Y-44164866D01*
X64130030Y-44195188D01*
X64250311Y-44315469D01*
X64250313Y-44315470D01*
X64250315Y-44315472D01*
X64300150Y-44345598D01*
X64347338Y-44397126D01*
X64360000Y-44451715D01*
X64360000Y-44828284D01*
X64340315Y-44895323D01*
X64300152Y-44934400D01*
X64250311Y-44964530D01*
X64130030Y-45084811D01*
X64042022Y-45230393D01*
X63991413Y-45392807D01*
X63985000Y-45463386D01*
X63985000Y-45976613D01*
X63991413Y-46047192D01*
X63991413Y-46047194D01*
X63991414Y-46047196D01*
X64042022Y-46209606D01*
X64083056Y-46277485D01*
X64130030Y-46355188D01*
X64250311Y-46475469D01*
X64250313Y-46475470D01*
X64250315Y-46475472D01*
X64395894Y-46563478D01*
X64558304Y-46614086D01*
X64628884Y-46620500D01*
X64628887Y-46620500D01*
X65292113Y-46620500D01*
X65292116Y-46620500D01*
X65362696Y-46614086D01*
X65525106Y-46563478D01*
X65670685Y-46475472D01*
X65713640Y-46432517D01*
X65789339Y-46356819D01*
X65850662Y-46323334D01*
X65877020Y-46320500D01*
X66688831Y-46320500D01*
X66688847Y-46320501D01*
X66696443Y-46320501D01*
X66854554Y-46320501D01*
X66854557Y-46320501D01*
X67007285Y-46279577D01*
X67074968Y-46240500D01*
X67144216Y-46200520D01*
X67256020Y-46088716D01*
X67256020Y-46088714D01*
X67266222Y-46078513D01*
X67266226Y-46078508D01*
X67317918Y-46026817D01*
X67379242Y-45993333D01*
X67405598Y-45990500D01*
X67538000Y-45990500D01*
X67605039Y-46010185D01*
X67650794Y-46062989D01*
X67662000Y-46114500D01*
X67662000Y-51142402D01*
X67642315Y-51209441D01*
X67625681Y-51230083D01*
X66787584Y-52068181D01*
X66726261Y-52101666D01*
X66699903Y-52104500D01*
X65999602Y-52104500D01*
X65932563Y-52084815D01*
X65889117Y-52036795D01*
X65882284Y-52023385D01*
X65761971Y-51857786D01*
X65617213Y-51713028D01*
X65451613Y-51592715D01*
X65451612Y-51592714D01*
X65451610Y-51592713D01*
X65391898Y-51562288D01*
X65269223Y-51499781D01*
X65074534Y-51436522D01*
X64898503Y-51408642D01*
X64872352Y-51404500D01*
X64667648Y-51404500D01*
X64643329Y-51408351D01*
X64465465Y-51436522D01*
X64270776Y-51499781D01*
X64088386Y-51592715D01*
X63922786Y-51713028D01*
X63778028Y-51857786D01*
X63657715Y-52023386D01*
X63564781Y-52205776D01*
X63501522Y-52400465D01*
X63469500Y-52602648D01*
X63469500Y-52807351D01*
X63501522Y-53009534D01*
X63564781Y-53204223D01*
X63657715Y-53386613D01*
X63778028Y-53552213D01*
X63922782Y-53696967D01*
X63922787Y-53696971D01*
X64044198Y-53785181D01*
X64086864Y-53840510D01*
X64092843Y-53910124D01*
X64060238Y-53971919D01*
X63999399Y-54006276D01*
X63971313Y-54009499D01*
X63928943Y-54009499D01*
X63852579Y-54029961D01*
X63776214Y-54050423D01*
X63776209Y-54050426D01*
X63639290Y-54129475D01*
X63639282Y-54129481D01*
X62765481Y-55003282D01*
X62765480Y-55003284D01*
X62725545Y-55072454D01*
X62686423Y-55140215D01*
X62645499Y-55292943D01*
X62645499Y-55292945D01*
X62645499Y-55461046D01*
X62645500Y-55461059D01*
X62645500Y-58333330D01*
X62645499Y-58333348D01*
X62645499Y-58499054D01*
X62645498Y-58499054D01*
X62686424Y-58651789D01*
X62686425Y-58651790D01*
X62706340Y-58686283D01*
X62706341Y-58686284D01*
X62765477Y-58788712D01*
X62765481Y-58788717D01*
X62884349Y-58907585D01*
X62884354Y-58907589D01*
X63512284Y-59535520D01*
X63541349Y-59552300D01*
X63589565Y-59602866D01*
X63589835Y-59603393D01*
X63602888Y-59629011D01*
X63654519Y-59730342D01*
X63657715Y-59736613D01*
X63778028Y-59902213D01*
X63922786Y-60046971D01*
X64077749Y-60159556D01*
X64088390Y-60167287D01*
X64159001Y-60203265D01*
X64181080Y-60214515D01*
X64231876Y-60262490D01*
X64248671Y-60330311D01*
X64226134Y-60396446D01*
X64181080Y-60435485D01*
X64088386Y-60482715D01*
X63922786Y-60603028D01*
X63778028Y-60747786D01*
X63657715Y-60913386D01*
X63564781Y-61095776D01*
X63501522Y-61290465D01*
X63469500Y-61492648D01*
X63469500Y-61697351D01*
X63501522Y-61899534D01*
X63564781Y-62094223D01*
X63614143Y-62191100D01*
X63642621Y-62246991D01*
X63657715Y-62276613D01*
X63778028Y-62442213D01*
X63922786Y-62586971D01*
X64077749Y-62699556D01*
X64088390Y-62707287D01*
X64204607Y-62766503D01*
X64270776Y-62800218D01*
X64270778Y-62800218D01*
X64270781Y-62800220D01*
X64375137Y-62834127D01*
X64465465Y-62863477D01*
X64566557Y-62879488D01*
X64667648Y-62895500D01*
X64667649Y-62895500D01*
X64872351Y-62895500D01*
X64872352Y-62895500D01*
X65074534Y-62863477D01*
X65269219Y-62800220D01*
X65451610Y-62707287D01*
X65564466Y-62625293D01*
X65617213Y-62586971D01*
X65617215Y-62586968D01*
X65617219Y-62586966D01*
X65761966Y-62442219D01*
X65761968Y-62442215D01*
X65761971Y-62442213D01*
X65862455Y-62303906D01*
X65882287Y-62276610D01*
X65975220Y-62094219D01*
X66038477Y-61899534D01*
X66070500Y-61697352D01*
X66070500Y-61492648D01*
X66038477Y-61290466D01*
X65975220Y-61095781D01*
X65975218Y-61095778D01*
X65975218Y-61095776D01*
X65937470Y-61021692D01*
X65882287Y-60913390D01*
X65853156Y-60873294D01*
X65761971Y-60747786D01*
X65617213Y-60603028D01*
X65451614Y-60482715D01*
X65445006Y-60479348D01*
X65358917Y-60435483D01*
X65308123Y-60387511D01*
X65291328Y-60319690D01*
X65313865Y-60253555D01*
X65358917Y-60214516D01*
X65451610Y-60167287D01*
X65472784Y-60151903D01*
X65617213Y-60046971D01*
X65617215Y-60046968D01*
X65617219Y-60046966D01*
X65761966Y-59902219D01*
X65761968Y-59902215D01*
X65761971Y-59902213D01*
X65832636Y-59804949D01*
X65882287Y-59736610D01*
X65975220Y-59554219D01*
X66038477Y-59359534D01*
X66070500Y-59157352D01*
X66070500Y-58952648D01*
X66063363Y-58907585D01*
X66038477Y-58750465D01*
X65975218Y-58555776D01*
X65902032Y-58412142D01*
X65882287Y-58373390D01*
X65846253Y-58323793D01*
X65761971Y-58207786D01*
X65617219Y-58063034D01*
X65523547Y-57994978D01*
X65480882Y-57939649D01*
X65474903Y-57870036D01*
X65507508Y-57808240D01*
X65557426Y-57776955D01*
X65639334Y-57749814D01*
X65788656Y-57657712D01*
X65912712Y-57533656D01*
X66004814Y-57384334D01*
X66059999Y-57217797D01*
X66070500Y-57115009D01*
X66070499Y-56115095D01*
X66090183Y-56048057D01*
X66106813Y-56027420D01*
X69882321Y-52251913D01*
X69943642Y-52218430D01*
X70013334Y-52223414D01*
X70069267Y-52265286D01*
X70093684Y-52330750D01*
X70094000Y-52339596D01*
X70094000Y-59095270D01*
X70074315Y-59162309D01*
X70057681Y-59182951D01*
X64617451Y-64623181D01*
X64556128Y-64656666D01*
X64529770Y-64659500D01*
X53347730Y-64659500D01*
X53280691Y-64639815D01*
X53260049Y-64623181D01*
X53204157Y-64567289D01*
X53204156Y-64567288D01*
X53111388Y-64510069D01*
X53054836Y-64475187D01*
X53054831Y-64475185D01*
X53053362Y-64474698D01*
X52888297Y-64420001D01*
X52888295Y-64420000D01*
X52785510Y-64409500D01*
X51735498Y-64409500D01*
X51735480Y-64409501D01*
X51632703Y-64420000D01*
X51632700Y-64420001D01*
X51623030Y-64423206D01*
X51584026Y-64429500D01*
X48251852Y-64429500D01*
X48184813Y-64409815D01*
X48155247Y-64380590D01*
X48154172Y-64381467D01*
X48150195Y-64376590D01*
X48125785Y-64346653D01*
X48021609Y-64218890D01*
X47863909Y-64090304D01*
X47863910Y-64090304D01*
X47863907Y-64090302D01*
X47683549Y-63996091D01*
X47683548Y-63996090D01*
X47683545Y-63996089D01*
X47566329Y-63962550D01*
X47487918Y-63940114D01*
X47487915Y-63940113D01*
X47487913Y-63940113D01*
X47415131Y-63933642D01*
X47368537Y-63929500D01*
X47368533Y-63929500D01*
X46785000Y-63929500D01*
X46776314Y-63926949D01*
X46767353Y-63928238D01*
X46743312Y-63917259D01*
X46717961Y-63909815D01*
X46712033Y-63902974D01*
X46703797Y-63899213D01*
X46689507Y-63876978D01*
X46672206Y-63857011D01*
X46669918Y-63846496D01*
X46666023Y-63840435D01*
X46661000Y-63805500D01*
X46661000Y-63642604D01*
X46670439Y-63595151D01*
X46673073Y-63588792D01*
X46680237Y-63571497D01*
X46692239Y-63511160D01*
X46706731Y-63438308D01*
X46739116Y-63376397D01*
X46799832Y-63341823D01*
X46828348Y-63338500D01*
X52999331Y-63338500D01*
X52999347Y-63338501D01*
X53006943Y-63338501D01*
X53165054Y-63338501D01*
X53165057Y-63338501D01*
X53317785Y-63297577D01*
X53367904Y-63268639D01*
X53454716Y-63218520D01*
X53566520Y-63106716D01*
X53566520Y-63106714D01*
X53576728Y-63096507D01*
X53576729Y-63096504D01*
X55199523Y-61473711D01*
X57839500Y-61473711D01*
X57839500Y-61716288D01*
X57871161Y-61956785D01*
X57933947Y-62191104D01*
X57997576Y-62344717D01*
X58026776Y-62415212D01*
X58148064Y-62625289D01*
X58148066Y-62625292D01*
X58148067Y-62625293D01*
X58295733Y-62817736D01*
X58295739Y-62817743D01*
X58467256Y-62989260D01*
X58467262Y-62989265D01*
X58659711Y-63136936D01*
X58869788Y-63258224D01*
X59093900Y-63351054D01*
X59328211Y-63413838D01*
X59477440Y-63433484D01*
X59568711Y-63445500D01*
X59568712Y-63445500D01*
X59811289Y-63445500D01*
X59859388Y-63439167D01*
X60051789Y-63413838D01*
X60286100Y-63351054D01*
X60510212Y-63258224D01*
X60720289Y-63136936D01*
X60912738Y-62989265D01*
X61084265Y-62817738D01*
X61231936Y-62625289D01*
X61353224Y-62415212D01*
X61446054Y-62191100D01*
X61508838Y-61956789D01*
X61540500Y-61716288D01*
X61540500Y-61473712D01*
X61508838Y-61233211D01*
X61446054Y-60998900D01*
X61353224Y-60774788D01*
X61231936Y-60564711D01*
X61084265Y-60372262D01*
X61084260Y-60372256D01*
X60912743Y-60200739D01*
X60912736Y-60200733D01*
X60720293Y-60053067D01*
X60720292Y-60053066D01*
X60720289Y-60053064D01*
X60510212Y-59931776D01*
X60510205Y-59931773D01*
X60286104Y-59838947D01*
X60051785Y-59776161D01*
X59811289Y-59744500D01*
X59811288Y-59744500D01*
X59568712Y-59744500D01*
X59568711Y-59744500D01*
X59328214Y-59776161D01*
X59093895Y-59838947D01*
X58869794Y-59931773D01*
X58869785Y-59931777D01*
X58687851Y-60036817D01*
X58670265Y-60046971D01*
X58659706Y-60053067D01*
X58467263Y-60200733D01*
X58467256Y-60200739D01*
X58295739Y-60372256D01*
X58295733Y-60372263D01*
X58148067Y-60564706D01*
X58026777Y-60774785D01*
X58026773Y-60774794D01*
X57933947Y-60998895D01*
X57871161Y-61233214D01*
X57839500Y-61473711D01*
X55199523Y-61473711D01*
X60424520Y-56248716D01*
X60503577Y-56111784D01*
X60544501Y-55959057D01*
X60544501Y-55800942D01*
X60544501Y-55793347D01*
X60544500Y-55793329D01*
X60544500Y-48872560D01*
X60544501Y-48872547D01*
X60544501Y-48704444D01*
X60544501Y-48704443D01*
X60503577Y-48551716D01*
X60503573Y-48551709D01*
X60424524Y-48414790D01*
X60424518Y-48414782D01*
X58623822Y-46614086D01*
X56763915Y-44754180D01*
X56730431Y-44692858D01*
X56735415Y-44623166D01*
X56777287Y-44567233D01*
X56842751Y-44542816D01*
X56851597Y-44542500D01*
X62079831Y-44542500D01*
X62079847Y-44542501D01*
X62087443Y-44542501D01*
X62245554Y-44542501D01*
X62245557Y-44542501D01*
X62398285Y-44501577D01*
X62470620Y-44459814D01*
X62535216Y-44422520D01*
X62647020Y-44310716D01*
X62647020Y-44310714D01*
X62657224Y-44300511D01*
X62657228Y-44300506D01*
X63775886Y-43181847D01*
X63837207Y-43148364D01*
X63906899Y-43153348D01*
G37*
%TD.AperFunction*%
%TA.AperFunction,Conductor*%
G36*
X30283918Y-56775417D02*
G01*
X30312173Y-56796569D01*
X30425713Y-56910109D01*
X30597679Y-57035048D01*
X30597681Y-57035049D01*
X30597684Y-57035051D01*
X30787088Y-57131557D01*
X30989257Y-57197246D01*
X31199213Y-57230500D01*
X31199214Y-57230500D01*
X31411786Y-57230500D01*
X31411787Y-57230500D01*
X31621743Y-57197246D01*
X31823912Y-57131557D01*
X32013316Y-57035051D01*
X32099638Y-56972335D01*
X32185286Y-56910109D01*
X32185288Y-56910106D01*
X32185292Y-56910104D01*
X32213583Y-56881813D01*
X32274906Y-56848328D01*
X32344598Y-56853312D01*
X32388945Y-56881813D01*
X32677681Y-57170549D01*
X32711166Y-57231872D01*
X32714000Y-57258230D01*
X32714000Y-59255918D01*
X32714000Y-59255920D01*
X32713999Y-59255920D01*
X32742840Y-59400907D01*
X32742843Y-59400917D01*
X32799414Y-59537492D01*
X32824509Y-59575049D01*
X32824510Y-59575052D01*
X32881546Y-59660414D01*
X32881552Y-59660421D01*
X34130952Y-60909819D01*
X34164437Y-60971142D01*
X34159453Y-61040833D01*
X34117582Y-61096767D01*
X34052117Y-61121184D01*
X34043271Y-61121500D01*
X33510598Y-61121500D01*
X33443559Y-61101815D01*
X33422917Y-61085181D01*
X32936090Y-60598355D01*
X32936088Y-60598352D01*
X32817217Y-60479481D01*
X32817216Y-60479480D01*
X32799151Y-60469050D01*
X32739481Y-60434600D01*
X32739478Y-60434599D01*
X32730404Y-60429360D01*
X32680285Y-60400423D01*
X32561036Y-60368470D01*
X32555613Y-60366460D01*
X32532049Y-60348897D01*
X32506948Y-60333597D01*
X32502095Y-60326571D01*
X32499592Y-60324706D01*
X32498146Y-60320854D01*
X32488219Y-60306483D01*
X32460552Y-60252185D01*
X32460551Y-60252184D01*
X32335609Y-60080213D01*
X32185286Y-59929890D01*
X32013320Y-59804951D01*
X31823914Y-59708444D01*
X31823913Y-59708443D01*
X31823912Y-59708443D01*
X31621743Y-59642754D01*
X31621741Y-59642753D01*
X31621740Y-59642753D01*
X31460457Y-59617208D01*
X31411787Y-59609500D01*
X31199213Y-59609500D01*
X31150542Y-59617208D01*
X30989260Y-59642753D01*
X30787085Y-59708444D01*
X30597679Y-59804951D01*
X30425713Y-59929890D01*
X30275390Y-60080213D01*
X30150449Y-60252182D01*
X30145984Y-60260946D01*
X30098009Y-60311742D01*
X30030188Y-60328536D01*
X29964053Y-60305998D01*
X29925016Y-60260946D01*
X29920550Y-60252182D01*
X29795609Y-60080213D01*
X29645286Y-59929890D01*
X29473320Y-59804951D01*
X29472615Y-59804591D01*
X29464554Y-59800485D01*
X29413759Y-59752512D01*
X29396963Y-59684692D01*
X29419499Y-59618556D01*
X29464554Y-59579515D01*
X29473316Y-59575051D01*
X29496840Y-59557960D01*
X29645286Y-59450109D01*
X29645288Y-59450106D01*
X29645292Y-59450104D01*
X29795604Y-59299792D01*
X29795606Y-59299788D01*
X29795609Y-59299786D01*
X29920548Y-59127820D01*
X29920547Y-59127820D01*
X29920551Y-59127816D01*
X30017057Y-58938412D01*
X30082746Y-58736243D01*
X30116000Y-58526287D01*
X30116000Y-58313713D01*
X30082746Y-58103757D01*
X30017057Y-57901588D01*
X29920551Y-57712184D01*
X29920549Y-57712181D01*
X29920548Y-57712179D01*
X29795609Y-57540213D01*
X29682069Y-57426673D01*
X29648584Y-57365350D01*
X29653568Y-57295658D01*
X29695440Y-57239725D01*
X29726415Y-57222810D01*
X29857831Y-57173796D01*
X29973046Y-57087546D01*
X30059296Y-56972331D01*
X30108310Y-56840916D01*
X30150181Y-56784984D01*
X30215645Y-56760566D01*
X30283918Y-56775417D01*
G37*
%TD.AperFunction*%
%TA.AperFunction,Conductor*%
G36*
X34598861Y-51886836D02*
G01*
X34635581Y-51946278D01*
X34640000Y-51979086D01*
X34640000Y-52567870D01*
X34640001Y-52567876D01*
X34646408Y-52627481D01*
X34659159Y-52661669D01*
X34664142Y-52731361D01*
X34659159Y-52748331D01*
X34646408Y-52782518D01*
X34641039Y-52832461D01*
X34640001Y-52842123D01*
X34640000Y-52842135D01*
X34640000Y-53837870D01*
X34640001Y-53837876D01*
X34646408Y-53897481D01*
X34659159Y-53931669D01*
X34660665Y-53952736D01*
X34666958Y-53972897D01*
X34663533Y-53992847D01*
X34664142Y-54001361D01*
X34662528Y-54007912D01*
X34661070Y-54013205D01*
X34646409Y-54052517D01*
X34643948Y-54075400D01*
X34641284Y-54085080D01*
X34627966Y-54106595D01*
X34618282Y-54129976D01*
X34609414Y-54139848D01*
X34507981Y-54241283D01*
X34507980Y-54241284D01*
X34253981Y-54495282D01*
X34253979Y-54495284D01*
X34240695Y-54518294D01*
X34226715Y-54542509D01*
X34174923Y-54632215D01*
X34133999Y-54784943D01*
X34133999Y-54784945D01*
X34133999Y-54953046D01*
X34134000Y-54953059D01*
X34134000Y-56204770D01*
X34114315Y-56271809D01*
X34061511Y-56317564D01*
X33992353Y-56327508D01*
X33928797Y-56298483D01*
X33922319Y-56292451D01*
X32926913Y-55297045D01*
X32871191Y-55259815D01*
X32844855Y-55242218D01*
X32803995Y-55214916D01*
X32803994Y-55214915D01*
X32803992Y-55214914D01*
X32803990Y-55214913D01*
X32667417Y-55158343D01*
X32667407Y-55158340D01*
X32522420Y-55129500D01*
X32522418Y-55129500D01*
X32492721Y-55129500D01*
X32425682Y-55109815D01*
X32392403Y-55078385D01*
X32335607Y-55000211D01*
X32185295Y-54849899D01*
X32185292Y-54849896D01*
X32185288Y-54849893D01*
X32184178Y-54848945D01*
X32183871Y-54848475D01*
X32181847Y-54846451D01*
X32182272Y-54846025D01*
X32145985Y-54790438D01*
X32143095Y-54778857D01*
X32123316Y-54679418D01*
X32074992Y-54562754D01*
X32059204Y-54524637D01*
X31968119Y-54388321D01*
X31966638Y-54385866D01*
X31958448Y-54354739D01*
X31948830Y-54324023D01*
X31949614Y-54321163D01*
X31948860Y-54318296D01*
X31958799Y-54287680D01*
X31967314Y-54256642D01*
X31969668Y-54254201D01*
X31970435Y-54251841D01*
X31977612Y-54245969D01*
X32003918Y-54218706D01*
X32090169Y-54161076D01*
X32180776Y-54070469D01*
X32251965Y-53963927D01*
X32301001Y-53845544D01*
X32326000Y-53719869D01*
X32326000Y-53688732D01*
X32345685Y-53621693D01*
X32398489Y-53575938D01*
X32410995Y-53571026D01*
X32444834Y-53559814D01*
X32594156Y-53467712D01*
X32718212Y-53343656D01*
X32810314Y-53194334D01*
X32865499Y-53027797D01*
X32876000Y-52925009D01*
X32876000Y-52899500D01*
X32895685Y-52832461D01*
X32948489Y-52786706D01*
X33000000Y-52775500D01*
X33337996Y-52775500D01*
X33429040Y-52757389D01*
X33473328Y-52748580D01*
X33578540Y-52705000D01*
X33600807Y-52695777D01*
X33600808Y-52695776D01*
X33600811Y-52695775D01*
X33715543Y-52619114D01*
X34389614Y-51945043D01*
X34412897Y-51910196D01*
X34466508Y-51865391D01*
X34535833Y-51856682D01*
X34598861Y-51886836D01*
G37*
%TD.AperFunction*%
%TA.AperFunction,Conductor*%
G36*
X33096019Y-47710185D02*
G01*
X33116661Y-47726819D01*
X33135311Y-47745469D01*
X33135313Y-47745470D01*
X33135315Y-47745472D01*
X33280894Y-47833478D01*
X33443304Y-47884086D01*
X33513884Y-47890500D01*
X33513887Y-47890500D01*
X34177113Y-47890500D01*
X34177116Y-47890500D01*
X34247696Y-47884086D01*
X34410106Y-47833478D01*
X34451850Y-47808242D01*
X34519404Y-47790406D01*
X34585878Y-47811923D01*
X34630166Y-47865963D01*
X34640000Y-47914359D01*
X34640000Y-48757870D01*
X34640001Y-48757876D01*
X34646408Y-48817481D01*
X34659159Y-48851669D01*
X34664142Y-48921361D01*
X34659159Y-48938331D01*
X34646408Y-48972518D01*
X34645358Y-48982288D01*
X34640001Y-49032123D01*
X34640000Y-49032135D01*
X34640000Y-49481267D01*
X34620315Y-49548306D01*
X34567511Y-49594061D01*
X34498353Y-49604005D01*
X34450903Y-49586806D01*
X34404199Y-49557998D01*
X34404194Y-49557996D01*
X34243209Y-49504651D01*
X34143846Y-49494500D01*
X33547162Y-49494500D01*
X33547144Y-49494501D01*
X33447792Y-49504650D01*
X33447789Y-49504651D01*
X33286805Y-49557996D01*
X33286794Y-49558001D01*
X33142459Y-49647029D01*
X33087753Y-49701735D01*
X33026429Y-49735219D01*
X32956737Y-49730234D01*
X32912391Y-49701734D01*
X32412319Y-49201662D01*
X32378834Y-49140339D01*
X32376000Y-49113981D01*
X32376000Y-47814500D01*
X32395685Y-47747461D01*
X32448489Y-47701706D01*
X32500000Y-47690500D01*
X33028980Y-47690500D01*
X33096019Y-47710185D01*
G37*
%TD.AperFunction*%
%TD*%
M02*
