%TF.GenerationSoftware,KiCad,Pcbnew,9.0.8-9.0.8~ubuntu24.04.1*%
%TF.CreationDate,2026-04-13T12:47:46+03:00*%
%TF.ProjectId,sn,736e2e6b-6963-4616-945f-706362585858,rev?*%
%TF.SameCoordinates,Original*%
%TF.FileFunction,Copper,L2,Bot*%
%TF.FilePolarity,Positive*%
%FSLAX46Y46*%
G04 Gerber Fmt 4.6, Leading zero omitted, Abs format (unit mm)*
G04 Created by KiCad (PCBNEW 9.0.8-9.0.8~ubuntu24.04.1) date 2026-04-13 12:47:46*
%MOMM*%
%LPD*%
G01*
G04 APERTURE LIST*
G04 Aperture macros list*
%AMRoundRect*
0 Rectangle with rounded corners*
0 $1 Rounding radius*
0 $2 $3 $4 $5 $6 $7 $8 $9 X,Y pos of 4 corners*
0 Add a 4 corners polygon primitive as box body*
4,1,4,$2,$3,$4,$5,$6,$7,$8,$9,$2,$3,0*
0 Add four circle primitives for the rounded corners*
1,1,$1+$1,$2,$3*
1,1,$1+$1,$4,$5*
1,1,$1+$1,$6,$7*
1,1,$1+$1,$8,$9*
0 Add four rect primitives between the rounded corners*
20,1,$1+$1,$2,$3,$4,$5,0*
20,1,$1+$1,$4,$5,$6,$7,0*
20,1,$1+$1,$6,$7,$8,$9,0*
20,1,$1+$1,$8,$9,$2,$3,0*%
G04 Aperture macros list end*
%TA.AperFunction,ComponentPad*%
%ADD10O,1.700000X0.900000*%
%TD*%
%TA.AperFunction,ComponentPad*%
%ADD11O,2.400000X0.900000*%
%TD*%
%TA.AperFunction,ComponentPad*%
%ADD12C,0.700000*%
%TD*%
%TA.AperFunction,HeatsinkPad*%
%ADD13C,0.600000*%
%TD*%
%TA.AperFunction,ComponentPad*%
%ADD14RoundRect,0.250000X0.550000X0.550000X-0.550000X0.550000X-0.550000X-0.550000X0.550000X-0.550000X0*%
%TD*%
%TA.AperFunction,ComponentPad*%
%ADD15C,1.600000*%
%TD*%
%TA.AperFunction,ComponentPad*%
%ADD16RoundRect,0.249999X0.850001X0.850001X-0.850001X0.850001X-0.850001X-0.850001X0.850001X-0.850001X0*%
%TD*%
%TA.AperFunction,ComponentPad*%
%ADD17C,2.200000*%
%TD*%
%TA.AperFunction,ComponentPad*%
%ADD18R,1.700000X1.700000*%
%TD*%
%TA.AperFunction,ComponentPad*%
%ADD19O,1.700000X1.700000*%
%TD*%
%TA.AperFunction,ComponentPad*%
%ADD20RoundRect,0.250000X-1.050000X-1.050000X1.050000X-1.050000X1.050000X1.050000X-1.050000X1.050000X0*%
%TD*%
%TA.AperFunction,ComponentPad*%
%ADD21C,2.600000*%
%TD*%
%TA.AperFunction,ComponentPad*%
%ADD22R,3.000000X3.000000*%
%TD*%
%TA.AperFunction,ComponentPad*%
%ADD23C,3.000000*%
%TD*%
%TA.AperFunction,ComponentPad*%
%ADD24RoundRect,0.250000X-0.550000X-0.550000X0.550000X-0.550000X0.550000X0.550000X-0.550000X0.550000X0*%
%TD*%
%TA.AperFunction,ComponentPad*%
%ADD25RoundRect,0.250000X1.050000X1.050000X-1.050000X1.050000X-1.050000X-1.050000X1.050000X-1.050000X0*%
%TD*%
%TA.AperFunction,ComponentPad*%
%ADD26R,2.000000X1.905000*%
%TD*%
%TA.AperFunction,ComponentPad*%
%ADD27O,2.000000X1.905000*%
%TD*%
%TA.AperFunction,ViaPad*%
%ADD28C,0.600000*%
%TD*%
%TA.AperFunction,ViaPad*%
%ADD29C,0.300000*%
%TD*%
%TA.AperFunction,ViaPad*%
%ADD30C,2.000000*%
%TD*%
%TA.AperFunction,Conductor*%
%ADD31C,1.000000*%
%TD*%
%TA.AperFunction,Conductor*%
%ADD32C,0.200000*%
%TD*%
%TA.AperFunction,Conductor*%
%ADD33C,0.500000*%
%TD*%
G04 APERTURE END LIST*
D10*
%TO.P,J3,S1,SHIELD*%
%TO.N,GND*%
X27470000Y-73955000D03*
D11*
X30850000Y-73955000D03*
D10*
X27470000Y-65305000D03*
D11*
X30850000Y-65305000D03*
D12*
%TO.P,J3,B12,GND*%
X30480000Y-66655000D03*
%TO.P,J3,B9,VBUS*%
%TO.N,Net-(F1-Pad1)*%
X30480000Y-67505000D03*
%TO.P,J3,B8,SBU2*%
%TO.N,unconnected-(J3-SBU2-PadB8)*%
X30480000Y-68355000D03*
%TO.P,J3,B7,D-*%
%TO.N,/D-*%
X30480000Y-69205000D03*
%TO.P,J3,B6,D+*%
%TO.N,/D+*%
X30480000Y-70055000D03*
%TO.P,J3,B5,CC2*%
%TO.N,/CC2*%
X30480000Y-70905000D03*
%TO.P,J3,B4,VBUS*%
%TO.N,Net-(F1-Pad1)*%
X30480000Y-71755000D03*
%TO.P,J3,B1,GND*%
%TO.N,GND*%
X30480000Y-72605000D03*
%TO.P,J3,A12,GND*%
X31830000Y-72605000D03*
%TO.P,J3,A9,VBUS*%
%TO.N,Net-(F1-Pad1)*%
X31830000Y-71755000D03*
%TO.P,J3,A8,SBU1*%
%TO.N,unconnected-(J3-SBU1-PadA8)*%
X31830000Y-70905000D03*
%TO.P,J3,A7,D-*%
%TO.N,/D-*%
X31830000Y-70055000D03*
%TO.P,J3,A6,D+*%
%TO.N,/D+*%
X31830000Y-69205000D03*
%TO.P,J3,A5,CC1*%
%TO.N,/CC1*%
X31830000Y-68355000D03*
%TO.P,J3,A4,VBUS*%
%TO.N,Net-(F1-Pad1)*%
X31830000Y-67505000D03*
%TO.P,J3,A1,GND*%
%TO.N,GND*%
X31830000Y-66655000D03*
%TD*%
D13*
%TO.P,U2,41,GND*%
%TO.N,GND*%
X44540500Y-47790000D03*
X44540500Y-46390000D03*
X43840500Y-48490000D03*
X43840500Y-47090000D03*
X43840500Y-45690000D03*
X43140500Y-47790000D03*
X43140500Y-46390000D03*
X42440500Y-48490000D03*
X42440500Y-47090000D03*
X42440500Y-45690000D03*
X41740500Y-47790000D03*
X41740500Y-46390000D03*
%TD*%
D14*
%TO.P,U1,1*%
%TO.N,Net-(R1-Pad1)*%
X72390000Y-52705000D03*
D15*
%TO.P,U1,2*%
%TO.N,Net-(R2-Pad1)*%
X72390000Y-50165000D03*
%TO.P,U1,3*%
%TO.N,GND*%
X64770000Y-50165000D03*
%TO.P,U1,4*%
%TO.N,/LTV_OUT*%
X64770000Y-52705000D03*
%TD*%
%TO.P,R3,1*%
%TO.N,Net-(R3-Pad1)*%
X80010000Y-53975000D03*
%TO.P,R3,2*%
%TO.N,/AC_N*%
X80010000Y-64135000D03*
%TD*%
D16*
%TO.P,D3,1,K*%
%TO.N,5V*%
X47815500Y-80010000D03*
D17*
%TO.P,D3,2,A*%
%TO.N,Net-(C2-+)*%
X37655500Y-80010000D03*
%TD*%
D18*
%TO.P,J4,1,+12V*%
%TO.N,/ESP_EN*%
X28765500Y-55880000D03*
D19*
%TO.P,J4,2,+12V*%
%TO.N,3.3V*%
X31305500Y-55880000D03*
%TO.P,J4,3,GND*%
%TO.N,/TX*%
X28765500Y-58420000D03*
%TO.P,J4,4,GND*%
%TO.N,GND*%
X31305500Y-58420000D03*
%TO.P,J4,5,GND*%
%TO.N,/RX*%
X28765500Y-60960000D03*
%TO.P,J4,6,GND*%
%TO.N,/ESP_IO0*%
X31305500Y-60960000D03*
%TD*%
D20*
%TO.P,J2,1,Pin_1*%
%TO.N,/AC_L*%
X57825000Y-106217500D03*
D21*
%TO.P,J2,2,Pin_2*%
%TO.N,Net-(J2-Pin_2)*%
X62825000Y-106217500D03*
%TD*%
D15*
%TO.P,R1,1*%
%TO.N,Net-(R1-Pad1)*%
X75565000Y-53975000D03*
%TO.P,R1,2*%
%TO.N,/AC_N*%
X75565000Y-64135000D03*
%TD*%
D22*
%TO.P,PS1,1,AC/N*%
%TO.N,/AC_N*%
X80875000Y-69107500D03*
D23*
%TO.P,PS1,2,AC/L*%
%TO.N,/AC_L*%
X70125000Y-69107500D03*
%TO.P,PS1,3,-Vo*%
%TO.N,GND*%
X70125000Y-107607500D03*
%TO.P,PS1,4,+Vo*%
%TO.N,Net-(C2-+)*%
X78125000Y-107607500D03*
%TD*%
D24*
%TO.P,U3,1*%
%TO.N,Net-(R9-Pad1)*%
X64770000Y-56515000D03*
D15*
%TO.P,U3,2*%
%TO.N,Net-(Q2-C)*%
X64770000Y-59055000D03*
%TO.P,U3,3,NC*%
%TO.N,unconnected-(U3-NC-Pad3)*%
X64770000Y-61595000D03*
%TO.P,U3,4*%
%TO.N,Net-(Q1-G)*%
X72390000Y-61595000D03*
%TO.P,U3,5,NC*%
%TO.N,unconnected-(U3-NC-Pad5)*%
X72390000Y-59055000D03*
%TO.P,U3,6*%
%TO.N,Net-(R3-Pad1)*%
X72390000Y-56515000D03*
%TD*%
%TO.P,R12,1*%
%TO.N,Net-(J2-Pin_2)*%
X83820000Y-53975000D03*
%TO.P,R12,2*%
%TO.N,Net-(Q1-G)*%
X83820000Y-64135000D03*
%TD*%
D25*
%TO.P,J1,1,Pin_1*%
%TO.N,/AC_N*%
X82470000Y-43180000D03*
D21*
%TO.P,J1,2,Pin_2*%
%TO.N,/AC_L*%
X77470000Y-43180000D03*
%TD*%
D15*
%TO.P,R2,1*%
%TO.N,Net-(R2-Pad1)*%
X75565000Y-51435000D03*
%TO.P,R2,2*%
%TO.N,/AC_L*%
X85725000Y-51435000D03*
%TD*%
D16*
%TO.P,D1,1,K*%
%TO.N,5V*%
X47815500Y-75565000D03*
D17*
%TO.P,D1,2,A*%
%TO.N,Net-(D1-A)*%
X37655500Y-75565000D03*
%TD*%
D26*
%TO.P,Q1,1,A1*%
%TO.N,Net-(J2-Pin_2)*%
X90170000Y-55245000D03*
D27*
%TO.P,Q1,2,A2*%
%TO.N,/AC_N*%
X90170000Y-57785000D03*
%TO.P,Q1,3,G*%
%TO.N,Net-(Q1-G)*%
X90170000Y-60325000D03*
%TD*%
D28*
%TO.N,GND*%
X33900000Y-65475000D03*
X63628241Y-69111831D03*
X44937200Y-95077600D03*
X33416800Y-83565600D03*
X51917600Y-104394000D03*
X41357456Y-92517985D03*
X28935200Y-98836800D03*
X38028400Y-94468000D03*
X27876800Y-91895600D03*
X31840000Y-94630000D03*
X64190400Y-88524400D03*
D29*
X34284500Y-58420000D03*
D28*
X62890400Y-88544400D03*
X56997600Y-98552000D03*
X57556400Y-68986400D03*
X40150000Y-96870000D03*
X39130000Y-109800000D03*
X42657456Y-92497985D03*
X53065200Y-107015600D03*
X43080000Y-101100000D03*
X27506800Y-96455600D03*
X58297600Y-98532000D03*
X36750000Y-101290000D03*
X51917600Y-100990400D03*
X67310000Y-61264800D03*
X31627600Y-85628800D03*
X54406800Y-88544400D03*
X51765200Y-107035600D03*
X30327600Y-85648800D03*
X51968400Y-95961200D03*
X36728400Y-94488000D03*
X53268400Y-95941200D03*
X27635200Y-98856800D03*
X33304000Y-98836800D03*
X67310000Y-57150000D03*
X33366800Y-96495600D03*
X62941200Y-93624400D03*
X30116800Y-96495600D03*
X33140000Y-94610000D03*
X37220000Y-96960000D03*
X51917600Y-93929200D03*
X64800000Y-98278000D03*
X53217600Y-98684400D03*
X42380000Y-109800000D03*
X64241200Y-93604400D03*
X30946800Y-87935600D03*
X41178000Y-107472800D03*
X33304000Y-101681600D03*
X33556800Y-91755600D03*
X36890000Y-105200000D03*
X28986000Y-79482000D03*
X29138400Y-101681600D03*
X36728400Y-90982800D03*
X53217600Y-104374000D03*
X55706800Y-88524400D03*
X39878000Y-107492800D03*
X28206800Y-83655600D03*
X34066800Y-87795600D03*
X27736800Y-87985600D03*
X39960000Y-101240000D03*
X63500000Y-98298000D03*
X42570000Y-105060000D03*
X40240000Y-104920000D03*
X27838400Y-101701600D03*
X42430000Y-96870000D03*
X32004000Y-101701600D03*
X51917600Y-98704400D03*
X36520000Y-109760000D03*
X31136800Y-83565600D03*
X32004000Y-98856800D03*
X31226800Y-91615600D03*
X27686000Y-79502000D03*
X53217600Y-100970400D03*
X62328241Y-69131831D03*
X58856400Y-68966400D03*
X38028400Y-90962800D03*
X43637200Y-95097600D03*
X53217600Y-93909200D03*
D29*
%TO.N,/ESP_EN*%
X28905200Y-54102000D03*
X31675500Y-53655800D03*
D28*
%TO.N,3.3V*%
X45910500Y-61122000D03*
X45910500Y-63338000D03*
D30*
%TO.N,Net-(J2-Pin_2)*%
X77470000Y-73660000D03*
X71882000Y-79502000D03*
D29*
%TO.N,/ESD_D+*%
X35242500Y-58928000D03*
X36766500Y-63188000D03*
%TO.N,/ESP_D-*%
X34734500Y-58928000D03*
X36196250Y-63188000D03*
%TD*%
D31*
%TO.N,Net-(Q1-G)*%
X81661000Y-66294000D02*
X87503000Y-60452000D01*
X72390000Y-61595000D02*
X72390000Y-63754000D01*
X90043000Y-60452000D02*
X90170000Y-60325000D01*
X72390000Y-63754000D02*
X74930000Y-66294000D01*
X87503000Y-60452000D02*
X90043000Y-60452000D01*
X74930000Y-66294000D02*
X81661000Y-66294000D01*
D32*
%TO.N,Net-(R1-Pad1)*%
X72390000Y-52705000D02*
X72517000Y-52832000D01*
D31*
X74422000Y-52832000D02*
X75565000Y-53975000D01*
X72517000Y-52832000D02*
X74422000Y-52832000D01*
D32*
%TO.N,Net-(R2-Pad1)*%
X72390000Y-50165000D02*
X72517000Y-50292000D01*
D31*
X72517000Y-50292000D02*
X74422000Y-50292000D01*
X74422000Y-50292000D02*
X75565000Y-51435000D01*
%TO.N,Net-(R3-Pad1)*%
X76073000Y-56515000D02*
X78486000Y-54102000D01*
X79883000Y-54102000D02*
X80010000Y-53975000D01*
X78486000Y-54102000D02*
X79883000Y-54102000D01*
X72390000Y-56515000D02*
X76073000Y-56515000D01*
D32*
%TO.N,GND*%
X31305500Y-58420000D02*
X34284500Y-58420000D01*
%TO.N,/ESP_EN*%
X29159200Y-53848000D02*
X28905200Y-54102000D01*
X31483300Y-53848000D02*
X29159200Y-53848000D01*
X31675500Y-53655800D02*
X31483300Y-53848000D01*
D31*
%TO.N,/AC_N*%
X91948000Y-58674000D02*
X91059000Y-57785000D01*
X75438000Y-40640000D02*
X74422000Y-41656000D01*
X84308500Y-69107500D02*
X91948000Y-61468000D01*
D32*
X80875000Y-67921000D02*
X80875000Y-69107500D01*
D31*
X79655000Y-40640000D02*
X75438000Y-40640000D01*
X82470000Y-43180000D02*
X82195000Y-43180000D01*
X80010000Y-64135000D02*
X80010000Y-64008000D01*
X82042000Y-55118000D02*
X82042000Y-57785000D01*
X80875000Y-69107500D02*
X84308500Y-69107500D01*
X82042000Y-57785000D02*
X90170000Y-57785000D01*
X80010000Y-64008000D02*
X82042000Y-61976000D01*
X91059000Y-57785000D02*
X90170000Y-57785000D01*
X82042000Y-61976000D02*
X82042000Y-55118000D01*
X82195000Y-43180000D02*
X79655000Y-40640000D01*
X76327000Y-64262000D02*
X79883000Y-64262000D01*
X91948000Y-61468000D02*
X91948000Y-58674000D01*
X79883000Y-64262000D02*
X80010000Y-64135000D01*
X74422000Y-45720000D02*
X82042000Y-53340000D01*
X76200000Y-64135000D02*
X76327000Y-64262000D01*
X82042000Y-53340000D02*
X82042000Y-55118000D01*
D32*
X86995000Y-57785000D02*
X90170000Y-57785000D01*
D31*
X74422000Y-41656000D02*
X74422000Y-45720000D01*
%TO.N,/AC_L*%
X76454000Y-77978000D02*
X89154000Y-77978000D01*
X85725000Y-51435000D02*
X77470000Y-43180000D01*
X89154000Y-77978000D02*
X94885000Y-72247000D01*
X76454000Y-100076000D02*
X81788000Y-105410000D01*
X70125000Y-71649000D02*
X70125000Y-69107500D01*
X81788000Y-109220000D02*
X80113000Y-110895000D01*
X60603000Y-110895000D02*
X57825000Y-108117000D01*
X76454000Y-89662000D02*
X76454000Y-100076000D01*
X76454000Y-78140000D02*
X76454000Y-77978000D01*
X91964000Y-51435000D02*
X85725000Y-51435000D01*
X85725000Y-51435000D02*
X85852000Y-51562000D01*
X80113000Y-110895000D02*
X60603000Y-110895000D01*
X81788000Y-105410000D02*
X81788000Y-109220000D01*
X76454000Y-89662000D02*
X76454000Y-78140000D01*
X57825000Y-108117000D02*
X57825000Y-106217500D01*
X94885000Y-72247000D02*
X94885000Y-54356000D01*
X76454000Y-89662000D02*
X76454000Y-88138000D01*
X76454000Y-77978000D02*
X70125000Y-71649000D01*
X94885000Y-54356000D02*
X91964000Y-51435000D01*
D32*
%TO.N,3.3V*%
X45910500Y-63338000D02*
X45910500Y-63543600D01*
D33*
X45910500Y-61122000D02*
X45910500Y-63338000D01*
D31*
%TO.N,Net-(J2-Pin_2)*%
X90170000Y-73660000D02*
X93472000Y-70358000D01*
X93472000Y-57912000D02*
X90805000Y-55245000D01*
X64978500Y-106217500D02*
X62825000Y-106217500D01*
X71882000Y-79502000D02*
X71882000Y-99314000D01*
X84963000Y-55118000D02*
X90043000Y-55118000D01*
X93472000Y-70358000D02*
X93472000Y-57912000D01*
X90805000Y-55245000D02*
X90170000Y-55245000D01*
X71882000Y-99314000D02*
X64978500Y-106217500D01*
X90043000Y-55118000D02*
X90170000Y-55245000D01*
X77470000Y-73660000D02*
X90170000Y-73660000D01*
X83820000Y-53975000D02*
X84963000Y-55118000D01*
D32*
%TO.N,/ESD_D+*%
X35242500Y-61468000D02*
X35242500Y-58928000D01*
X36766500Y-62992000D02*
X35242500Y-61468000D01*
X36766500Y-63188000D02*
X36766500Y-62992000D01*
%TO.N,/ESP_D-*%
X34734500Y-61722000D02*
X34734500Y-58928000D01*
X36196250Y-63183750D02*
X34734500Y-61722000D01*
X36196250Y-63188000D02*
X36196250Y-63183750D01*
%TD*%
%TA.AperFunction,Conductor*%
%TO.N,GND*%
G36*
X68243039Y-38754685D02*
G01*
X68288794Y-38807489D01*
X68300000Y-38859000D01*
X68300000Y-64011000D01*
X68280315Y-64078039D01*
X68227511Y-64123794D01*
X68176000Y-64135000D01*
X65659000Y-64135000D01*
X65659000Y-101292664D01*
X65639315Y-101359703D01*
X65620280Y-101382682D01*
X63281870Y-103598018D01*
X63219665Y-103629834D01*
X63196590Y-103632000D01*
X56388000Y-103632000D01*
X56388000Y-104455215D01*
X56368315Y-104522254D01*
X56329098Y-104560753D01*
X56306344Y-104574787D01*
X56182289Y-104698842D01*
X56090187Y-104848163D01*
X56090185Y-104848168D01*
X56062349Y-104932170D01*
X56035001Y-105014703D01*
X56035001Y-105014704D01*
X56035000Y-105014704D01*
X56024500Y-105117483D01*
X56024500Y-107317501D01*
X56024501Y-107317518D01*
X56035000Y-107420296D01*
X56035001Y-107420299D01*
X56079540Y-107554706D01*
X56090186Y-107586834D01*
X56170949Y-107717773D01*
X56182289Y-107736157D01*
X56306345Y-107860213D01*
X56329094Y-107874244D01*
X56375820Y-107926190D01*
X56388000Y-107979784D01*
X56388000Y-111770500D01*
X56368315Y-111837539D01*
X56315511Y-111883294D01*
X56264000Y-111894500D01*
X26024500Y-111894500D01*
X25957461Y-111874815D01*
X25911706Y-111822011D01*
X25900500Y-111770500D01*
X25900500Y-108463711D01*
X27359500Y-108463711D01*
X27359500Y-108706288D01*
X27391161Y-108946785D01*
X27453947Y-109181104D01*
X27546773Y-109405205D01*
X27546776Y-109405212D01*
X27668064Y-109615289D01*
X27668066Y-109615292D01*
X27668067Y-109615293D01*
X27815733Y-109807736D01*
X27815739Y-109807743D01*
X27987256Y-109979260D01*
X27987262Y-109979265D01*
X28179711Y-110126936D01*
X28389788Y-110248224D01*
X28613900Y-110341054D01*
X28848211Y-110403838D01*
X29028586Y-110427584D01*
X29088711Y-110435500D01*
X29088712Y-110435500D01*
X29331289Y-110435500D01*
X29379388Y-110429167D01*
X29571789Y-110403838D01*
X29806100Y-110341054D01*
X30030212Y-110248224D01*
X30240289Y-110126936D01*
X30432738Y-109979265D01*
X30604265Y-109807738D01*
X30751936Y-109615289D01*
X30873224Y-109405212D01*
X30966054Y-109181100D01*
X31028838Y-108946789D01*
X31060500Y-108706288D01*
X31060500Y-108463712D01*
X31028838Y-108223211D01*
X30966054Y-107988900D01*
X30873224Y-107764788D01*
X30751936Y-107554711D01*
X30604265Y-107362262D01*
X30604260Y-107362256D01*
X30432743Y-107190739D01*
X30432736Y-107190733D01*
X30240293Y-107043067D01*
X30240292Y-107043066D01*
X30240289Y-107043064D01*
X30030212Y-106921776D01*
X30030205Y-106921773D01*
X29806104Y-106828947D01*
X29571785Y-106766161D01*
X29331289Y-106734500D01*
X29331288Y-106734500D01*
X29088712Y-106734500D01*
X29088711Y-106734500D01*
X28848214Y-106766161D01*
X28613895Y-106828947D01*
X28389794Y-106921773D01*
X28389785Y-106921777D01*
X28179706Y-107043067D01*
X27987263Y-107190733D01*
X27987256Y-107190739D01*
X27815739Y-107362256D01*
X27815733Y-107362263D01*
X27668067Y-107554706D01*
X27546777Y-107764785D01*
X27546773Y-107764794D01*
X27453947Y-107988895D01*
X27391161Y-108223214D01*
X27359500Y-108463711D01*
X25900500Y-108463711D01*
X25900500Y-92588711D01*
X56569500Y-92588711D01*
X56569500Y-92831288D01*
X56601161Y-93071785D01*
X56663947Y-93306104D01*
X56756773Y-93530205D01*
X56756776Y-93530212D01*
X56878064Y-93740289D01*
X56878066Y-93740292D01*
X56878067Y-93740293D01*
X57025733Y-93932736D01*
X57025739Y-93932743D01*
X57197256Y-94104260D01*
X57197262Y-94104265D01*
X57389711Y-94251936D01*
X57599788Y-94373224D01*
X57823900Y-94466054D01*
X58058211Y-94528838D01*
X58238586Y-94552584D01*
X58298711Y-94560500D01*
X58298712Y-94560500D01*
X58541289Y-94560500D01*
X58589388Y-94554167D01*
X58781789Y-94528838D01*
X59016100Y-94466054D01*
X59240212Y-94373224D01*
X59450289Y-94251936D01*
X59642738Y-94104265D01*
X59814265Y-93932738D01*
X59961936Y-93740289D01*
X60083224Y-93530212D01*
X60176054Y-93306100D01*
X60238838Y-93071789D01*
X60270500Y-92831288D01*
X60270500Y-92588712D01*
X60238838Y-92348211D01*
X60176054Y-92113900D01*
X60083224Y-91889788D01*
X59961936Y-91679711D01*
X59814265Y-91487262D01*
X59814260Y-91487256D01*
X59642743Y-91315739D01*
X59642736Y-91315733D01*
X59450293Y-91168067D01*
X59450292Y-91168066D01*
X59450289Y-91168064D01*
X59240212Y-91046776D01*
X59240205Y-91046773D01*
X59016104Y-90953947D01*
X58781785Y-90891161D01*
X58541289Y-90859500D01*
X58541288Y-90859500D01*
X58298712Y-90859500D01*
X58298711Y-90859500D01*
X58058214Y-90891161D01*
X57823895Y-90953947D01*
X57599794Y-91046773D01*
X57599785Y-91046777D01*
X57389706Y-91168067D01*
X57197263Y-91315733D01*
X57197256Y-91315739D01*
X57025739Y-91487256D01*
X57025733Y-91487263D01*
X56878067Y-91679706D01*
X56756777Y-91889785D01*
X56756773Y-91889794D01*
X56663947Y-92113895D01*
X56601161Y-92348214D01*
X56569500Y-92588711D01*
X25900500Y-92588711D01*
X25900500Y-79884038D01*
X36055000Y-79884038D01*
X36055000Y-80135961D01*
X36094410Y-80384785D01*
X36172260Y-80624383D01*
X36286632Y-80848848D01*
X36434701Y-81052649D01*
X36434705Y-81052654D01*
X36612845Y-81230794D01*
X36612850Y-81230798D01*
X36790617Y-81359952D01*
X36816655Y-81378870D01*
X36959684Y-81451747D01*
X37041116Y-81493239D01*
X37041118Y-81493239D01*
X37041121Y-81493241D01*
X37280715Y-81571090D01*
X37529538Y-81610500D01*
X37529539Y-81610500D01*
X37781461Y-81610500D01*
X37781462Y-81610500D01*
X38030285Y-81571090D01*
X38269879Y-81493241D01*
X38494345Y-81378870D01*
X38698156Y-81230793D01*
X38876293Y-81052656D01*
X39024370Y-80848845D01*
X39138741Y-80624379D01*
X39216590Y-80384785D01*
X39256000Y-80135962D01*
X39256000Y-79884038D01*
X39216590Y-79635215D01*
X39138741Y-79395621D01*
X39138739Y-79395618D01*
X39138739Y-79395616D01*
X39024369Y-79171154D01*
X39024365Y-79171148D01*
X38979926Y-79109982D01*
X46215000Y-79109982D01*
X46215000Y-80910017D01*
X46225500Y-81012796D01*
X46280685Y-81179332D01*
X46280686Y-81179335D01*
X46372788Y-81328656D01*
X46496844Y-81452712D01*
X46646165Y-81544814D01*
X46812702Y-81599999D01*
X46915490Y-81610500D01*
X46915495Y-81610500D01*
X48715505Y-81610500D01*
X48715510Y-81610500D01*
X48818298Y-81599999D01*
X48984835Y-81544814D01*
X49134156Y-81452712D01*
X49258212Y-81328656D01*
X49350314Y-81179335D01*
X49405499Y-81012798D01*
X49416000Y-80910010D01*
X49416000Y-79109990D01*
X49405499Y-79007202D01*
X49350314Y-78840665D01*
X49258212Y-78691344D01*
X49134156Y-78567288D01*
X48984835Y-78475186D01*
X48818298Y-78420001D01*
X48818296Y-78420000D01*
X48715517Y-78409500D01*
X48715510Y-78409500D01*
X46915490Y-78409500D01*
X46915482Y-78409500D01*
X46812703Y-78420000D01*
X46812702Y-78420001D01*
X46730169Y-78447349D01*
X46646167Y-78475185D01*
X46646162Y-78475187D01*
X46496842Y-78567289D01*
X46372789Y-78691342D01*
X46280687Y-78840662D01*
X46280686Y-78840665D01*
X46225501Y-79007202D01*
X46225501Y-79007203D01*
X46225500Y-79007203D01*
X46215000Y-79109982D01*
X38979926Y-79109982D01*
X38876298Y-78967350D01*
X38876294Y-78967345D01*
X38698154Y-78789205D01*
X38698149Y-78789201D01*
X38494348Y-78641132D01*
X38494347Y-78641131D01*
X38494345Y-78641130D01*
X38424247Y-78605413D01*
X38269883Y-78526760D01*
X38030285Y-78448910D01*
X37781462Y-78409500D01*
X37529538Y-78409500D01*
X37463238Y-78420001D01*
X37280714Y-78448910D01*
X37041116Y-78526760D01*
X36816651Y-78641132D01*
X36612850Y-78789201D01*
X36612845Y-78789205D01*
X36434705Y-78967345D01*
X36434701Y-78967350D01*
X36286632Y-79171151D01*
X36172260Y-79395616D01*
X36094410Y-79635214D01*
X36055000Y-79884038D01*
X25900500Y-79884038D01*
X25900500Y-75439038D01*
X36055000Y-75439038D01*
X36055000Y-75690961D01*
X36094410Y-75939785D01*
X36172260Y-76179383D01*
X36286632Y-76403848D01*
X36434701Y-76607649D01*
X36434705Y-76607654D01*
X36612845Y-76785794D01*
X36612850Y-76785798D01*
X36790617Y-76914952D01*
X36816655Y-76933870D01*
X36959684Y-77006747D01*
X37041116Y-77048239D01*
X37041118Y-77048239D01*
X37041121Y-77048241D01*
X37280715Y-77126090D01*
X37529538Y-77165500D01*
X37529539Y-77165500D01*
X37781461Y-77165500D01*
X37781462Y-77165500D01*
X38030285Y-77126090D01*
X38269879Y-77048241D01*
X38494345Y-76933870D01*
X38698156Y-76785793D01*
X38876293Y-76607656D01*
X39024370Y-76403845D01*
X39138741Y-76179379D01*
X39216590Y-75939785D01*
X39256000Y-75690962D01*
X39256000Y-75439038D01*
X39216590Y-75190215D01*
X39138741Y-74950621D01*
X39138739Y-74950618D01*
X39138739Y-74950616D01*
X39024369Y-74726154D01*
X39024365Y-74726148D01*
X38979926Y-74664982D01*
X46215000Y-74664982D01*
X46215000Y-76465017D01*
X46225500Y-76567796D01*
X46280685Y-76734332D01*
X46280686Y-76734335D01*
X46372788Y-76883656D01*
X46496844Y-77007712D01*
X46646165Y-77099814D01*
X46812702Y-77154999D01*
X46915490Y-77165500D01*
X46915495Y-77165500D01*
X48715505Y-77165500D01*
X48715510Y-77165500D01*
X48818298Y-77154999D01*
X48984835Y-77099814D01*
X49134156Y-77007712D01*
X49258212Y-76883656D01*
X49350314Y-76734335D01*
X49405499Y-76567798D01*
X49416000Y-76465010D01*
X49416000Y-74664990D01*
X49405499Y-74562202D01*
X49350314Y-74395665D01*
X49258212Y-74246344D01*
X49134156Y-74122288D01*
X48984835Y-74030186D01*
X48818298Y-73975001D01*
X48818296Y-73975000D01*
X48715517Y-73964500D01*
X48715510Y-73964500D01*
X46915490Y-73964500D01*
X46915482Y-73964500D01*
X46812703Y-73975000D01*
X46812702Y-73975001D01*
X46730169Y-74002349D01*
X46646167Y-74030185D01*
X46646162Y-74030187D01*
X46496842Y-74122289D01*
X46372789Y-74246342D01*
X46280687Y-74395662D01*
X46280686Y-74395665D01*
X46225501Y-74562202D01*
X46225501Y-74562203D01*
X46225500Y-74562203D01*
X46215000Y-74664982D01*
X38979926Y-74664982D01*
X38876298Y-74522350D01*
X38876294Y-74522345D01*
X38698154Y-74344205D01*
X38698149Y-74344201D01*
X38494348Y-74196132D01*
X38494347Y-74196131D01*
X38494345Y-74196130D01*
X38424247Y-74160413D01*
X38269883Y-74081760D01*
X38030285Y-74003910D01*
X37781462Y-73964500D01*
X37529538Y-73964500D01*
X37463238Y-73975001D01*
X37280714Y-74003910D01*
X37041116Y-74081760D01*
X36816651Y-74196132D01*
X36612850Y-74344201D01*
X36612845Y-74344205D01*
X36434705Y-74522345D01*
X36434701Y-74522350D01*
X36286632Y-74726151D01*
X36172260Y-74950616D01*
X36094410Y-75190214D01*
X36055000Y-75439038D01*
X25900500Y-75439038D01*
X25900500Y-67421228D01*
X29629500Y-67421228D01*
X29629500Y-67588771D01*
X29662182Y-67753074D01*
X29662185Y-67753086D01*
X29715810Y-67882548D01*
X29723279Y-67952017D01*
X29715810Y-67977452D01*
X29662185Y-68106913D01*
X29662182Y-68106925D01*
X29629500Y-68271228D01*
X29629500Y-68438771D01*
X29662182Y-68603074D01*
X29662185Y-68603086D01*
X29715810Y-68732548D01*
X29723279Y-68802017D01*
X29715810Y-68827452D01*
X29662185Y-68956913D01*
X29662182Y-68956925D01*
X29629500Y-69121228D01*
X29629500Y-69288771D01*
X29662182Y-69453074D01*
X29662185Y-69453086D01*
X29715810Y-69582548D01*
X29723279Y-69652017D01*
X29715810Y-69677452D01*
X29662185Y-69806913D01*
X29662182Y-69806925D01*
X29629500Y-69971228D01*
X29629500Y-70138771D01*
X29662182Y-70303074D01*
X29662185Y-70303086D01*
X29715810Y-70432548D01*
X29723279Y-70502017D01*
X29715810Y-70527452D01*
X29662185Y-70656913D01*
X29662182Y-70656925D01*
X29629500Y-70821228D01*
X29629500Y-70988771D01*
X29662182Y-71153074D01*
X29662185Y-71153086D01*
X29715810Y-71282548D01*
X29723279Y-71352017D01*
X29715810Y-71377452D01*
X29662185Y-71506913D01*
X29662182Y-71506925D01*
X29629500Y-71671228D01*
X29629500Y-71838771D01*
X29662182Y-72003074D01*
X29662184Y-72003082D01*
X29726295Y-72157860D01*
X29819373Y-72297162D01*
X29937837Y-72415626D01*
X30030494Y-72477537D01*
X30077137Y-72508703D01*
X30231918Y-72572816D01*
X30396228Y-72605499D01*
X30396232Y-72605500D01*
X30396233Y-72605500D01*
X30563768Y-72605500D01*
X30563769Y-72605499D01*
X30728082Y-72572816D01*
X30882863Y-72508703D01*
X31022162Y-72415626D01*
X31067318Y-72370470D01*
X31128641Y-72336984D01*
X31198332Y-72341968D01*
X31242682Y-72370470D01*
X31287834Y-72415623D01*
X31287837Y-72415626D01*
X31380494Y-72477537D01*
X31427137Y-72508703D01*
X31581918Y-72572816D01*
X31746228Y-72605499D01*
X31746232Y-72605500D01*
X31746233Y-72605500D01*
X31913768Y-72605500D01*
X31913769Y-72605499D01*
X32078082Y-72572816D01*
X32232863Y-72508703D01*
X32372162Y-72415626D01*
X32490626Y-72297162D01*
X32583703Y-72157863D01*
X32647816Y-72003082D01*
X32680500Y-71838767D01*
X32680500Y-71671233D01*
X32647816Y-71506918D01*
X32594188Y-71377451D01*
X32586720Y-71307984D01*
X32594189Y-71282547D01*
X32647816Y-71153082D01*
X32680500Y-70988767D01*
X32680500Y-70821233D01*
X32647816Y-70656918D01*
X32594188Y-70527451D01*
X32586720Y-70457984D01*
X32594189Y-70432547D01*
X32595513Y-70429351D01*
X32647816Y-70303082D01*
X32680500Y-70138767D01*
X32680500Y-69971233D01*
X32647816Y-69806918D01*
X32594188Y-69677451D01*
X32586720Y-69607984D01*
X32594189Y-69582547D01*
X32647816Y-69453082D01*
X32680500Y-69288767D01*
X32680500Y-69121233D01*
X32647816Y-68956918D01*
X32594188Y-68827451D01*
X32586720Y-68757984D01*
X32594189Y-68732547D01*
X32600884Y-68716384D01*
X32647816Y-68603082D01*
X32680500Y-68438767D01*
X32680500Y-68271233D01*
X32647816Y-68106918D01*
X32594188Y-67977451D01*
X32586720Y-67907984D01*
X32594189Y-67882547D01*
X32647816Y-67753082D01*
X32680500Y-67588767D01*
X32680500Y-67421233D01*
X32647816Y-67256918D01*
X32583703Y-67102137D01*
X32505000Y-66984350D01*
X32490626Y-66962837D01*
X32372162Y-66844373D01*
X32232860Y-66751295D01*
X32078082Y-66687184D01*
X32078074Y-66687182D01*
X31913771Y-66654500D01*
X31913767Y-66654500D01*
X31746233Y-66654500D01*
X31746228Y-66654500D01*
X31581925Y-66687182D01*
X31581917Y-66687184D01*
X31427139Y-66751295D01*
X31287837Y-66844373D01*
X31287834Y-66844376D01*
X31242681Y-66889530D01*
X31181358Y-66923015D01*
X31111666Y-66918031D01*
X31067319Y-66889530D01*
X31022162Y-66844373D01*
X30882860Y-66751295D01*
X30728082Y-66687184D01*
X30728074Y-66687182D01*
X30563771Y-66654500D01*
X30563767Y-66654500D01*
X30396233Y-66654500D01*
X30396228Y-66654500D01*
X30231925Y-66687182D01*
X30231917Y-66687184D01*
X30077139Y-66751295D01*
X29937837Y-66844373D01*
X29819373Y-66962837D01*
X29726295Y-67102139D01*
X29662184Y-67256917D01*
X29662182Y-67256925D01*
X29629500Y-67421228D01*
X25900500Y-67421228D01*
X25900500Y-54982135D01*
X27415000Y-54982135D01*
X27415000Y-56777870D01*
X27415001Y-56777876D01*
X27421408Y-56837483D01*
X27471702Y-56972328D01*
X27471706Y-56972335D01*
X27557952Y-57087544D01*
X27557955Y-57087547D01*
X27673164Y-57173793D01*
X27673171Y-57173797D01*
X27804582Y-57222810D01*
X27860516Y-57264681D01*
X27884933Y-57330145D01*
X27870082Y-57398418D01*
X27848931Y-57426673D01*
X27735389Y-57540215D01*
X27610451Y-57712179D01*
X27513944Y-57901585D01*
X27448253Y-58103760D01*
X27431778Y-58207781D01*
X27415000Y-58313713D01*
X27415000Y-58526287D01*
X27425034Y-58589644D01*
X27448253Y-58736239D01*
X27448253Y-58736241D01*
X27448254Y-58736243D01*
X27452875Y-58750466D01*
X27513944Y-58938414D01*
X27610451Y-59127820D01*
X27735390Y-59299786D01*
X27885713Y-59450109D01*
X28057682Y-59575050D01*
X28066446Y-59579516D01*
X28117242Y-59627491D01*
X28134036Y-59695312D01*
X28111498Y-59761447D01*
X28066446Y-59800484D01*
X28057682Y-59804949D01*
X27885713Y-59929890D01*
X27735390Y-60080213D01*
X27610451Y-60252179D01*
X27513944Y-60441585D01*
X27513943Y-60441587D01*
X27513943Y-60441588D01*
X27481098Y-60542672D01*
X27448253Y-60643760D01*
X27415000Y-60853713D01*
X27415000Y-61066287D01*
X27425034Y-61129644D01*
X27439229Y-61219265D01*
X27448254Y-61276243D01*
X27497109Y-61426604D01*
X27513944Y-61478414D01*
X27610451Y-61667820D01*
X27735390Y-61839786D01*
X27885713Y-61990109D01*
X28057679Y-62115048D01*
X28057681Y-62115049D01*
X28057684Y-62115051D01*
X28247088Y-62211557D01*
X28449257Y-62277246D01*
X28659213Y-62310500D01*
X28659214Y-62310500D01*
X28871786Y-62310500D01*
X28871787Y-62310500D01*
X29081743Y-62277246D01*
X29283912Y-62211557D01*
X29473316Y-62115051D01*
X29495289Y-62099086D01*
X29645286Y-61990109D01*
X29645288Y-61990106D01*
X29645292Y-61990104D01*
X29795604Y-61839792D01*
X29795606Y-61839788D01*
X29795609Y-61839786D01*
X29920548Y-61667820D01*
X29920547Y-61667820D01*
X29920551Y-61667816D01*
X29925014Y-61659054D01*
X29972988Y-61608259D01*
X30040808Y-61591463D01*
X30106944Y-61613999D01*
X30145986Y-61659056D01*
X30150451Y-61667820D01*
X30275390Y-61839786D01*
X30425713Y-61990109D01*
X30597679Y-62115048D01*
X30597681Y-62115049D01*
X30597684Y-62115051D01*
X30787088Y-62211557D01*
X30989257Y-62277246D01*
X31199213Y-62310500D01*
X31199214Y-62310500D01*
X31411786Y-62310500D01*
X31411787Y-62310500D01*
X31621743Y-62277246D01*
X31823912Y-62211557D01*
X32013316Y-62115051D01*
X32035289Y-62099086D01*
X32185286Y-61990109D01*
X32185288Y-61990106D01*
X32185292Y-61990104D01*
X32335604Y-61839792D01*
X32335606Y-61839788D01*
X32335609Y-61839786D01*
X32460548Y-61667820D01*
X32460547Y-61667820D01*
X32460551Y-61667816D01*
X32557057Y-61478412D01*
X32622746Y-61276243D01*
X32656000Y-61066287D01*
X32656000Y-60853713D01*
X32622746Y-60643757D01*
X32557057Y-60441588D01*
X32460551Y-60252184D01*
X32460549Y-60252181D01*
X32460548Y-60252179D01*
X32335609Y-60080213D01*
X32185286Y-59929890D01*
X32013320Y-59804951D01*
X31823914Y-59708444D01*
X31823913Y-59708443D01*
X31823912Y-59708443D01*
X31621743Y-59642754D01*
X31621741Y-59642753D01*
X31621740Y-59642753D01*
X31460457Y-59617208D01*
X31411787Y-59609500D01*
X31199213Y-59609500D01*
X31150542Y-59617208D01*
X30989260Y-59642753D01*
X30787085Y-59708444D01*
X30597679Y-59804951D01*
X30425713Y-59929890D01*
X30275390Y-60080213D01*
X30150449Y-60252182D01*
X30145984Y-60260946D01*
X30098009Y-60311742D01*
X30030188Y-60328536D01*
X29964053Y-60305998D01*
X29925016Y-60260946D01*
X29920550Y-60252182D01*
X29795609Y-60080213D01*
X29645286Y-59929890D01*
X29473320Y-59804951D01*
X29472615Y-59804591D01*
X29464554Y-59800485D01*
X29413759Y-59752512D01*
X29396963Y-59684692D01*
X29419499Y-59618556D01*
X29464554Y-59579515D01*
X29473316Y-59575051D01*
X29495289Y-59559086D01*
X29645286Y-59450109D01*
X29645288Y-59450106D01*
X29645292Y-59450104D01*
X29795604Y-59299792D01*
X29795606Y-59299788D01*
X29795609Y-59299786D01*
X29920548Y-59127820D01*
X29920547Y-59127820D01*
X29920551Y-59127816D01*
X29989716Y-58992071D01*
X34083999Y-58992071D01*
X34108997Y-59117738D01*
X34108999Y-59117744D01*
X34124561Y-59155313D01*
X34134000Y-59202766D01*
X34134000Y-61635330D01*
X34133999Y-61635348D01*
X34133999Y-61801054D01*
X34133998Y-61801054D01*
X34144378Y-61839792D01*
X34174923Y-61953785D01*
X34174924Y-61953786D01*
X34178798Y-61960498D01*
X34178800Y-61960500D01*
X34253977Y-62090712D01*
X34253981Y-62090717D01*
X34372849Y-62209585D01*
X34372855Y-62209590D01*
X35574337Y-63411072D01*
X35601217Y-63451301D01*
X35619781Y-63496120D01*
X35619788Y-63496133D01*
X35690973Y-63602668D01*
X35690976Y-63602672D01*
X35781577Y-63693273D01*
X35781581Y-63693276D01*
X35888116Y-63764461D01*
X35888122Y-63764464D01*
X35888123Y-63764465D01*
X36006506Y-63813501D01*
X36006510Y-63813501D01*
X36006511Y-63813502D01*
X36132178Y-63838500D01*
X36132181Y-63838500D01*
X36260321Y-63838500D01*
X36385989Y-63813502D01*
X36385989Y-63813501D01*
X36385994Y-63813501D01*
X36385996Y-63813499D01*
X36386000Y-63813499D01*
X36433921Y-63793649D01*
X36503390Y-63786179D01*
X36528829Y-63793649D01*
X36576749Y-63813499D01*
X36576760Y-63813502D01*
X36702428Y-63838500D01*
X36702431Y-63838500D01*
X36830571Y-63838500D01*
X36915115Y-63821682D01*
X36956244Y-63813501D01*
X37074627Y-63764465D01*
X37181169Y-63693276D01*
X37271776Y-63602669D01*
X37342965Y-63496127D01*
X37392001Y-63377744D01*
X37415590Y-63259158D01*
X37417000Y-63252071D01*
X37417000Y-63123928D01*
X37392002Y-62998261D01*
X37392001Y-62998260D01*
X37392001Y-62998256D01*
X37376439Y-62960685D01*
X37368533Y-62920940D01*
X37368061Y-62921003D01*
X37367112Y-62913796D01*
X37367000Y-62913233D01*
X37367000Y-62912945D01*
X37367000Y-62912943D01*
X37326077Y-62760216D01*
X37248178Y-62625289D01*
X37247024Y-62623290D01*
X37247021Y-62623286D01*
X37247020Y-62623284D01*
X37135216Y-62511480D01*
X37135215Y-62511479D01*
X37130885Y-62507149D01*
X37130874Y-62507139D01*
X35879319Y-61255584D01*
X35864615Y-61228656D01*
X35848023Y-61202838D01*
X35847131Y-61196637D01*
X35845834Y-61194261D01*
X35843000Y-61167903D01*
X35843000Y-61043153D01*
X45110000Y-61043153D01*
X45110000Y-61200846D01*
X45140761Y-61355489D01*
X45140763Y-61355497D01*
X45150561Y-61379151D01*
X45160000Y-61426604D01*
X45160000Y-63033396D01*
X45150562Y-63080844D01*
X45140763Y-63104503D01*
X45140762Y-63104506D01*
X45140760Y-63104511D01*
X45110000Y-63259153D01*
X45110000Y-63416846D01*
X45140761Y-63571489D01*
X45140764Y-63571501D01*
X45201102Y-63717172D01*
X45201109Y-63717185D01*
X45288710Y-63848288D01*
X45288713Y-63848292D01*
X45400207Y-63959786D01*
X45400211Y-63959789D01*
X45531314Y-64047390D01*
X45531327Y-64047397D01*
X45605305Y-64078039D01*
X45677003Y-64107737D01*
X45745734Y-64121408D01*
X45753615Y-64123246D01*
X45771621Y-64128070D01*
X45831443Y-64144100D01*
X45831445Y-64144100D01*
X45989555Y-64144100D01*
X45989557Y-64144100D01*
X46067376Y-64123247D01*
X46075274Y-64121407D01*
X46106088Y-64115277D01*
X46143997Y-64107737D01*
X46289679Y-64047394D01*
X46420789Y-63959789D01*
X46532289Y-63848289D01*
X46619894Y-63717179D01*
X46680237Y-63571497D01*
X46711000Y-63416842D01*
X46711000Y-63259158D01*
X46711000Y-63259155D01*
X46710999Y-63259153D01*
X46680239Y-63104511D01*
X46680238Y-63104508D01*
X46680237Y-63104503D01*
X46670437Y-63080844D01*
X46661000Y-63033396D01*
X46661000Y-61473711D01*
X57839500Y-61473711D01*
X57839500Y-61716288D01*
X57871161Y-61956785D01*
X57933947Y-62191104D01*
X57983403Y-62310500D01*
X58026776Y-62415212D01*
X58148064Y-62625289D01*
X58148066Y-62625292D01*
X58148067Y-62625293D01*
X58295733Y-62817736D01*
X58295739Y-62817743D01*
X58467256Y-62989260D01*
X58467262Y-62989265D01*
X58659711Y-63136936D01*
X58869788Y-63258224D01*
X59093900Y-63351054D01*
X59328211Y-63413838D01*
X59508586Y-63437584D01*
X59568711Y-63445500D01*
X59568712Y-63445500D01*
X59811289Y-63445500D01*
X59859388Y-63439167D01*
X60051789Y-63413838D01*
X60286100Y-63351054D01*
X60510212Y-63258224D01*
X60720289Y-63136936D01*
X60912738Y-62989265D01*
X61084265Y-62817738D01*
X61231936Y-62625289D01*
X61353224Y-62415212D01*
X61446054Y-62191100D01*
X61508838Y-61956789D01*
X61540500Y-61716288D01*
X61540500Y-61473712D01*
X61508838Y-61233211D01*
X61446054Y-60998900D01*
X61353224Y-60774788D01*
X61231936Y-60564711D01*
X61084265Y-60372262D01*
X61084260Y-60372256D01*
X60912743Y-60200739D01*
X60912736Y-60200733D01*
X60720293Y-60053067D01*
X60720292Y-60053066D01*
X60720289Y-60053064D01*
X60510212Y-59931776D01*
X60510205Y-59931773D01*
X60286104Y-59838947D01*
X60051785Y-59776161D01*
X59811289Y-59744500D01*
X59811288Y-59744500D01*
X59568712Y-59744500D01*
X59568711Y-59744500D01*
X59328214Y-59776161D01*
X59093895Y-59838947D01*
X58869794Y-59931773D01*
X58869785Y-59931777D01*
X58687851Y-60036817D01*
X58670265Y-60046971D01*
X58659706Y-60053067D01*
X58467263Y-60200733D01*
X58467256Y-60200739D01*
X58295739Y-60372256D01*
X58295733Y-60372263D01*
X58148067Y-60564706D01*
X58026777Y-60774785D01*
X58026773Y-60774794D01*
X57933947Y-60998895D01*
X57871161Y-61233214D01*
X57839500Y-61473711D01*
X46661000Y-61473711D01*
X46661000Y-61426604D01*
X46670439Y-61379151D01*
X46680237Y-61355497D01*
X46711000Y-61200842D01*
X46711000Y-61043158D01*
X46711000Y-61043155D01*
X46710999Y-61043153D01*
X46685187Y-60913390D01*
X46680237Y-60888503D01*
X46621951Y-60747786D01*
X46619897Y-60742827D01*
X46619890Y-60742814D01*
X46532289Y-60611711D01*
X46532286Y-60611707D01*
X46420792Y-60500213D01*
X46420788Y-60500210D01*
X46289685Y-60412609D01*
X46289672Y-60412602D01*
X46144001Y-60352264D01*
X46143989Y-60352261D01*
X45989345Y-60321500D01*
X45989342Y-60321500D01*
X45831658Y-60321500D01*
X45831655Y-60321500D01*
X45677010Y-60352261D01*
X45676998Y-60352264D01*
X45531327Y-60412602D01*
X45531314Y-60412609D01*
X45400211Y-60500210D01*
X45400207Y-60500213D01*
X45288713Y-60611707D01*
X45288710Y-60611711D01*
X45201109Y-60742814D01*
X45201102Y-60742827D01*
X45140764Y-60888498D01*
X45140761Y-60888510D01*
X45110000Y-61043153D01*
X35843000Y-61043153D01*
X35843000Y-59202766D01*
X35852439Y-59155313D01*
X35863827Y-59127820D01*
X35868001Y-59117744D01*
X35893000Y-58992069D01*
X35893000Y-58863931D01*
X35893000Y-58863928D01*
X35868002Y-58738261D01*
X35868001Y-58738260D01*
X35868001Y-58738256D01*
X35818965Y-58619873D01*
X35818964Y-58619872D01*
X35818961Y-58619866D01*
X35747776Y-58513331D01*
X35747773Y-58513327D01*
X35657172Y-58422726D01*
X35657168Y-58422723D01*
X35550633Y-58351538D01*
X35550624Y-58351533D01*
X35432244Y-58302499D01*
X35432238Y-58302497D01*
X35306571Y-58277500D01*
X35306569Y-58277500D01*
X35178431Y-58277500D01*
X35178429Y-58277500D01*
X35052762Y-58302497D01*
X35052754Y-58302499D01*
X35035950Y-58309460D01*
X34966480Y-58316927D01*
X34941050Y-58309460D01*
X34924245Y-58302499D01*
X34924237Y-58302497D01*
X34798571Y-58277500D01*
X34798569Y-58277500D01*
X34670431Y-58277500D01*
X34670429Y-58277500D01*
X34544761Y-58302497D01*
X34544755Y-58302499D01*
X34426375Y-58351533D01*
X34426366Y-58351538D01*
X34319831Y-58422723D01*
X34319827Y-58422726D01*
X34229226Y-58513327D01*
X34229223Y-58513331D01*
X34158038Y-58619866D01*
X34158033Y-58619875D01*
X34108999Y-58738255D01*
X34108997Y-58738261D01*
X34084000Y-58863928D01*
X34084000Y-58863931D01*
X34084000Y-58992069D01*
X34084000Y-58992071D01*
X34083999Y-58992071D01*
X29989716Y-58992071D01*
X30017057Y-58938412D01*
X30082746Y-58736243D01*
X30116000Y-58526287D01*
X30116000Y-58313713D01*
X30082746Y-58103757D01*
X30017057Y-57901588D01*
X29920551Y-57712184D01*
X29920549Y-57712181D01*
X29920548Y-57712179D01*
X29795609Y-57540213D01*
X29682069Y-57426673D01*
X29648584Y-57365350D01*
X29653568Y-57295658D01*
X29695440Y-57239725D01*
X29726415Y-57222810D01*
X29857831Y-57173796D01*
X29973046Y-57087546D01*
X30059296Y-56972331D01*
X30108310Y-56840916D01*
X30150181Y-56784984D01*
X30215645Y-56760566D01*
X30283918Y-56775417D01*
X30312173Y-56796569D01*
X30425713Y-56910109D01*
X30597679Y-57035048D01*
X30597681Y-57035049D01*
X30597684Y-57035051D01*
X30787088Y-57131557D01*
X30989257Y-57197246D01*
X31199213Y-57230500D01*
X31199214Y-57230500D01*
X31411786Y-57230500D01*
X31411787Y-57230500D01*
X31621743Y-57197246D01*
X31823912Y-57131557D01*
X32013316Y-57035051D01*
X32099638Y-56972335D01*
X32185286Y-56910109D01*
X32185288Y-56910106D01*
X32185292Y-56910104D01*
X32335604Y-56759792D01*
X32335606Y-56759788D01*
X32335609Y-56759786D01*
X32460548Y-56587820D01*
X32460547Y-56587820D01*
X32460551Y-56587816D01*
X32557057Y-56398412D01*
X32622746Y-56196243D01*
X32656000Y-55986287D01*
X32656000Y-55914983D01*
X63469500Y-55914983D01*
X63469500Y-57115001D01*
X63469501Y-57115018D01*
X63480000Y-57217796D01*
X63480001Y-57217799D01*
X63535185Y-57384331D01*
X63535187Y-57384336D01*
X63543873Y-57398418D01*
X63627288Y-57533656D01*
X63751344Y-57657712D01*
X63900666Y-57749814D01*
X63982570Y-57776954D01*
X64040015Y-57816727D01*
X64066838Y-57881243D01*
X64054523Y-57950018D01*
X64016451Y-57994978D01*
X63922787Y-58063028D01*
X63922782Y-58063032D01*
X63778028Y-58207786D01*
X63657715Y-58373386D01*
X63564781Y-58555776D01*
X63501522Y-58750465D01*
X63469500Y-58952648D01*
X63469500Y-59157351D01*
X63501522Y-59359534D01*
X63564781Y-59554223D01*
X63657715Y-59736613D01*
X63778028Y-59902213D01*
X63922786Y-60046971D01*
X64077749Y-60159556D01*
X64088390Y-60167287D01*
X64179840Y-60213883D01*
X64181080Y-60214515D01*
X64231876Y-60262490D01*
X64248671Y-60330311D01*
X64226134Y-60396446D01*
X64181080Y-60435485D01*
X64088386Y-60482715D01*
X63922786Y-60603028D01*
X63778028Y-60747786D01*
X63657715Y-60913386D01*
X63564781Y-61095776D01*
X63501522Y-61290465D01*
X63469500Y-61492648D01*
X63469500Y-61697351D01*
X63501522Y-61899534D01*
X63564781Y-62094223D01*
X63657715Y-62276613D01*
X63778028Y-62442213D01*
X63922786Y-62586971D01*
X64077749Y-62699556D01*
X64088390Y-62707287D01*
X64192255Y-62760209D01*
X64270776Y-62800218D01*
X64270778Y-62800218D01*
X64270781Y-62800220D01*
X64375137Y-62834127D01*
X64465465Y-62863477D01*
X64566557Y-62879488D01*
X64667648Y-62895500D01*
X64667649Y-62895500D01*
X64872351Y-62895500D01*
X64872352Y-62895500D01*
X65074534Y-62863477D01*
X65269219Y-62800220D01*
X65451610Y-62707287D01*
X65564466Y-62625293D01*
X65617213Y-62586971D01*
X65617215Y-62586968D01*
X65617219Y-62586966D01*
X65761966Y-62442219D01*
X65761968Y-62442215D01*
X65761971Y-62442213D01*
X65814732Y-62369590D01*
X65882287Y-62276610D01*
X65975220Y-62094219D01*
X66038477Y-61899534D01*
X66070500Y-61697352D01*
X66070500Y-61492648D01*
X66067501Y-61473711D01*
X66038477Y-61290465D01*
X65975218Y-61095776D01*
X65941503Y-61029607D01*
X65882287Y-60913390D01*
X65864202Y-60888498D01*
X65761971Y-60747786D01*
X65617213Y-60603028D01*
X65451614Y-60482715D01*
X65445006Y-60479348D01*
X65358917Y-60435483D01*
X65308123Y-60387511D01*
X65291328Y-60319690D01*
X65313865Y-60253555D01*
X65358917Y-60214516D01*
X65451610Y-60167287D01*
X65472770Y-60151913D01*
X65617213Y-60046971D01*
X65617215Y-60046968D01*
X65617219Y-60046966D01*
X65761966Y-59902219D01*
X65761968Y-59902215D01*
X65761971Y-59902213D01*
X65832636Y-59804949D01*
X65882287Y-59736610D01*
X65975220Y-59554219D01*
X66038477Y-59359534D01*
X66070500Y-59157352D01*
X66070500Y-58952648D01*
X66056448Y-58863928D01*
X66038477Y-58750465D01*
X65975218Y-58555776D01*
X65941503Y-58489607D01*
X65882287Y-58373390D01*
X65841265Y-58316927D01*
X65761971Y-58207786D01*
X65617219Y-58063034D01*
X65617211Y-58063028D01*
X65523547Y-57994978D01*
X65480882Y-57939649D01*
X65474903Y-57870036D01*
X65507508Y-57808240D01*
X65557426Y-57776955D01*
X65639334Y-57749814D01*
X65788656Y-57657712D01*
X65912712Y-57533656D01*
X66004814Y-57384334D01*
X66059999Y-57217797D01*
X66070500Y-57115009D01*
X66070499Y-55914992D01*
X66059999Y-55812203D01*
X66004814Y-55645666D01*
X65912712Y-55496344D01*
X65788656Y-55372288D01*
X65639334Y-55280186D01*
X65472797Y-55225001D01*
X65472795Y-55225000D01*
X65370010Y-55214500D01*
X64169998Y-55214500D01*
X64169981Y-55214501D01*
X64067203Y-55225000D01*
X64067200Y-55225001D01*
X63900668Y-55280185D01*
X63900663Y-55280187D01*
X63751342Y-55372289D01*
X63627289Y-55496342D01*
X63535187Y-55645663D01*
X63535186Y-55645666D01*
X63480001Y-55812203D01*
X63480001Y-55812204D01*
X63480000Y-55812204D01*
X63469500Y-55914983D01*
X32656000Y-55914983D01*
X32656000Y-55773713D01*
X32622746Y-55563757D01*
X32557057Y-55361588D01*
X32460551Y-55172184D01*
X32460549Y-55172181D01*
X32460548Y-55172179D01*
X32335609Y-55000213D01*
X32185286Y-54849890D01*
X32013320Y-54724951D01*
X31823916Y-54628444D01*
X31805268Y-54622385D01*
X31774358Y-54612342D01*
X31758690Y-54601628D01*
X31740753Y-54595420D01*
X31730447Y-54582315D01*
X31716685Y-54572905D01*
X31709295Y-54555419D01*
X31697562Y-54540499D01*
X31695977Y-54523903D01*
X31689487Y-54508546D01*
X31692724Y-54489840D01*
X31690920Y-54470946D01*
X31698558Y-54456128D01*
X31701402Y-54439700D01*
X31714237Y-54425715D01*
X31722935Y-54408843D01*
X31747329Y-54389658D01*
X31748646Y-54388224D01*
X31750590Y-54387076D01*
X31765204Y-54378639D01*
X31852016Y-54328520D01*
X31905831Y-54274703D01*
X31946056Y-54247826D01*
X31983627Y-54232265D01*
X32090169Y-54161076D01*
X32180776Y-54070469D01*
X32251965Y-53963927D01*
X32301001Y-53845544D01*
X32326000Y-53719869D01*
X32326000Y-53591731D01*
X32326000Y-53591728D01*
X32301002Y-53466061D01*
X32301001Y-53466060D01*
X32301001Y-53466056D01*
X32251965Y-53347673D01*
X32251964Y-53347672D01*
X32251961Y-53347666D01*
X32180776Y-53241131D01*
X32180773Y-53241127D01*
X32090172Y-53150526D01*
X32090168Y-53150523D01*
X31983633Y-53079338D01*
X31983624Y-53079333D01*
X31865244Y-53030299D01*
X31865238Y-53030297D01*
X31739571Y-53005300D01*
X31739569Y-53005300D01*
X31611431Y-53005300D01*
X31611429Y-53005300D01*
X31485761Y-53030297D01*
X31485755Y-53030299D01*
X31367375Y-53079333D01*
X31367366Y-53079338D01*
X31260831Y-53150523D01*
X31260827Y-53150526D01*
X31200173Y-53211181D01*
X31138850Y-53244666D01*
X31112492Y-53247500D01*
X29238257Y-53247500D01*
X29080142Y-53247500D01*
X28927415Y-53288423D01*
X28927414Y-53288423D01*
X28927412Y-53288424D01*
X28927409Y-53288425D01*
X28877296Y-53317359D01*
X28877295Y-53317360D01*
X28833889Y-53342420D01*
X28790485Y-53367479D01*
X28790482Y-53367481D01*
X28691909Y-53466055D01*
X28678680Y-53479284D01*
X28678678Y-53479286D01*
X28674860Y-53483104D01*
X28634646Y-53509971D01*
X28597073Y-53525535D01*
X28490528Y-53596725D01*
X28399926Y-53687327D01*
X28399923Y-53687331D01*
X28328738Y-53793866D01*
X28328733Y-53793875D01*
X28279699Y-53912255D01*
X28279697Y-53912261D01*
X28254700Y-54037928D01*
X28254700Y-54037931D01*
X28254700Y-54166069D01*
X28254700Y-54166071D01*
X28254699Y-54166071D01*
X28279697Y-54291738D01*
X28279698Y-54291739D01*
X28279699Y-54291744D01*
X28294933Y-54328521D01*
X28307163Y-54358048D01*
X28314631Y-54427518D01*
X28283355Y-54489997D01*
X28223266Y-54525649D01*
X28192601Y-54529500D01*
X27867630Y-54529500D01*
X27867623Y-54529501D01*
X27808016Y-54535908D01*
X27673171Y-54586202D01*
X27673164Y-54586206D01*
X27557955Y-54672452D01*
X27557952Y-54672455D01*
X27471706Y-54787664D01*
X27471702Y-54787671D01*
X27421408Y-54922517D01*
X27415001Y-54982116D01*
X27415000Y-54982135D01*
X25900500Y-54982135D01*
X25900500Y-52602648D01*
X63469500Y-52602648D01*
X63469500Y-52807351D01*
X63501522Y-53009534D01*
X63564781Y-53204223D01*
X63607685Y-53288425D01*
X63647966Y-53367481D01*
X63657715Y-53386613D01*
X63778028Y-53552213D01*
X63922786Y-53696971D01*
X64056153Y-53793866D01*
X64088390Y-53817287D01*
X64204607Y-53876503D01*
X64270776Y-53910218D01*
X64270778Y-53910218D01*
X64270781Y-53910220D01*
X64375137Y-53944127D01*
X64465465Y-53973477D01*
X64566557Y-53989488D01*
X64667648Y-54005500D01*
X64667649Y-54005500D01*
X64872351Y-54005500D01*
X64872352Y-54005500D01*
X65074534Y-53973477D01*
X65269219Y-53910220D01*
X65451610Y-53817287D01*
X65585693Y-53719871D01*
X65617213Y-53696971D01*
X65617215Y-53696968D01*
X65617219Y-53696966D01*
X65761966Y-53552219D01*
X65761968Y-53552215D01*
X65761971Y-53552213D01*
X65824563Y-53466061D01*
X65882287Y-53386610D01*
X65975220Y-53204219D01*
X66038477Y-53009534D01*
X66070500Y-52807352D01*
X66070500Y-52602648D01*
X66038477Y-52400466D01*
X65975220Y-52205781D01*
X65975218Y-52205778D01*
X65975218Y-52205776D01*
X65941503Y-52139607D01*
X65882287Y-52023390D01*
X65874556Y-52012749D01*
X65761971Y-51857786D01*
X65617213Y-51713028D01*
X65451613Y-51592715D01*
X65451612Y-51592714D01*
X65451610Y-51592713D01*
X65394653Y-51563691D01*
X65269223Y-51499781D01*
X65074534Y-51436522D01*
X64899995Y-51408878D01*
X64872352Y-51404500D01*
X64667648Y-51404500D01*
X64643329Y-51408351D01*
X64465465Y-51436522D01*
X64270776Y-51499781D01*
X64088386Y-51592715D01*
X63922786Y-51713028D01*
X63778028Y-51857786D01*
X63657715Y-52023386D01*
X63564781Y-52205776D01*
X63501522Y-52400465D01*
X63469500Y-52602648D01*
X25900500Y-52602648D01*
X25900500Y-38859000D01*
X25920185Y-38791961D01*
X25972989Y-38746206D01*
X26024500Y-38735000D01*
X68176000Y-38735000D01*
X68243039Y-38754685D01*
G37*
%TD.AperFunction*%
%TD*%
M02*
