M48
; DRILL file {KiCad 9.0.8-9.0.8~ubuntu24.04.1} date 2026-04-14T18:53:28+0300
; FORMAT={-:-/ absolute / inch / decimal}
; #@! TF.CreationDate,2026-04-14T18:53:28+03:00
; #@! TF.GenerationSoftware,Kicad,Pcbnew,9.0.8-9.0.8~ubuntu24.04.1
; #@! TF.FileFunction,Plated,1,2,PTH
FMAT,2
INCH
; #@! TA.AperFunction,Plated,PTH,ViaDrill
T1C0.0059
; #@! TA.AperFunction,Plated,PTH,ViaDrill
T2C0.0118
; #@! TA.AperFunction,Plated,PTH,ComponentDrill
T3C0.0118
; #@! TA.AperFunction,Plated,PTH,ComponentDrill
T4C0.0157
; #@! TA.AperFunction,Plated,PTH,ComponentDrill
T5C0.0236
; #@! TA.AperFunction,Plated,PTH,ComponentDrill
T6C0.0315
; #@! TA.AperFunction,Plated,PTH,ViaDrill
T7C0.0394
; #@! TA.AperFunction,Plated,PTH,ComponentDrill
T8C0.0394
; #@! TA.AperFunction,Plated,PTH,ComponentDrill
T9C0.0433
; #@! TA.AperFunction,Plated,PTH,ComponentDrill
T10C0.0512
; #@! TA.AperFunction,Plated,PTH,ComponentDrill
T11C0.0591
%
G90
G05
T1
X1.138Y-2.13
X1.2471Y-2.1124
X1.3478Y-2.29
X1.3675Y-2.32
X1.3875Y-2.32
X1.425Y-2.4877
X1.4475Y-2.4877
T2
X1.0829Y-3.7975
X1.088Y-3.892
X1.09Y-3.13
X1.092Y-3.464
X1.096Y-4.004
X1.0975Y-3.6179
X1.1105Y-3.2935
X1.1392Y-3.8912
X1.1412Y-3.1292
X1.1472Y-4.0032
X1.1857Y-3.799
X1.194Y-3.372
X1.2184Y-3.462
X1.2259Y-3.29
X1.2294Y-3.6069
X1.2452Y-3.3712
X1.2535Y-3.7256
X1.26Y-3.892
X1.26Y-4.004
X1.3047Y-3.7248
X1.3112Y-3.8912
X1.3112Y-4.0032
X1.3137Y-3.799
X1.3156Y-3.29
X1.3211Y-3.6124
X1.3219Y-2.1201
X1.3346Y-2.5778
X1.3412Y-3.4565
X1.4378Y-4.3213
X1.446Y-3.582
X1.446Y-3.72
X1.4469Y-3.9878
X1.4524Y-4.1417
X1.4654Y-3.8173
X1.4972Y-3.5812
X1.4972Y-3.7192
X1.5406Y-4.3228
X1.57Y-4.232
X1.5732Y-3.9858
X1.5807Y-3.8138
X1.5843Y-4.1307
X1.6212Y-4.2312
X1.6282Y-3.6424
X1.6685Y-4.3228
X1.6705Y-3.8138
X1.676Y-4.1362
X1.6794Y-3.6417
X1.6961Y-3.9803
X1.718Y-3.744
X1.7692Y-3.7432
X1.8075Y-2.4064
X1.8075Y-2.4936
X2.038Y-4.214
X2.044Y-3.698
X2.044Y-3.886
X2.044Y-3.976
X2.044Y-4.11
X2.046Y-3.778
X2.0892Y-4.2132
X2.0952Y-3.6972
X2.0952Y-3.8852
X2.0952Y-3.9752
X2.0952Y-4.1092
X2.0972Y-3.7772
X2.142Y-3.486
X2.1932Y-3.4852
X2.244Y-3.88
X2.266Y-2.716
X2.2952Y-3.8792
X2.3172Y-2.7152
X2.4539Y-2.7217
X2.476Y-3.486
X2.478Y-3.686
X2.5Y-3.87
X2.505Y-2.7209
X2.5272Y-3.4852
X2.5292Y-3.6852
X2.5512Y-3.8692
X2.65Y-2.25
X2.65Y-2.412
T3
X1.6433Y-1.8264
X1.6433Y-1.8815
X1.6709Y-1.7988
X1.6709Y-1.8539
X1.6709Y-1.9091
X1.6984Y-1.8264
X1.6984Y-1.8815
X1.726Y-1.7988
X1.726Y-1.8539
X1.726Y-1.9091
X1.7536Y-1.8264
X1.7536Y-1.8815
T4
X1.2Y-2.6242
X1.2Y-2.6577
X1.2Y-2.6911
X1.2Y-2.7246
X1.2Y-2.7581
X1.2Y-2.7915
X1.2Y-2.825
X1.2Y-2.8585
X1.2531Y-2.6242
X1.2531Y-2.6577
X1.2531Y-2.6911
X1.2531Y-2.7246
X1.2531Y-2.7581
X1.2531Y-2.7915
X1.2531Y-2.825
X1.2531Y-2.8585
T6
X2.55Y-1.975
X2.55Y-2.075
X2.55Y-2.225
X2.55Y-2.325
X2.55Y-2.425
X2.85Y-1.975
X2.85Y-2.075
X2.85Y-2.225
X2.85Y-2.325
X2.85Y-2.425
X2.975Y-2.025
X2.975Y-2.125
X2.975Y-2.525
X3.15Y-2.125
X3.15Y-2.525
X3.3Y-2.125
X3.3Y-2.525
X3.375Y-2.025
T7
X2.83Y-3.13
X3.05Y-2.9
T8
X1.1325Y-2.2
X1.1325Y-2.3
X1.1325Y-2.4
X1.2325Y-2.2
X1.2325Y-2.3
X1.2325Y-2.4
T9
X1.4825Y-2.975
X1.4825Y-3.15
X1.8825Y-2.975
X1.8825Y-3.15
X3.55Y-2.175
X3.55Y-2.275
X3.55Y-2.375
T10
X2.2766Y-4.1818
X2.4734Y-4.1818
X3.05Y-1.7
X3.2469Y-1.7
T11
X2.7608Y-2.7208
X2.7608Y-4.2365
X3.0758Y-4.2365
X3.1841Y-2.7208
T5
G00X1.0972Y-2.5711
M15
G01X1.0657Y-2.5711
M16
G05
G00X1.0972Y-2.9116
M15
G01X1.0657Y-2.9116
M16
G05
G00X1.2441Y-2.5711
M15
G01X1.185Y-2.5711
M16
G05
G00X1.2441Y-2.9116
M15
G01X1.185Y-2.9116
M16
G05
M30
