%TF.GenerationSoftware,KiCad,Pcbnew,9.0.8-9.0.8~ubuntu24.04.1*%
%TF.CreationDate,2026-04-14T18:53:28+03:00*%
%TF.ProjectId,sn,736e2e6b-6963-4616-945f-706362585858,rev?*%
%TF.SameCoordinates,Original*%
%TF.FileFunction,Legend,Bot*%
%TF.FilePolarity,Positive*%
%FSLAX46Y46*%
G04 Gerber Fmt 4.6, Leading zero omitted, Abs format (unit mm)*
G04 Created by KiCad (PCBNEW 9.0.8-9.0.8~ubuntu24.04.1) date 2026-04-14 18:53:28*
%MOMM*%
%LPD*%
G01*
G04 APERTURE LIST*
G04 Aperture macros list*
%AMRoundRect*
0 Rectangle with rounded corners*
0 $1 Rounding radius*
0 $2 $3 $4 $5 $6 $7 $8 $9 X,Y pos of 4 corners*
0 Add a 4 corners polygon primitive as box body*
4,1,4,$2,$3,$4,$5,$6,$7,$8,$9,$2,$3,0*
0 Add four circle primitives for the rounded corners*
1,1,$1+$1,$2,$3*
1,1,$1+$1,$4,$5*
1,1,$1+$1,$6,$7*
1,1,$1+$1,$8,$9*
0 Add four rect primitives between the rounded corners*
20,1,$1+$1,$2,$3,$4,$5,0*
20,1,$1+$1,$4,$5,$6,$7,0*
20,1,$1+$1,$6,$7,$8,$9,0*
20,1,$1+$1,$8,$9,$2,$3,0*%
G04 Aperture macros list end*
%ADD10C,0.300000*%
%ADD11RoundRect,0.250000X0.550000X0.550000X-0.550000X0.550000X-0.550000X-0.550000X0.550000X-0.550000X0*%
%ADD12C,1.600000*%
%ADD13C,3.200000*%
%ADD14RoundRect,0.249999X0.850001X0.850001X-0.850001X0.850001X-0.850001X-0.850001X0.850001X-0.850001X0*%
%ADD15C,2.200000*%
%ADD16R,1.700000X1.700000*%
%ADD17O,1.700000X1.700000*%
%ADD18RoundRect,0.250000X-1.050000X-1.050000X1.050000X-1.050000X1.050000X1.050000X-1.050000X1.050000X0*%
%ADD19C,2.600000*%
%ADD20C,0.700000*%
%ADD21O,2.400000X0.900000*%
%ADD22O,1.700000X0.900000*%
%ADD23R,3.000000X3.000000*%
%ADD24C,3.000000*%
%ADD25RoundRect,0.250000X-0.550000X-0.550000X0.550000X-0.550000X0.550000X0.550000X-0.550000X0.550000X0*%
%ADD26RoundRect,0.250000X1.050000X1.050000X-1.050000X1.050000X-1.050000X-1.050000X1.050000X-1.050000X0*%
%ADD27R,2.000000X1.905000*%
%ADD28O,2.000000X1.905000*%
G04 APERTURE END LIST*
D10*
X90129633Y-98945489D02*
X90058205Y-98731203D01*
X90058205Y-98731203D02*
X89986776Y-98659774D01*
X89986776Y-98659774D02*
X89843919Y-98588346D01*
X89843919Y-98588346D02*
X89629633Y-98588346D01*
X89629633Y-98588346D02*
X89486776Y-98659774D01*
X89486776Y-98659774D02*
X89415348Y-98731203D01*
X89415348Y-98731203D02*
X89343919Y-98874060D01*
X89343919Y-98874060D02*
X89343919Y-99445489D01*
X89343919Y-99445489D02*
X90843919Y-99445489D01*
X90843919Y-99445489D02*
X90843919Y-98945489D01*
X90843919Y-98945489D02*
X90772490Y-98802632D01*
X90772490Y-98802632D02*
X90701062Y-98731203D01*
X90701062Y-98731203D02*
X90558205Y-98659774D01*
X90558205Y-98659774D02*
X90415348Y-98659774D01*
X90415348Y-98659774D02*
X90272490Y-98731203D01*
X90272490Y-98731203D02*
X90201062Y-98802632D01*
X90201062Y-98802632D02*
X90129633Y-98945489D01*
X90129633Y-98945489D02*
X90129633Y-99445489D01*
X89343919Y-97945489D02*
X90343919Y-97945489D01*
X90843919Y-97945489D02*
X90772490Y-98016917D01*
X90772490Y-98016917D02*
X90701062Y-97945489D01*
X90701062Y-97945489D02*
X90772490Y-97874060D01*
X90772490Y-97874060D02*
X90843919Y-97945489D01*
X90843919Y-97945489D02*
X90701062Y-97945489D01*
X90343919Y-97231203D02*
X89343919Y-97231203D01*
X89915348Y-97088346D02*
X89343919Y-96659774D01*
X90343919Y-96659774D02*
X89772490Y-97231203D01*
X90343919Y-96231202D02*
X90343919Y-95516917D01*
X90343919Y-95874060D02*
X89343919Y-95874060D01*
X89343919Y-94802631D02*
X89415348Y-94945488D01*
X89415348Y-94945488D02*
X89486776Y-95016917D01*
X89486776Y-95016917D02*
X89629633Y-95088345D01*
X89629633Y-95088345D02*
X90058205Y-95088345D01*
X90058205Y-95088345D02*
X90201062Y-95016917D01*
X90201062Y-95016917D02*
X90272490Y-94945488D01*
X90272490Y-94945488D02*
X90343919Y-94802631D01*
X90343919Y-94802631D02*
X90343919Y-94588345D01*
X90343919Y-94588345D02*
X90272490Y-94445488D01*
X90272490Y-94445488D02*
X90201062Y-94374060D01*
X90201062Y-94374060D02*
X90058205Y-94302631D01*
X90058205Y-94302631D02*
X89629633Y-94302631D01*
X89629633Y-94302631D02*
X89486776Y-94374060D01*
X89486776Y-94374060D02*
X89415348Y-94445488D01*
X89415348Y-94445488D02*
X89343919Y-94588345D01*
X89343919Y-94588345D02*
X89343919Y-94802631D01*
X90343919Y-93659774D02*
X88843919Y-93659774D01*
X90272490Y-93659774D02*
X90343919Y-93516917D01*
X90343919Y-93516917D02*
X90343919Y-93231202D01*
X90343919Y-93231202D02*
X90272490Y-93088345D01*
X90272490Y-93088345D02*
X90201062Y-93016917D01*
X90201062Y-93016917D02*
X90058205Y-92945488D01*
X90058205Y-92945488D02*
X89629633Y-92945488D01*
X89629633Y-92945488D02*
X89486776Y-93016917D01*
X89486776Y-93016917D02*
X89415348Y-93088345D01*
X89415348Y-93088345D02*
X89343919Y-93231202D01*
X89343919Y-93231202D02*
X89343919Y-93516917D01*
X89343919Y-93516917D02*
X89415348Y-93659774D01*
X89343919Y-92302631D02*
X90343919Y-92302631D01*
X90843919Y-92302631D02*
X90772490Y-92374059D01*
X90772490Y-92374059D02*
X90701062Y-92302631D01*
X90701062Y-92302631D02*
X90772490Y-92231202D01*
X90772490Y-92231202D02*
X90843919Y-92302631D01*
X90843919Y-92302631D02*
X90701062Y-92302631D01*
X89772490Y-91302630D02*
X89343919Y-91659773D01*
X89343919Y-91016916D02*
X90343919Y-91016916D01*
X90343919Y-91016916D02*
X90343919Y-91445488D01*
X90343919Y-91445488D02*
X90272490Y-91588345D01*
X90272490Y-91588345D02*
X90129633Y-91659773D01*
X90129633Y-91659773D02*
X89986776Y-91659773D01*
X89986776Y-91659773D02*
X89843919Y-91588345D01*
X89843919Y-91588345D02*
X89772490Y-91445488D01*
X89772490Y-91445488D02*
X89772490Y-91016916D01*
X86929003Y-99445489D02*
X88429003Y-99445489D01*
X88429003Y-99445489D02*
X87357574Y-98945489D01*
X87357574Y-98945489D02*
X88429003Y-98445489D01*
X88429003Y-98445489D02*
X86929003Y-98445489D01*
X87929003Y-97731203D02*
X86929003Y-97731203D01*
X86929003Y-97731203D02*
X87929003Y-97016917D01*
X87929003Y-97016917D02*
X86929003Y-97016917D01*
X86929003Y-96445489D02*
X87929003Y-95659775D01*
X87929003Y-96445489D02*
X86929003Y-95659775D01*
X86929003Y-94445489D02*
X87714717Y-94445489D01*
X87714717Y-94445489D02*
X87857574Y-94516917D01*
X87857574Y-94516917D02*
X87929003Y-94659774D01*
X87929003Y-94659774D02*
X87929003Y-94945489D01*
X87929003Y-94945489D02*
X87857574Y-95088346D01*
X87000432Y-94445489D02*
X86929003Y-94588346D01*
X86929003Y-94588346D02*
X86929003Y-94945489D01*
X86929003Y-94945489D02*
X87000432Y-95088346D01*
X87000432Y-95088346D02*
X87143289Y-95159774D01*
X87143289Y-95159774D02*
X87286146Y-95159774D01*
X87286146Y-95159774D02*
X87429003Y-95088346D01*
X87429003Y-95088346D02*
X87500432Y-94945489D01*
X87500432Y-94945489D02*
X87500432Y-94588346D01*
X87500432Y-94588346D02*
X87571860Y-94445489D01*
X87929003Y-93731203D02*
X86929003Y-93731203D01*
X86929003Y-93731203D02*
X87929003Y-93016917D01*
X87929003Y-93016917D02*
X86929003Y-93016917D01*
X88500432Y-93659774D02*
X88357574Y-93588346D01*
X88357574Y-93588346D02*
X88286146Y-93445488D01*
X88286146Y-93445488D02*
X88286146Y-93302631D01*
X88286146Y-93302631D02*
X88357574Y-93159774D01*
X88357574Y-93159774D02*
X88500432Y-93088346D01*
X86929003Y-91731203D02*
X87929003Y-91731203D01*
X87929003Y-91731203D02*
X87929003Y-91945489D01*
X87929003Y-91945489D02*
X87857574Y-92088346D01*
X87857574Y-92088346D02*
X87714717Y-92159775D01*
X87714717Y-92159775D02*
X87143289Y-92231203D01*
X87143289Y-92231203D02*
X87000432Y-92302632D01*
X87000432Y-92302632D02*
X86929003Y-92445489D01*
X86929003Y-90802632D02*
X87000432Y-90945489D01*
X87000432Y-90945489D02*
X87071860Y-91016918D01*
X87071860Y-91016918D02*
X87214717Y-91088346D01*
X87214717Y-91088346D02*
X87643289Y-91088346D01*
X87643289Y-91088346D02*
X87786146Y-91016918D01*
X87786146Y-91016918D02*
X87857574Y-90945489D01*
X87857574Y-90945489D02*
X87929003Y-90802632D01*
X87929003Y-90802632D02*
X87929003Y-90588346D01*
X87929003Y-90588346D02*
X87857574Y-90445489D01*
X87857574Y-90445489D02*
X87786146Y-90374061D01*
X87786146Y-90374061D02*
X87643289Y-90302632D01*
X87643289Y-90302632D02*
X87214717Y-90302632D01*
X87214717Y-90302632D02*
X87071860Y-90374061D01*
X87071860Y-90374061D02*
X87000432Y-90445489D01*
X87000432Y-90445489D02*
X86929003Y-90588346D01*
X86929003Y-90588346D02*
X86929003Y-90802632D01*
X87429003Y-89302632D02*
X87357574Y-89088346D01*
X87357574Y-89088346D02*
X87214717Y-89016918D01*
X87214717Y-89016918D02*
X87143289Y-89016918D01*
X87143289Y-89016918D02*
X87000432Y-89088346D01*
X87000432Y-89088346D02*
X86929003Y-89231203D01*
X86929003Y-89231203D02*
X86929003Y-89659775D01*
X86929003Y-89659775D02*
X87929003Y-89659775D01*
X87929003Y-89659775D02*
X87929003Y-89302632D01*
X87929003Y-89302632D02*
X87857574Y-89159775D01*
X87857574Y-89159775D02*
X87714717Y-89088346D01*
X87714717Y-89088346D02*
X87643289Y-89088346D01*
X87643289Y-89088346D02*
X87500432Y-89159775D01*
X87500432Y-89159775D02*
X87429003Y-89302632D01*
X87429003Y-89302632D02*
X87429003Y-89659775D01*
X86929003Y-87731204D02*
X87714717Y-87731204D01*
X87714717Y-87731204D02*
X87857574Y-87802632D01*
X87857574Y-87802632D02*
X87929003Y-87945489D01*
X87929003Y-87945489D02*
X87929003Y-88231204D01*
X87929003Y-88231204D02*
X87857574Y-88374061D01*
X87000432Y-87731204D02*
X86929003Y-87874061D01*
X86929003Y-87874061D02*
X86929003Y-88231204D01*
X86929003Y-88231204D02*
X87000432Y-88374061D01*
X87000432Y-88374061D02*
X87143289Y-88445489D01*
X87143289Y-88445489D02*
X87286146Y-88445489D01*
X87286146Y-88445489D02*
X87429003Y-88374061D01*
X87429003Y-88374061D02*
X87500432Y-88231204D01*
X87500432Y-88231204D02*
X87500432Y-87874061D01*
X87500432Y-87874061D02*
X87571860Y-87731204D01*
X84514087Y-99445489D02*
X86014087Y-99445489D01*
X86014087Y-99445489D02*
X86014087Y-98659774D01*
X85514087Y-98159775D02*
X84014087Y-98159775D01*
X85442658Y-98159775D02*
X85514087Y-98016918D01*
X85514087Y-98016918D02*
X85514087Y-97731203D01*
X85514087Y-97731203D02*
X85442658Y-97588346D01*
X85442658Y-97588346D02*
X85371230Y-97516918D01*
X85371230Y-97516918D02*
X85228373Y-97445489D01*
X85228373Y-97445489D02*
X84799801Y-97445489D01*
X84799801Y-97445489D02*
X84656944Y-97516918D01*
X84656944Y-97516918D02*
X84585516Y-97588346D01*
X84585516Y-97588346D02*
X84514087Y-97731203D01*
X84514087Y-97731203D02*
X84514087Y-98016918D01*
X84514087Y-98016918D02*
X84585516Y-98159775D01*
X85514087Y-96945489D02*
X84514087Y-96588346D01*
X85514087Y-96231203D02*
X84514087Y-96588346D01*
X84514087Y-96588346D02*
X84156944Y-96731203D01*
X84156944Y-96731203D02*
X84085516Y-96802632D01*
X84085516Y-96802632D02*
X84014087Y-96945489D01*
X84514087Y-95659775D02*
X85514087Y-95659775D01*
X85514087Y-95659775D02*
X85514087Y-95016918D01*
X85514087Y-95016918D02*
X84514087Y-95016918D01*
X84514087Y-93659775D02*
X85299801Y-93659775D01*
X85299801Y-93659775D02*
X85442658Y-93731203D01*
X85442658Y-93731203D02*
X85514087Y-93874060D01*
X85514087Y-93874060D02*
X85514087Y-94159775D01*
X85514087Y-94159775D02*
X85442658Y-94302632D01*
X84585516Y-93659775D02*
X84514087Y-93802632D01*
X84514087Y-93802632D02*
X84514087Y-94159775D01*
X84514087Y-94159775D02*
X84585516Y-94302632D01*
X84585516Y-94302632D02*
X84728373Y-94374060D01*
X84728373Y-94374060D02*
X84871230Y-94374060D01*
X84871230Y-94374060D02*
X85014087Y-94302632D01*
X85014087Y-94302632D02*
X85085516Y-94159775D01*
X85085516Y-94159775D02*
X85085516Y-93802632D01*
X85085516Y-93802632D02*
X85156944Y-93659775D01*
X86014087Y-92016917D02*
X86014087Y-91159775D01*
X84514087Y-91588346D02*
X86014087Y-91588346D01*
X84514087Y-90659775D02*
X86014087Y-90659775D01*
X86014087Y-90659775D02*
X86014087Y-90088346D01*
X86014087Y-90088346D02*
X85942658Y-89945489D01*
X85942658Y-89945489D02*
X85871230Y-89874060D01*
X85871230Y-89874060D02*
X85728373Y-89802632D01*
X85728373Y-89802632D02*
X85514087Y-89802632D01*
X85514087Y-89802632D02*
X85371230Y-89874060D01*
X85371230Y-89874060D02*
X85299801Y-89945489D01*
X85299801Y-89945489D02*
X85228373Y-90088346D01*
X85228373Y-90088346D02*
X85228373Y-90659775D01*
X84514087Y-89159775D02*
X86014087Y-89159775D01*
X86014087Y-89159775D02*
X84942658Y-88659775D01*
X84942658Y-88659775D02*
X86014087Y-88159775D01*
X86014087Y-88159775D02*
X84514087Y-88159775D01*
X85085516Y-87445489D02*
X85085516Y-86302632D01*
X84514087Y-84802631D02*
X84514087Y-85659774D01*
X84514087Y-85231203D02*
X86014087Y-85231203D01*
X86014087Y-85231203D02*
X85799801Y-85374060D01*
X85799801Y-85374060D02*
X85656944Y-85516917D01*
X85656944Y-85516917D02*
X85585516Y-85659774D01*
X85871230Y-84231203D02*
X85942658Y-84159775D01*
X85942658Y-84159775D02*
X86014087Y-84016918D01*
X86014087Y-84016918D02*
X86014087Y-83659775D01*
X86014087Y-83659775D02*
X85942658Y-83516918D01*
X85942658Y-83516918D02*
X85871230Y-83445489D01*
X85871230Y-83445489D02*
X85728373Y-83374060D01*
X85728373Y-83374060D02*
X85585516Y-83374060D01*
X85585516Y-83374060D02*
X85371230Y-83445489D01*
X85371230Y-83445489D02*
X84514087Y-84302632D01*
X84514087Y-84302632D02*
X84514087Y-83374060D01*
X83456314Y-99516917D02*
X83527742Y-99445489D01*
X83527742Y-99445489D02*
X83599171Y-99302632D01*
X83599171Y-99302632D02*
X83599171Y-98945489D01*
X83599171Y-98945489D02*
X83527742Y-98802632D01*
X83527742Y-98802632D02*
X83456314Y-98731203D01*
X83456314Y-98731203D02*
X83313457Y-98659774D01*
X83313457Y-98659774D02*
X83170600Y-98659774D01*
X83170600Y-98659774D02*
X82956314Y-98731203D01*
X82956314Y-98731203D02*
X82099171Y-99588346D01*
X82099171Y-99588346D02*
X82099171Y-98659774D01*
X83599171Y-97731203D02*
X83599171Y-97588346D01*
X83599171Y-97588346D02*
X83527742Y-97445489D01*
X83527742Y-97445489D02*
X83456314Y-97374061D01*
X83456314Y-97374061D02*
X83313457Y-97302632D01*
X83313457Y-97302632D02*
X83027742Y-97231203D01*
X83027742Y-97231203D02*
X82670600Y-97231203D01*
X82670600Y-97231203D02*
X82384885Y-97302632D01*
X82384885Y-97302632D02*
X82242028Y-97374061D01*
X82242028Y-97374061D02*
X82170600Y-97445489D01*
X82170600Y-97445489D02*
X82099171Y-97588346D01*
X82099171Y-97588346D02*
X82099171Y-97731203D01*
X82099171Y-97731203D02*
X82170600Y-97874061D01*
X82170600Y-97874061D02*
X82242028Y-97945489D01*
X82242028Y-97945489D02*
X82384885Y-98016918D01*
X82384885Y-98016918D02*
X82670600Y-98088346D01*
X82670600Y-98088346D02*
X83027742Y-98088346D01*
X83027742Y-98088346D02*
X83313457Y-98016918D01*
X83313457Y-98016918D02*
X83456314Y-97945489D01*
X83456314Y-97945489D02*
X83527742Y-97874061D01*
X83527742Y-97874061D02*
X83599171Y-97731203D01*
X83456314Y-96659775D02*
X83527742Y-96588347D01*
X83527742Y-96588347D02*
X83599171Y-96445490D01*
X83599171Y-96445490D02*
X83599171Y-96088347D01*
X83599171Y-96088347D02*
X83527742Y-95945490D01*
X83527742Y-95945490D02*
X83456314Y-95874061D01*
X83456314Y-95874061D02*
X83313457Y-95802632D01*
X83313457Y-95802632D02*
X83170600Y-95802632D01*
X83170600Y-95802632D02*
X82956314Y-95874061D01*
X82956314Y-95874061D02*
X82099171Y-96731204D01*
X82099171Y-96731204D02*
X82099171Y-95802632D01*
X83599171Y-94516919D02*
X83599171Y-94802633D01*
X83599171Y-94802633D02*
X83527742Y-94945490D01*
X83527742Y-94945490D02*
X83456314Y-95016919D01*
X83456314Y-95016919D02*
X83242028Y-95159776D01*
X83242028Y-95159776D02*
X82956314Y-95231204D01*
X82956314Y-95231204D02*
X82384885Y-95231204D01*
X82384885Y-95231204D02*
X82242028Y-95159776D01*
X82242028Y-95159776D02*
X82170600Y-95088347D01*
X82170600Y-95088347D02*
X82099171Y-94945490D01*
X82099171Y-94945490D02*
X82099171Y-94659776D01*
X82099171Y-94659776D02*
X82170600Y-94516919D01*
X82170600Y-94516919D02*
X82242028Y-94445490D01*
X82242028Y-94445490D02*
X82384885Y-94374061D01*
X82384885Y-94374061D02*
X82742028Y-94374061D01*
X82742028Y-94374061D02*
X82884885Y-94445490D01*
X82884885Y-94445490D02*
X82956314Y-94516919D01*
X82956314Y-94516919D02*
X83027742Y-94659776D01*
X83027742Y-94659776D02*
X83027742Y-94945490D01*
X83027742Y-94945490D02*
X82956314Y-95088347D01*
X82956314Y-95088347D02*
X82884885Y-95159776D01*
X82884885Y-95159776D02*
X82742028Y-95231204D01*
%LPC*%
D11*
%TO.C,U1*%
X72390000Y-52705000D03*
D12*
X72390000Y-50165000D03*
X64770000Y-50165000D03*
X64770000Y-52705000D03*
%TD*%
D13*
%TO.C,H3*%
X90805000Y-42545000D03*
%TD*%
D12*
%TO.C,R3*%
X80010000Y-53975000D03*
X80010000Y-64135000D03*
%TD*%
D14*
%TO.C,D3*%
X47815500Y-80010000D03*
D15*
X37655500Y-80010000D03*
%TD*%
D16*
%TO.C,J4*%
X28765500Y-55880000D03*
D17*
X31305500Y-55880000D03*
X28765500Y-58420000D03*
X31305500Y-58420000D03*
X28765500Y-60960000D03*
X31305500Y-60960000D03*
%TD*%
D18*
%TO.C,J2*%
X57825000Y-106217500D03*
D19*
X62825000Y-106217500D03*
%TD*%
D20*
%TO.C,J3*%
X31830000Y-66655000D03*
X31830000Y-67505000D03*
X31830000Y-68355000D03*
X31830000Y-69205000D03*
X31830000Y-70055000D03*
X31830000Y-70905000D03*
X31830000Y-71755000D03*
X31830000Y-72605000D03*
X30480000Y-72605000D03*
X30480000Y-71755000D03*
X30480000Y-70905000D03*
X30480000Y-70055000D03*
X30480000Y-69205000D03*
X30480000Y-68355000D03*
X30480000Y-67505000D03*
X30480000Y-66655000D03*
D21*
X30850000Y-65305000D03*
D22*
X27470000Y-65305000D03*
D21*
X30850000Y-73955000D03*
D22*
X27470000Y-73955000D03*
%TD*%
D12*
%TO.C,R1*%
X75565000Y-53975000D03*
X75565000Y-64135000D03*
%TD*%
D13*
%TO.C,H1*%
X29210000Y-108585000D03*
%TD*%
D23*
%TO.C,PS1*%
X80875000Y-69107500D03*
D24*
X70125000Y-69107500D03*
X70125000Y-107607500D03*
X78125000Y-107607500D03*
%TD*%
D25*
%TO.C,U3*%
X64770000Y-56515000D03*
D12*
X64770000Y-59055000D03*
X64770000Y-61595000D03*
X72390000Y-61595000D03*
X72390000Y-59055000D03*
X72390000Y-56515000D03*
%TD*%
D13*
%TO.C,H2*%
X59690000Y-61595000D03*
%TD*%
D12*
%TO.C,R12*%
X83820000Y-53975000D03*
X83820000Y-64135000D03*
%TD*%
D26*
%TO.C,J1*%
X82470000Y-43180000D03*
D19*
X77470000Y-43180000D03*
%TD*%
D12*
%TO.C,R2*%
X75565000Y-51435000D03*
X85725000Y-51435000D03*
%TD*%
D14*
%TO.C,D1*%
X47815500Y-75565000D03*
D15*
X37655500Y-75565000D03*
%TD*%
D13*
%TO.C,H4*%
X58420000Y-92710000D03*
%TD*%
D27*
%TO.C,Q1*%
X90170000Y-55245000D03*
D28*
X90170000Y-57785000D03*
X90170000Y-60325000D03*
%TD*%
%LPD*%
M02*
