%TF.GenerationSoftware,KiCad,Pcbnew,9.0.8-9.0.8~ubuntu24.04.1*%
%TF.CreationDate,2026-04-13T12:47:46+03:00*%
%TF.ProjectId,sn,736e2e6b-6963-4616-945f-706362585858,rev?*%
%TF.SameCoordinates,Original*%
%TF.FileFunction,Legend,Bot*%
%TF.FilePolarity,Positive*%
%FSLAX46Y46*%
G04 Gerber Fmt 4.6, Leading zero omitted, Abs format (unit mm)*
G04 Created by KiCad (PCBNEW 9.0.8-9.0.8~ubuntu24.04.1) date 2026-04-13 12:47:46*
%MOMM*%
%LPD*%
G01*
G04 APERTURE LIST*
G04 Aperture macros list*
%AMRoundRect*
0 Rectangle with rounded corners*
0 $1 Rounding radius*
0 $2 $3 $4 $5 $6 $7 $8 $9 X,Y pos of 4 corners*
0 Add a 4 corners polygon primitive as box body*
4,1,4,$2,$3,$4,$5,$6,$7,$8,$9,$2,$3,0*
0 Add four circle primitives for the rounded corners*
1,1,$1+$1,$2,$3*
1,1,$1+$1,$4,$5*
1,1,$1+$1,$6,$7*
1,1,$1+$1,$8,$9*
0 Add four rect primitives between the rounded corners*
20,1,$1+$1,$2,$3,$4,$5,0*
20,1,$1+$1,$4,$5,$6,$7,0*
20,1,$1+$1,$6,$7,$8,$9,0*
20,1,$1+$1,$8,$9,$2,$3,0*%
G04 Aperture macros list end*
%ADD10C,0.300000*%
%ADD11O,1.700000X0.900000*%
%ADD12O,2.400000X0.900000*%
%ADD13C,0.700000*%
%ADD14C,3.200000*%
%ADD15RoundRect,0.250000X0.550000X0.550000X-0.550000X0.550000X-0.550000X-0.550000X0.550000X-0.550000X0*%
%ADD16C,1.600000*%
%ADD17RoundRect,0.249999X0.850001X0.850001X-0.850001X0.850001X-0.850001X-0.850001X0.850001X-0.850001X0*%
%ADD18C,2.200000*%
%ADD19R,1.700000X1.700000*%
%ADD20O,1.700000X1.700000*%
%ADD21RoundRect,0.250000X-1.050000X-1.050000X1.050000X-1.050000X1.050000X1.050000X-1.050000X1.050000X0*%
%ADD22C,2.600000*%
%ADD23R,3.000000X3.000000*%
%ADD24C,3.000000*%
%ADD25RoundRect,0.250000X-0.550000X-0.550000X0.550000X-0.550000X0.550000X0.550000X-0.550000X0.550000X0*%
%ADD26RoundRect,0.250000X1.050000X1.050000X-1.050000X1.050000X-1.050000X-1.050000X1.050000X-1.050000X0*%
%ADD27R,2.000000X1.905000*%
%ADD28O,2.000000X1.905000*%
G04 APERTURE END LIST*
D10*
X88514717Y-98945489D02*
X88443289Y-98731203D01*
X88443289Y-98731203D02*
X88371860Y-98659774D01*
X88371860Y-98659774D02*
X88229003Y-98588346D01*
X88229003Y-98588346D02*
X88014717Y-98588346D01*
X88014717Y-98588346D02*
X87871860Y-98659774D01*
X87871860Y-98659774D02*
X87800432Y-98731203D01*
X87800432Y-98731203D02*
X87729003Y-98874060D01*
X87729003Y-98874060D02*
X87729003Y-99445489D01*
X87729003Y-99445489D02*
X89229003Y-99445489D01*
X89229003Y-99445489D02*
X89229003Y-98945489D01*
X89229003Y-98945489D02*
X89157574Y-98802632D01*
X89157574Y-98802632D02*
X89086146Y-98731203D01*
X89086146Y-98731203D02*
X88943289Y-98659774D01*
X88943289Y-98659774D02*
X88800432Y-98659774D01*
X88800432Y-98659774D02*
X88657574Y-98731203D01*
X88657574Y-98731203D02*
X88586146Y-98802632D01*
X88586146Y-98802632D02*
X88514717Y-98945489D01*
X88514717Y-98945489D02*
X88514717Y-99445489D01*
X87729003Y-97945489D02*
X88729003Y-97945489D01*
X89229003Y-97945489D02*
X89157574Y-98016917D01*
X89157574Y-98016917D02*
X89086146Y-97945489D01*
X89086146Y-97945489D02*
X89157574Y-97874060D01*
X89157574Y-97874060D02*
X89229003Y-97945489D01*
X89229003Y-97945489D02*
X89086146Y-97945489D01*
X88729003Y-97231203D02*
X87729003Y-97231203D01*
X88300432Y-97088346D02*
X87729003Y-96659774D01*
X88729003Y-96659774D02*
X88157574Y-97231203D01*
X88729003Y-96231202D02*
X88729003Y-95516917D01*
X88729003Y-95874060D02*
X87729003Y-95874060D01*
X87729003Y-94802631D02*
X87800432Y-94945488D01*
X87800432Y-94945488D02*
X87871860Y-95016917D01*
X87871860Y-95016917D02*
X88014717Y-95088345D01*
X88014717Y-95088345D02*
X88443289Y-95088345D01*
X88443289Y-95088345D02*
X88586146Y-95016917D01*
X88586146Y-95016917D02*
X88657574Y-94945488D01*
X88657574Y-94945488D02*
X88729003Y-94802631D01*
X88729003Y-94802631D02*
X88729003Y-94588345D01*
X88729003Y-94588345D02*
X88657574Y-94445488D01*
X88657574Y-94445488D02*
X88586146Y-94374060D01*
X88586146Y-94374060D02*
X88443289Y-94302631D01*
X88443289Y-94302631D02*
X88014717Y-94302631D01*
X88014717Y-94302631D02*
X87871860Y-94374060D01*
X87871860Y-94374060D02*
X87800432Y-94445488D01*
X87800432Y-94445488D02*
X87729003Y-94588345D01*
X87729003Y-94588345D02*
X87729003Y-94802631D01*
X88729003Y-93659774D02*
X87229003Y-93659774D01*
X88657574Y-93659774D02*
X88729003Y-93516917D01*
X88729003Y-93516917D02*
X88729003Y-93231202D01*
X88729003Y-93231202D02*
X88657574Y-93088345D01*
X88657574Y-93088345D02*
X88586146Y-93016917D01*
X88586146Y-93016917D02*
X88443289Y-92945488D01*
X88443289Y-92945488D02*
X88014717Y-92945488D01*
X88014717Y-92945488D02*
X87871860Y-93016917D01*
X87871860Y-93016917D02*
X87800432Y-93088345D01*
X87800432Y-93088345D02*
X87729003Y-93231202D01*
X87729003Y-93231202D02*
X87729003Y-93516917D01*
X87729003Y-93516917D02*
X87800432Y-93659774D01*
X87729003Y-92302631D02*
X88729003Y-92302631D01*
X89229003Y-92302631D02*
X89157574Y-92374059D01*
X89157574Y-92374059D02*
X89086146Y-92302631D01*
X89086146Y-92302631D02*
X89157574Y-92231202D01*
X89157574Y-92231202D02*
X89229003Y-92302631D01*
X89229003Y-92302631D02*
X89086146Y-92302631D01*
X88157574Y-91302630D02*
X87729003Y-91659773D01*
X87729003Y-91016916D02*
X88729003Y-91016916D01*
X88729003Y-91016916D02*
X88729003Y-91445488D01*
X88729003Y-91445488D02*
X88657574Y-91588345D01*
X88657574Y-91588345D02*
X88514717Y-91659773D01*
X88514717Y-91659773D02*
X88371860Y-91659773D01*
X88371860Y-91659773D02*
X88229003Y-91588345D01*
X88229003Y-91588345D02*
X88157574Y-91445488D01*
X88157574Y-91445488D02*
X88157574Y-91016916D01*
X85314087Y-99445489D02*
X86814087Y-99445489D01*
X86814087Y-99445489D02*
X85742658Y-98945489D01*
X85742658Y-98945489D02*
X86814087Y-98445489D01*
X86814087Y-98445489D02*
X85314087Y-98445489D01*
X86314087Y-97731203D02*
X85314087Y-97731203D01*
X85314087Y-97731203D02*
X86314087Y-97016917D01*
X86314087Y-97016917D02*
X85314087Y-97016917D01*
X85314087Y-96445489D02*
X86314087Y-95659775D01*
X86314087Y-96445489D02*
X85314087Y-95659775D01*
X85314087Y-94445489D02*
X86099801Y-94445489D01*
X86099801Y-94445489D02*
X86242658Y-94516917D01*
X86242658Y-94516917D02*
X86314087Y-94659774D01*
X86314087Y-94659774D02*
X86314087Y-94945489D01*
X86314087Y-94945489D02*
X86242658Y-95088346D01*
X85385516Y-94445489D02*
X85314087Y-94588346D01*
X85314087Y-94588346D02*
X85314087Y-94945489D01*
X85314087Y-94945489D02*
X85385516Y-95088346D01*
X85385516Y-95088346D02*
X85528373Y-95159774D01*
X85528373Y-95159774D02*
X85671230Y-95159774D01*
X85671230Y-95159774D02*
X85814087Y-95088346D01*
X85814087Y-95088346D02*
X85885516Y-94945489D01*
X85885516Y-94945489D02*
X85885516Y-94588346D01*
X85885516Y-94588346D02*
X85956944Y-94445489D01*
X86314087Y-93731203D02*
X85314087Y-93731203D01*
X85314087Y-93731203D02*
X86314087Y-93016917D01*
X86314087Y-93016917D02*
X85314087Y-93016917D01*
X86885516Y-93659774D02*
X86742658Y-93588346D01*
X86742658Y-93588346D02*
X86671230Y-93445488D01*
X86671230Y-93445488D02*
X86671230Y-93302631D01*
X86671230Y-93302631D02*
X86742658Y-93159774D01*
X86742658Y-93159774D02*
X86885516Y-93088346D01*
X85314087Y-91731203D02*
X86314087Y-91731203D01*
X86314087Y-91731203D02*
X86314087Y-91945489D01*
X86314087Y-91945489D02*
X86242658Y-92088346D01*
X86242658Y-92088346D02*
X86099801Y-92159775D01*
X86099801Y-92159775D02*
X85528373Y-92231203D01*
X85528373Y-92231203D02*
X85385516Y-92302632D01*
X85385516Y-92302632D02*
X85314087Y-92445489D01*
X85314087Y-90802632D02*
X85385516Y-90945489D01*
X85385516Y-90945489D02*
X85456944Y-91016918D01*
X85456944Y-91016918D02*
X85599801Y-91088346D01*
X85599801Y-91088346D02*
X86028373Y-91088346D01*
X86028373Y-91088346D02*
X86171230Y-91016918D01*
X86171230Y-91016918D02*
X86242658Y-90945489D01*
X86242658Y-90945489D02*
X86314087Y-90802632D01*
X86314087Y-90802632D02*
X86314087Y-90588346D01*
X86314087Y-90588346D02*
X86242658Y-90445489D01*
X86242658Y-90445489D02*
X86171230Y-90374061D01*
X86171230Y-90374061D02*
X86028373Y-90302632D01*
X86028373Y-90302632D02*
X85599801Y-90302632D01*
X85599801Y-90302632D02*
X85456944Y-90374061D01*
X85456944Y-90374061D02*
X85385516Y-90445489D01*
X85385516Y-90445489D02*
X85314087Y-90588346D01*
X85314087Y-90588346D02*
X85314087Y-90802632D01*
X85814087Y-89302632D02*
X85742658Y-89088346D01*
X85742658Y-89088346D02*
X85599801Y-89016918D01*
X85599801Y-89016918D02*
X85528373Y-89016918D01*
X85528373Y-89016918D02*
X85385516Y-89088346D01*
X85385516Y-89088346D02*
X85314087Y-89231203D01*
X85314087Y-89231203D02*
X85314087Y-89659775D01*
X85314087Y-89659775D02*
X86314087Y-89659775D01*
X86314087Y-89659775D02*
X86314087Y-89302632D01*
X86314087Y-89302632D02*
X86242658Y-89159775D01*
X86242658Y-89159775D02*
X86099801Y-89088346D01*
X86099801Y-89088346D02*
X86028373Y-89088346D01*
X86028373Y-89088346D02*
X85885516Y-89159775D01*
X85885516Y-89159775D02*
X85814087Y-89302632D01*
X85814087Y-89302632D02*
X85814087Y-89659775D01*
X85314087Y-87731204D02*
X86099801Y-87731204D01*
X86099801Y-87731204D02*
X86242658Y-87802632D01*
X86242658Y-87802632D02*
X86314087Y-87945489D01*
X86314087Y-87945489D02*
X86314087Y-88231204D01*
X86314087Y-88231204D02*
X86242658Y-88374061D01*
X85385516Y-87731204D02*
X85314087Y-87874061D01*
X85314087Y-87874061D02*
X85314087Y-88231204D01*
X85314087Y-88231204D02*
X85385516Y-88374061D01*
X85385516Y-88374061D02*
X85528373Y-88445489D01*
X85528373Y-88445489D02*
X85671230Y-88445489D01*
X85671230Y-88445489D02*
X85814087Y-88374061D01*
X85814087Y-88374061D02*
X85885516Y-88231204D01*
X85885516Y-88231204D02*
X85885516Y-87874061D01*
X85885516Y-87874061D02*
X85956944Y-87731204D01*
X82899171Y-99445489D02*
X84399171Y-99445489D01*
X84399171Y-99445489D02*
X84399171Y-98659774D01*
X83899171Y-98159775D02*
X82399171Y-98159775D01*
X83827742Y-98159775D02*
X83899171Y-98016918D01*
X83899171Y-98016918D02*
X83899171Y-97731203D01*
X83899171Y-97731203D02*
X83827742Y-97588346D01*
X83827742Y-97588346D02*
X83756314Y-97516918D01*
X83756314Y-97516918D02*
X83613457Y-97445489D01*
X83613457Y-97445489D02*
X83184885Y-97445489D01*
X83184885Y-97445489D02*
X83042028Y-97516918D01*
X83042028Y-97516918D02*
X82970600Y-97588346D01*
X82970600Y-97588346D02*
X82899171Y-97731203D01*
X82899171Y-97731203D02*
X82899171Y-98016918D01*
X82899171Y-98016918D02*
X82970600Y-98159775D01*
X83899171Y-96945489D02*
X82899171Y-96588346D01*
X83899171Y-96231203D02*
X82899171Y-96588346D01*
X82899171Y-96588346D02*
X82542028Y-96731203D01*
X82542028Y-96731203D02*
X82470600Y-96802632D01*
X82470600Y-96802632D02*
X82399171Y-96945489D01*
X82899171Y-95659775D02*
X83899171Y-95659775D01*
X83899171Y-95659775D02*
X83899171Y-95016918D01*
X83899171Y-95016918D02*
X82899171Y-95016918D01*
X82899171Y-93659775D02*
X83684885Y-93659775D01*
X83684885Y-93659775D02*
X83827742Y-93731203D01*
X83827742Y-93731203D02*
X83899171Y-93874060D01*
X83899171Y-93874060D02*
X83899171Y-94159775D01*
X83899171Y-94159775D02*
X83827742Y-94302632D01*
X82970600Y-93659775D02*
X82899171Y-93802632D01*
X82899171Y-93802632D02*
X82899171Y-94159775D01*
X82899171Y-94159775D02*
X82970600Y-94302632D01*
X82970600Y-94302632D02*
X83113457Y-94374060D01*
X83113457Y-94374060D02*
X83256314Y-94374060D01*
X83256314Y-94374060D02*
X83399171Y-94302632D01*
X83399171Y-94302632D02*
X83470600Y-94159775D01*
X83470600Y-94159775D02*
X83470600Y-93802632D01*
X83470600Y-93802632D02*
X83542028Y-93659775D01*
X84399171Y-92016917D02*
X84399171Y-91159775D01*
X82899171Y-91588346D02*
X84399171Y-91588346D01*
X82899171Y-90659775D02*
X84399171Y-90659775D01*
X84399171Y-90659775D02*
X84399171Y-90088346D01*
X84399171Y-90088346D02*
X84327742Y-89945489D01*
X84327742Y-89945489D02*
X84256314Y-89874060D01*
X84256314Y-89874060D02*
X84113457Y-89802632D01*
X84113457Y-89802632D02*
X83899171Y-89802632D01*
X83899171Y-89802632D02*
X83756314Y-89874060D01*
X83756314Y-89874060D02*
X83684885Y-89945489D01*
X83684885Y-89945489D02*
X83613457Y-90088346D01*
X83613457Y-90088346D02*
X83613457Y-90659775D01*
X82899171Y-89159775D02*
X84399171Y-89159775D01*
X84399171Y-89159775D02*
X83327742Y-88659775D01*
X83327742Y-88659775D02*
X84399171Y-88159775D01*
X84399171Y-88159775D02*
X82899171Y-88159775D01*
X83470600Y-87445489D02*
X83470600Y-86302632D01*
X82899171Y-84802631D02*
X82899171Y-85659774D01*
X82899171Y-85231203D02*
X84399171Y-85231203D01*
X84399171Y-85231203D02*
X84184885Y-85374060D01*
X84184885Y-85374060D02*
X84042028Y-85516917D01*
X84042028Y-85516917D02*
X83970600Y-85659774D01*
X84256314Y-84231203D02*
X84327742Y-84159775D01*
X84327742Y-84159775D02*
X84399171Y-84016918D01*
X84399171Y-84016918D02*
X84399171Y-83659775D01*
X84399171Y-83659775D02*
X84327742Y-83516918D01*
X84327742Y-83516918D02*
X84256314Y-83445489D01*
X84256314Y-83445489D02*
X84113457Y-83374060D01*
X84113457Y-83374060D02*
X83970600Y-83374060D01*
X83970600Y-83374060D02*
X83756314Y-83445489D01*
X83756314Y-83445489D02*
X82899171Y-84302632D01*
X82899171Y-84302632D02*
X82899171Y-83374060D01*
%LPC*%
D11*
%TO.C,J3*%
X27470000Y-73955000D03*
D12*
X30850000Y-73955000D03*
D11*
X27470000Y-65305000D03*
D12*
X30850000Y-65305000D03*
D13*
X30480000Y-66655000D03*
X30480000Y-67505000D03*
X30480000Y-68355000D03*
X30480000Y-69205000D03*
X30480000Y-70055000D03*
X30480000Y-70905000D03*
X30480000Y-71755000D03*
X30480000Y-72605000D03*
X31830000Y-72605000D03*
X31830000Y-71755000D03*
X31830000Y-70905000D03*
X31830000Y-70055000D03*
X31830000Y-69205000D03*
X31830000Y-68355000D03*
X31830000Y-67505000D03*
X31830000Y-66655000D03*
%TD*%
D14*
%TO.C,H1*%
X29210000Y-108585000D03*
%TD*%
%TO.C,H2*%
X59690000Y-61595000D03*
%TD*%
%TO.C,H3*%
X90805000Y-42545000D03*
%TD*%
%TO.C,H4*%
X58420000Y-92710000D03*
%TD*%
D15*
%TO.C,U1*%
X72390000Y-52705000D03*
D16*
X72390000Y-50165000D03*
X64770000Y-50165000D03*
X64770000Y-52705000D03*
%TD*%
%TO.C,R3*%
X80010000Y-53975000D03*
X80010000Y-64135000D03*
%TD*%
D17*
%TO.C,D3*%
X47815500Y-80010000D03*
D18*
X37655500Y-80010000D03*
%TD*%
D19*
%TO.C,J4*%
X28765500Y-55880000D03*
D20*
X31305500Y-55880000D03*
X28765500Y-58420000D03*
X31305500Y-58420000D03*
X28765500Y-60960000D03*
X31305500Y-60960000D03*
%TD*%
D21*
%TO.C,J2*%
X57825000Y-106217500D03*
D22*
X62825000Y-106217500D03*
%TD*%
D16*
%TO.C,R1*%
X75565000Y-53975000D03*
X75565000Y-64135000D03*
%TD*%
D23*
%TO.C,PS1*%
X80875000Y-69107500D03*
D24*
X70125000Y-69107500D03*
X70125000Y-107607500D03*
X78125000Y-107607500D03*
%TD*%
D25*
%TO.C,U3*%
X64770000Y-56515000D03*
D16*
X64770000Y-59055000D03*
X64770000Y-61595000D03*
X72390000Y-61595000D03*
X72390000Y-59055000D03*
X72390000Y-56515000D03*
%TD*%
%TO.C,R12*%
X83820000Y-53975000D03*
X83820000Y-64135000D03*
%TD*%
D26*
%TO.C,J1*%
X82470000Y-43180000D03*
D22*
X77470000Y-43180000D03*
%TD*%
D16*
%TO.C,R2*%
X75565000Y-51435000D03*
X85725000Y-51435000D03*
%TD*%
D17*
%TO.C,D1*%
X47815500Y-75565000D03*
D18*
X37655500Y-75565000D03*
%TD*%
D27*
%TO.C,Q1*%
X90170000Y-55245000D03*
D28*
X90170000Y-57785000D03*
X90170000Y-60325000D03*
%TD*%
%LPD*%
M02*
